<svg xmlns="http://www.w3.org/2000/svg" version="1.1" xmlns:xlink="http://www.w3.org/1999/xlink" stroke-width="0" stroke-linecap="round" stroke-linejoin="round" width="1in" height="0.5700000000000001in" id="_top" viewBox="10 10.51 1000 570"><defs><rect x="-17.715" y="-11.81" width="35.43" height="23.62" id="tool-D10-pad-1000"/><rect x="-23.62" y="-19.685" width="47.24" height="39.37" id="tool-D11-pad-1001"/><rect x="-19.685" y="-23.62" width="39.37" height="47.24" id="tool-D12-pad-1002"/><polygon points="49.999898359744584,20.71063601788248 20.71063601788248,49.999898359744584 -20.710636017882475,49.999898359744584 -49.999898359744584,20.710636017882482 -49.99989835974459,-20.71063601788247 -20.710636017882507,-49.99989835974457 20.71063601788249,-49.99989835974458 49.99989835974457,-20.71063601788251" id="tool-D13-pad-1003"/><circle cx="0" cy="0" r="19.685" id="tool-D14-pad-1004"/><polygon points="42.4999136057829,17.604040615200105 17.60404061520011,42.4999136057829 -17.604040615200102,42.4999136057829 -42.4999136057829,17.604040615200113 -42.4999136057829,-17.604040615200102 -17.60404061520013,-42.499913605782886 17.604040615200116,-42.49991360578289 42.499913605782886,-17.604040615200134" id="tool-D15-pad-1005"/><rect x="-19.685" y="-27.56" width="39.37" height="55.12" id="tool-D16-pad-1006"/><rect x="-37.4" y="-20" width="74.8" height="40" id="tool-D17-pad-1007"/><circle cx="0" cy="0" r="14.5" id="tool-D21-pad-1011"/><circle cx="0" cy="0" r="7.5" id="tool-T1-pad-1012"/><circle cx="0" cy="0" r="11.81" id="tool-T2-pad-1013"/><circle cx="0" cy="0" r="26" id="tool-T3-pad-1014"/><circle cx="0" cy="0" r="3.935" id="tool-D14-pad-1021"/><rect x="-20.715" y="-14.81" width="41.43" height="29.62" id="tool-D10-pad-1028"/><rect x="-26.62" y="-22.685" width="53.24" height="45.37" id="tool-D11-pad-1029"/><rect x="-22.685" y="-26.62" width="45.37" height="53.24" id="tool-D12-pad-1030"/><polygon points="52.99989226132925,21.95327417895542 21.953274178955425,52.99989226132925 -21.953274178955418,52.99989226132925 -52.99989226132925,21.95327417895543 -52.99989226132926,-21.953274178955414 -21.953274178955454,-52.99989226132924 21.953274178955436,-52.999892261329244 52.99989226132924,-21.953274178955457" id="tool-D13-pad-1031"/><circle cx="0" cy="0" r="22.685" id="tool-D14-pad-1032"/><polygon points="45.49990750736757,18.846678776273052 18.846678776273055,45.49990750736757 -18.846678776273052,45.49990750736757 -45.49990750736757,18.84667877627306 -45.499907507367574,-18.84667877627305 -18.84667877627308,-45.49990750736756 18.846678776273066,-45.49990750736757 45.49990750736756,-18.846678776273084" id="tool-D15-pad-1033"/><rect x="-22.685" y="-30.56" width="45.37" height="61.12" id="tool-D16-pad-1034"/><rect x="-40.4" y="-23" width="80.8" height="46" id="tool-D17-pad-1035"/><circle cx="0" cy="0" r="17.5" id="tool-D18-pad-1036"/><g id="_top-cu" fill="currentColor" stroke="currentColor"><use x="624.72" y="223.11" xlink:href="#tool-D10-pad-1000"/><use x="624.72" y="260.51" xlink:href="#tool-D10-pad-1000"/><use x="624.72" y="297.91" xlink:href="#tool-D10-pad-1000"/><use x="715.28" y="297.91" xlink:href="#tool-D10-pad-1000"/><use x="715.28" y="260.51" xlink:href="#tool-D10-pad-1000"/><use x="715.28" y="223.11" xlink:href="#tool-D10-pad-1000"/><use x="800" y="219.88" xlink:href="#tool-D11-pad-1001"/><use x="800" y="296.14" xlink:href="#tool-D11-pad-1001"/><use x="910" y="296.14" xlink:href="#tool-D11-pad-1001"/><use x="910" y="374.88" xlink:href="#tool-D11-pad-1001"/><use x="800" y="374.88" xlink:href="#tool-D11-pad-1001"/><use x="530" y="349.88" xlink:href="#tool-D11-pad-1001"/><use x="530" y="271.14" xlink:href="#tool-D11-pad-1001"/><use x="560" y="169.88" xlink:href="#tool-D11-pad-1001"/><use x="560" y="91.14" xlink:href="#tool-D11-pad-1001"/><use x="800" y="141.14" xlink:href="#tool-D11-pad-1001"/><use x="434.37" y="285.51" xlink:href="#tool-D12-pad-1002"/><use x="355.63" y="285.51" xlink:href="#tool-D12-pad-1002"/><use x="355.63" y="380.51" xlink:href="#tool-D12-pad-1002"/><use x="434.37" y="380.51" xlink:href="#tool-D12-pad-1002"/><use x="630.63" y="375.51" xlink:href="#tool-D12-pad-1002"/><use x="709.37" y="375.51" xlink:href="#tool-D12-pad-1002"/><use x="910" y="175.51" xlink:href="#tool-D13-pad-1003"/><use x="184.37" y="213.11" xlink:href="#tool-D14-pad-1004"/><use x="184.37" y="287.91" xlink:href="#tool-D14-pad-1004"/><use x="535" y="485.51" xlink:href="#tool-D15-pad-1005"/><use x="815" y="490.51" xlink:href="#tool-D15-pad-1005"/><use x="675" y="120.51" xlink:href="#tool-D15-pad-1005"/><use x="707.4" y="442.2" xlink:href="#tool-D16-pad-1006"/><use x="632.6" y="442.2" xlink:href="#tool-D16-pad-1006"/><use x="670" y="528.82" xlink:href="#tool-D16-pad-1006"/><use x="309.61" y="185.51" xlink:href="#tool-D17-pad-1007"/><use x="470.39" y="135.51" xlink:href="#tool-D17-pad-1007"/><use x="309.61" y="85.51" xlink:href="#tool-D17-pad-1007"/><path stroke-width="12" fill="none" d="M 250 150.51 L 295 185.51 L 309.61 185.51 M 530 271.14 L 540.63 260.51 L 580 260.51 L 624.72 260.51 M 624.72 297.91 L 582.6 297.91 L 560 320.51 L 559.37 320.51 L 530 349.88 M 723.03 303.54 L 723.03 297.91 M 723.03 303.54 L 780 360.51 L 785.63 360.51 L 800 374.88 L 910 374.88 M 910 296.14 L 910 175.51 M 800 219.88 L 759.37 260.51 L 764.37 260.51 L 800 296.14 M 759.37 260.51 L 715.28 260.51"/><path stroke-width="16" fill="none" d="M 715.28 297.91 L 723.03 297.91"/><path stroke-width="10" fill="none" d="M 670 265.51 L 670 330.51 L 595 330.51 L 580 345.51 L 580 380.51 L 570 390.51 L 444.37 390.51 L 434.37 380.51 L 410 380.51 L 395 365.51 L 395 140.51 L 340 85.51 L 309.61 85.51 M 434.37 156.14 L 450 140.51 L 465.39 140.51 L 470.39 135.51 L 495 135.51 L 530 100.51 L 550.63 100.51 L 560 91.14 L 580.63 91.14 L 625 135.51 L 625 222.83 L 624.72 223.11 M 670 265.51 L 675 260.51 L 715.28 260.51 M 715.28 223.11 L 715.28 185.24 L 760 140.51 L 799.37 140.51 L 800 141.14 M 675 120.51 L 670 120.51 L 625 135.51 M 560 169.88 L 560 210.51 M 434.37 156.14 L 434.37 285.51 M 355.63 285.51 L 355.63 380.51 M 353.23 287.91 L 184.37 287.91 M 353.23 287.91 L 355.63 285.51 M 470.39 135.51 L 465.39 130.51 M 670 330.51 L 670 336.14 L 709.37 375.51 L 707.4 377.48 L 707.4 442.2 M 632.6 442.2 L 632.6 430.51 L 577.6 485.51 L 535 485.51 M 632.6 430.51 L 632.6 377.48 L 630.63 375.51 L 631 375.88 M 707 377.88 L 709.37 375.51 M 815 490.51 L 766.69 528.82 L 670 528.82"/><use x="250" y="150.51" xlink:href="#tool-D21-pad-1011"/><use x="560" y="210.51" xlink:href="#tool-D21-pad-1011"/><use x="580" y="260.51" xlink:href="#tool-D21-pad-1011"/></g><mask id="_top_mech-mask" fill="#fff" stroke="#fff" fill-rule="evenodd"><path stroke-width="0" d="M 10 10.51 L 1010 10.51 L 1010 580.51 L 10 580.51 Z"/><g id="_top-drl" fill="#000" stroke="#000"><use x="2500" y="1505.1" xlink:href="#tool-T1-pad-1012"/><use x="5600" y="2105.1" xlink:href="#tool-T1-pad-1012"/><use x="5800" y="2605.1" xlink:href="#tool-T1-pad-1012"/><use x="1843.7" y="2879.1" xlink:href="#tool-T2-pad-1013"/><use x="1843.7" y="2131.1" xlink:href="#tool-T2-pad-1013"/><use x="5350" y="4855.1" xlink:href="#tool-T3-pad-1014"/><use x="8150" y="4905.1" xlink:href="#tool-T3-pad-1014"/><use x="9100" y="1755.1" xlink:href="#tool-T3-pad-1014"/><use x="6750" y="1205.1" xlink:href="#tool-T3-pad-1014"/></g></mask></defs><g mask="url(#_top_mech-mask)" transform="translate(0,591.02) scale(1,-1)"><rect x="10" y="10.51" width="1000" height="570" fill="currentColor" class="_board-fr4"/><use class="_board-cu" xlink:href="#_top-cu"/><g><defs><g id="_top-sm" fill="currentColor" stroke="currentColor"><use x="624.72" y="223.11" xlink:href="#tool-D10-pad-1028"/><use x="624.72" y="260.51" xlink:href="#tool-D10-pad-1028"/><use x="624.72" y="297.91" xlink:href="#tool-D10-pad-1028"/><use x="715.28" y="297.91" xlink:href="#tool-D10-pad-1028"/><use x="715.28" y="260.51" xlink:href="#tool-D10-pad-1028"/><use x="715.28" y="223.11" xlink:href="#tool-D10-pad-1028"/><use x="800" y="219.88" xlink:href="#tool-D11-pad-1029"/><use x="800" y="296.14" xlink:href="#tool-D11-pad-1029"/><use x="910" y="296.14" xlink:href="#tool-D11-pad-1029"/><use x="910" y="374.88" xlink:href="#tool-D11-pad-1029"/><use x="800" y="374.88" xlink:href="#tool-D11-pad-1029"/><use x="530" y="349.88" xlink:href="#tool-D11-pad-1029"/><use x="530" y="271.14" xlink:href="#tool-D11-pad-1029"/><use x="560" y="169.88" xlink:href="#tool-D11-pad-1029"/><use x="560" y="91.14" xlink:href="#tool-D11-pad-1029"/><use x="800" y="141.14" xlink:href="#tool-D11-pad-1029"/><use x="434.37" y="285.51" xlink:href="#tool-D12-pad-1030"/><use x="355.63" y="285.51" xlink:href="#tool-D12-pad-1030"/><use x="355.63" y="380.51" xlink:href="#tool-D12-pad-1030"/><use x="434.37" y="380.51" xlink:href="#tool-D12-pad-1030"/><use x="630.63" y="375.51" xlink:href="#tool-D12-pad-1030"/><use x="709.37" y="375.51" xlink:href="#tool-D12-pad-1030"/><use x="910" y="175.51" xlink:href="#tool-D13-pad-1031"/><use x="184.37" y="213.11" xlink:href="#tool-D14-pad-1032"/><use x="184.37" y="287.91" xlink:href="#tool-D14-pad-1032"/><use x="535" y="485.51" xlink:href="#tool-D15-pad-1033"/><use x="815" y="490.51" xlink:href="#tool-D15-pad-1033"/><use x="675" y="120.51" xlink:href="#tool-D15-pad-1033"/><use x="707.4" y="442.2" xlink:href="#tool-D16-pad-1034"/><use x="632.6" y="442.2" xlink:href="#tool-D16-pad-1034"/><use x="670" y="528.82" xlink:href="#tool-D16-pad-1034"/><use x="309.61" y="185.51" xlink:href="#tool-D17-pad-1035"/><use x="470.39" y="135.51" xlink:href="#tool-D17-pad-1035"/><use x="309.61" y="85.51" xlink:href="#tool-D17-pad-1035"/><use x="250" y="150.51" xlink:href="#tool-D18-pad-1036"/><use x="560" y="210.51" xlink:href="#tool-D18-pad-1036"/><use x="580" y="260.51" xlink:href="#tool-D18-pad-1036"/></g><mask id="_top-sm_mask" color="#000"><rect x="10" y="10.51" width="1000" height="570" fill="#fff"/><use xlink:href="#_top-sm"/></mask><mask id="_top-cu_finish-mask" color="#fff"><use xlink:href="#_top-cu"/></mask></defs><g mask="url(#_top-sm_mask)"><rect x="10" y="10.51" width="1000" height="570" fill="currentColor" class="_board-sm"/><g id="_top-ss" class="_board-ss" fill="currentColor" stroke="currentColor"><path stroke-width="0" fill="none" d="M 10 10.51 L 10 580.51 L 1010 580.51 L 1010 10.51 L 10 10.51"/><path stroke-width="2" fill="none" d="M 125.75 106.51 L 125.75 124.53 L 131.76 118.52 L 137.76 124.53 L 137.76 106.51 M 144.17 106.51 L 144.17 124.53 M 144.17 112.52 L 156.18 124.53 M 162.58 118.52 L 168.59 124.53 L 168.59 106.51 M 174.59 106.51 L 162.58 106.51 M 156.18 106.51 L 147.17 115.52 M 239.15 54.02 L 239.15 38.67 L 246.82 31 L 254.5 38.67 L 254.5 54.02 M 262.17 54.02 L 273.68 54.02 L 277.52 50.18 L 277.52 42.51 L 273.68 38.67 L 262.17 38.67 M 262.17 31 L 262.17 54.02 M 285.19 46.35 L 292.86 54.02 L 292.86 31 M 285.19 31 L 300.54 31 M 277.52 31 L 269.84 38.67 M 548.38 37.45 L 551.38 34.45 L 557.39 34.45 L 560.39 37.45 M 566.79 43.46 L 578.8 43.46 M 575.8 52.46 L 566.79 43.46 M 560.39 49.46 L 557.39 52.46 L 551.38 52.46 L 548.38 49.46 L 548.38 37.45 M 575.8 34.45 L 575.8 52.46 M 612.09 69.53 L 624.1 69.53 M 618.09 69.53 L 618.09 51.51 M 630.51 54.51 L 633.51 51.51 L 639.51 51.51 L 642.52 54.51 L 642.52 69.53 M 648.92 69.53 L 660.93 51.51 L 660.93 69.53 M 667.34 69.53 L 667.34 51.51 L 679.35 51.51 M 685.75 51.51 L 685.75 69.53 L 694.76 69.53 L 697.76 66.52 L 697.76 60.52 L 694.76 57.52 L 685.75 57.52 M 673.34 60.52 L 667.34 60.52 M 667.34 69.53 L 679.35 69.53 M 704.17 63.52 L 704.17 51.51 M 716.18 51.51 L 716.18 63.52 L 710.17 69.53 L 704.17 63.52 M 704.17 60.52 L 716.18 60.52 M 722.58 69.53 L 731.59 69.53 L 734.59 66.52 L 734.59 54.51 L 731.59 51.51 L 722.58 51.51 L 722.58 69.53 M 788.38 84.45 L 788.38 102.46 L 797.39 102.46 L 800.39 99.46 L 800.39 93.46 L 797.39 90.45 L 788.38 90.45 M 794.38 90.45 L 800.39 84.45 M 806.79 84.45 L 818.8 96.46 L 818.8 99.46 L 815.8 102.46 L 809.8 102.46 L 806.79 99.46 M 806.79 84.45 L 818.8 84.45 M 881 96.51 L 881 108.52 L 887.01 114.53 L 893.01 108.52 L 893.01 96.51 M 899.42 96.51 L 899.42 114.53 L 911.43 96.51 L 911.43 114.53 M 917.83 114.53 L 929.84 114.53 M 923.84 114.53 L 923.84 96.51 M 936.25 96.51 L 948.26 96.51 M 942.25 96.51 L 942.25 114.53 L 936.25 108.52 M 893.01 105.52 L 881 105.52 M 678.43 176.51 L 666.42 176.51 L 678.43 188.52 L 678.43 191.52 L 675.43 194.53 L 669.43 194.53 L 666.42 191.52 M 660.02 194.53 L 660.02 179.51 L 657.02 176.51 L 651.01 176.51 L 648.01 179.51 L 648.01 194.53 M 648.92 69.53 L 648.92 51.51 M 630.51 54.51 L 630.51 69.53 M 449.53 319.13 L 443.52 319.13 L 440.52 322.14 M 434.12 322.14 L 431.11 319.13 L 425.11 319.13 L 422.11 322.14 L 422.11 334.15 L 425.11 337.15 L 431.11 337.15 L 434.12 334.15 M 440.52 334.15 L 443.52 337.15 L 449.53 337.15 L 452.53 334.15 L 452.53 331.14 L 449.53 328.14 L 452.53 325.14 L 452.53 322.14 L 449.53 319.13 M 449.53 328.14 L 446.53 328.14 M 513.62 388.57 L 525.63 388.57 M 532.04 388.57 L 544.05 388.57 M 538.04 388.57 L 538.04 406.59 L 532.04 400.59 M 513.62 406.59 L 513.62 388.57 M 568.06 386.89 L 571.07 383.89 L 577.07 383.89 L 580.07 386.89 M 586.48 383.89 L 598.49 383.89 M 592.48 383.89 L 592.48 401.91 L 586.48 395.9 M 580.07 398.9 L 577.07 401.91 L 571.07 401.91 L 568.06 398.9 L 568.06 386.89 M 452.53 417.14 L 449.53 414.13 L 443.52 414.13 L 440.52 417.14 M 434.12 414.13 L 428.11 420.14 M 431.11 420.14 L 422.11 420.14 M 422.11 414.13 L 422.11 432.15 L 431.11 432.15 L 434.12 429.15 L 434.12 423.14 L 431.11 420.14 M 440.52 429.15 L 443.52 432.15 L 449.53 432.15 L 452.53 429.15 L 452.53 426.14 L 449.53 423.14 L 452.53 420.14 L 452.53 417.14 M 449.53 423.14 L 446.53 423.14 M 606 529.51 L 609 526.51 L 615.01 526.51 L 618.01 529.51 L 618.01 544.53 M 624.42 538.52 L 630.42 544.53 L 630.42 526.51 M 624.42 526.51 L 636.43 526.51 M 606 529.51 L 606 544.53 M 585.09 539.51 L 582.09 536.51 L 573.08 536.51 L 573.08 554.53 L 582.09 554.53 L 585.09 551.52 L 585.09 539.51 M 566.67 536.51 L 566.67 548.52 L 560.67 554.53 L 554.66 548.52 L 554.66 536.51 M 548.26 545.52 L 545.25 542.52 L 536.25 542.52 M 536.25 536.51 L 536.25 554.53 L 545.25 554.53 L 548.26 551.52 L 548.26 545.52 M 554.66 545.52 L 566.67 545.52 M 529.84 539.51 L 529.84 551.52 L 526.84 554.53 L 517.83 554.53 L 517.83 536.51 L 526.84 536.51 L 529.84 539.51 M 511.43 536.51 L 511.43 554.53 M 499.42 554.53 L 511.43 536.51 M 499.42 536.51 L 499.42 554.53 M 493.01 551.52 L 490.01 554.53 L 484 554.53 L 481 551.52 L 481 539.51 L 484 536.51 L 490.01 536.51 L 493.01 539.51 L 493.01 545.52 L 487.01 545.52 M 365.26 543.52 L 361.26 539.52 L 349.25 539.52 M 357.25 539.52 L 365.26 531.51 M 349.25 531.51 L 349.25 555.53 L 361.26 555.53 L 365.26 551.53 L 365.26 543.52 M 341.32 531.51 L 325.31 531.51 L 325.31 555.53 L 341.32 555.53 M 333.31 543.52 L 325.31 543.52 M 317.38 555.53 L 301.36 555.53 M 293.44 555.53 L 277.42 555.53 M 269.47 555.53 L 261.46 555.53 M 265.47 555.53 L 265.47 531.51 M 269.47 531.51 L 261.46 531.51 M 253.54 531.51 L 253.54 555.53 L 245.53 547.53 L 237.52 555.53 L 237.52 531.51 M 229.6 535.52 L 229.6 539.52 L 225.59 543.52 L 217.59 543.52 L 213.58 547.53 L 213.58 551.53 L 217.59 555.53 L 225.59 555.53 L 229.6 551.53 M 205.66 555.53 L 205.66 531.51 L 189.64 555.53 L 189.64 531.51 M 181.72 531.51 L 181.72 547.53 L 173.71 555.53 L 165.7 547.53 L 165.7 531.51 M 157.78 531.51 L 149.77 539.52 M 153.77 539.52 L 157.78 543.52 L 157.78 551.53 L 153.77 555.53 L 141.76 555.53 L 141.76 531.51 M 141.76 539.52 L 153.77 539.52 M 165.7 543.52 L 181.72 543.52 M 213.58 535.52 L 217.59 531.51 L 225.59 531.51 L 229.6 535.52 M 285.43 531.51 L 285.43 555.53 M 309.37 555.53 L 309.37 531.51 M 133.84 555.53 L 117.82 555.53 M 125.83 555.53 L 125.83 531.51 M 85.95 531.51 L 85.95 555.53 L 77.95 547.53 L 69.94 555.53 L 69.94 531.51 M 54.01 543.52 L 46 543.52 M 46 531.51 L 46 555.53 L 62.01 555.53 M 766 559.53 L 766 547.52 L 772.01 541.51 L 778.01 547.52 L 778.01 559.53 M 784.42 556.52 L 784.42 544.51 L 787.42 541.51 L 793.42 541.51 L 796.43 544.51 M 802.83 544.51 L 805.83 541.51 L 811.84 541.51 L 814.84 544.51 M 821.25 541.51 L 821.25 559.53 L 830.25 559.53 L 833.26 556.52 L 833.26 550.52 L 830.25 547.52 L 821.25 547.52 M 814.84 556.52 L 811.84 559.53 L 805.83 559.53 L 802.83 556.52 L 802.83 544.51 M 796.43 556.52 L 793.42 559.53 L 787.42 559.53 L 784.42 556.52 M 839.66 553.52 L 839.66 541.51 M 851.67 541.51 L 851.67 553.52 L 845.67 559.53 L 839.66 553.52 M 839.66 550.52 L 851.67 550.52 M 858.08 559.53 L 867.09 559.53 L 870.09 556.52 L 870.09 544.51 L 867.09 541.51 L 858.08 541.51 L 858.08 559.53 M 901.38 427.46 L 898.38 424.46 L 898.38 412.45 L 901.38 409.45 L 907.39 409.45 L 910.39 412.45 M 916.79 412.45 L 919.8 409.45 L 925.8 409.45 L 928.8 412.45 L 928.8 418.46 L 925.8 421.46 L 922.8 421.46 L 916.79 418.46 L 916.79 427.46 L 928.8 427.46 M 910.39 424.46 L 907.39 427.46 L 901.38 427.46 M 818.8 409.45 L 806.79 409.45 M 812.8 409.45 L 812.8 427.46 L 806.79 421.46 M 800.39 424.46 L 800.39 418.46 L 797.39 415.45 L 788.38 415.45 M 788.38 409.45 L 788.38 427.46 L 797.39 427.46 L 800.39 424.46 M 794.38 415.45 L 800.39 409.45"/><path stroke-width="8" fill="none" d="M 464.96 236.06 L 464.96 182.76 M 464.96 226.06 L 464.96 44.96 M 464.96 34.96 L 464.96 88.27 M 401.79 68.27 L 401.81 69.2 L 401.87 70.12 L 401.97 71.04 L 402.11 71.96 L 402.28 72.87 L 402.5 73.77 L 402.75 74.66 L 403.04 75.54 L 403.37 76.4 L 403.74 77.25 L 404.14 78.09 L 404.58 78.9 L 405.05 79.7 L 405.56 80.48 L 406.09 81.23 L 406.66 81.96 L 407.26 82.67 L 407.89 83.35 L 408.55 84 L 409.24 84.62 L 409.95 85.21 L 410.69 85.77 L 411.44 86.3 L 412.23 86.8 L 413.03 87.26 L 413.85 87.69 L 414.69 88.09 L 415.54 88.44 L 416.41 88.76 L 417.29 89.04 L 418.19 89.29 L 419.09 89.49 L 420 89.66 L 420.92 89.79 L 421.84 89.88 L 422.77 89.93 L 423.69 89.94 L 424.62 89.91 L 425.54 89.84 L 426.46 89.73 L 427.37 89.58 L 428.28 89.4 L 429.18 89.17 L 430.07 88.91 L 430.94 88.61 L 431.81 88.27 L 432.65 87.89 L 433.48 87.48 L 434.29 87.04 L 435.09 86.56 L 435.86 86.04 L 436.61 85.5 L 437.33 84.92 L 438.03 84.31 L 438.7 83.67 L 439.35 83.01 L 439.96 82.32 L 440.55 81.6 L 441.1 80.86 L 441.62 80.09 L 442.11 79.3 L 442.56 78.5 L 442.98 77.67 L 443.37 76.83 L 443.72 75.97 L 444.03 75.1 L 444.3 74.21 L 444.53 73.32 L 444.73 72.41 L 444.89 71.5 L 445.01 70.58 L 445.09 69.66 L 445.13 68.73 L 445.13 67.81 L 445.09 66.88 L 445.01 65.96 L 444.89 65.04 L 444.73 64.13 L 444.53 63.22 L 444.3 62.33 L 444.03 61.44 L 443.72 60.57 L 443.37 59.71 L 442.98 58.87 L 442.56 58.04 L 442.11 57.24 L 441.62 56.45 L 441.1 55.68 L 440.55 54.94 L 439.96 54.22 L 439.35 53.53 L 438.7 52.87 L 438.03 52.23 L 437.33 51.62 L 436.61 51.04 L 435.86 50.5 L 435.09 49.98 L 434.3 49.5 L 433.48 49.06 L 432.65 48.65 L 431.81 48.27 L 430.94 47.93 L 430.07 47.63 L 429.18 47.37 L 428.28 47.14 L 427.37 46.96 L 426.46 46.81 L 425.54 46.7 L 424.62 46.63 L 423.69 46.6 L 422.77 46.61 L 421.84 46.66 L 420.92 46.75 L 420 46.88 L 419.09 47.05 L 418.19 47.25 L 417.29 47.5 L 416.41 47.78 L 415.54 48.1 L 414.69 48.45 L 413.85 48.85 L 413.03 49.28 L 412.23 49.74 L 411.44 50.24 L 410.69 50.77 L 409.95 51.33 L 409.24 51.92 L 408.55 52.54 L 407.89 53.19 L 407.26 53.87 L 406.66 54.58 L 406.09 55.31 L 405.56 56.06 L 405.05 56.84 L 404.58 57.64 L 404.14 58.45 L 403.74 59.29 L 403.37 60.14 L 403.04 61 L 402.75 61.88 L 402.5 62.77 L 402.28 63.67 L 402.11 64.58 L 401.97 65.5 L 401.87 66.42 L 401.81 67.34 L 401.79 68.27 M 410.67 81.06 L 436.26 55.47 M 464.96 34.96 L 316.02 34.96 L 316.02 236.06 L 464.96 236.06 M 240 375.51 L 180 395.51 M 160 395.51 L 145 385.51 L 130 395.51 M 110 395.51 L 50 375.51 M 90 385.51 L 80 435.51 L 80 475.51 L 100 505.51 L 120 475.51 L 170 475.51 L 190 505.51 L 210 475.51 L 210 435.51 L 200 385.51 L 170 365.51 L 120 365.51 L 90 385.51 M 110 410.51 L 50 425.51 M 110 435.51 L 110 445.51 M 140 415.51 L 150 415.51 M 180 410.51 L 240 425.51 M 180 435.51 L 180 445.51 M 30.83 250.51 L 30.86 253.31 L 30.97 256.11 L 31.14 258.91 L 31.38 261.7 L 31.69 264.49 L 32.07 267.26 L 32.51 270.03 L 33.02 272.78 L 33.6 275.52 L 34.25 278.25 L 34.97 280.96 L 35.75 283.65 L 36.59 286.32 L 37.5 288.97 L 38.48 291.6 L 39.52 294.2 L 40.62 296.78 L 41.79 299.32 L 43.02 301.84 L 44.31 304.33 L 45.66 306.78 L 47.07 309.21 L 48.54 311.59 L 50.07 313.94 L 51.66 316.25 L 53.3 318.52 L 54.99 320.75 L 56.75 322.94 L 58.55 325.08 L 60.41 327.18 L 62.31 329.23 L 64.27 331.24 L 66.28 333.2 L 68.33 335.1 L 70.43 336.96 L 72.57 338.76 L 74.76 340.52 L 76.99 342.21 L 79.26 343.85 L 81.57 345.44 L 83.92 346.97 L 86.3 348.44 L 88.73 349.85 L 91.18 351.2 L 93.67 352.49 L 96.19 353.72 L 98.73 354.89 L 101.31 355.99 L 103.91 357.03 L 106.54 358.01 L 109.19 358.92 L 111.86 359.76 L 114.55 360.54 L 117.26 361.26 L 119.99 361.91 L 122.73 362.49 L 125.48 363 L 128.25 363.44 L 131.02 363.82 L 133.81 364.13 L 136.6 364.37 L 139.4 364.54 L 142.2 364.65 L 145 364.68 L 147.8 364.65 L 150.6 364.54 L 153.4 364.37 L 156.19 364.13 L 158.98 363.82 L 161.75 363.44 L 164.52 363 L 167.27 362.49 L 170.01 361.91 L 172.74 361.26 L 175.45 360.54 L 178.14 359.76 L 180.81 358.92 L 183.46 358.01 L 186.09 357.03 L 188.69 355.99 L 191.27 354.89 L 193.81 353.72 L 196.33 352.49 L 198.82 351.2 L 201.27 349.85 L 203.7 348.44 L 206.08 346.97 L 208.43 345.44 L 210.74 343.85 L 213.01 342.21 L 215.24 340.52 L 217.43 338.76 L 219.57 336.96 L 221.67 335.1 L 223.72 333.2 L 225.73 331.24 L 227.69 329.23 L 229.59 327.18 L 231.45 325.08 L 233.25 322.94 L 235.01 320.75 L 236.7 318.52 L 238.34 316.25 L 239.93 313.94 L 241.46 311.59 L 242.93 309.21 L 244.34 306.78 L 245.69 304.33 L 246.98 301.84 L 248.21 299.32 L 249.38 296.78 L 250.48 294.2 L 251.52 291.6 L 252.5 288.97 L 253.41 286.32 L 254.25 283.65 L 255.03 280.96 L 255.75 278.25 L 256.4 275.52 L 256.98 272.78 L 257.49 270.03 L 257.93 267.26 L 258.31 264.49 L 258.62 261.7 L 258.86 258.91 L 259.03 256.11 L 259.14 253.31 L 259.17 250.51 L 259.14 247.71 L 259.03 244.91 L 258.86 242.11 L 258.62 239.32 L 258.31 236.53 L 257.93 233.76 L 257.49 230.99 L 256.98 228.24 L 256.4 225.5 L 255.75 222.77 L 255.03 220.06 L 254.25 217.37 L 253.41 214.7 L 252.5 212.05 L 251.52 209.42 L 250.48 206.82 L 249.38 204.24 L 248.21 201.7 L 246.98 199.18 L 245.69 196.69 L 244.34 194.24 L 242.93 191.81 L 241.46 189.43 L 239.93 187.08 L 238.34 184.77 L 236.7 182.5 L 235.01 180.27 L 233.25 178.08 L 231.45 175.94 L 229.59 173.84 L 227.69 171.79 L 225.73 169.78 L 223.72 167.82 L 221.67 165.92 L 219.57 164.06 L 217.43 162.26 L 215.24 160.5 L 213.01 158.81 L 210.74 157.17 L 208.43 155.58 L 206.08 154.05 L 203.7 152.58 L 201.27 151.17 L 198.82 149.82 L 196.33 148.53 L 193.81 147.3 L 191.27 146.13 L 188.69 145.03 L 186.09 143.99 L 183.46 143.01 L 180.81 142.1 L 178.14 141.26 L 175.45 140.48 L 172.74 139.76 L 170.01 139.11 L 167.27 138.53 L 164.52 138.02 L 161.75 137.58 L 158.98 137.2 L 156.19 136.89 L 153.4 136.65 L 150.6 136.48 L 147.8 136.37 L 145 136.34 L 142.2 136.37 L 139.4 136.48 L 136.6 136.65 L 133.81 136.89 L 131.02 137.2 L 128.25 137.58 L 125.48 138.02 L 122.73 138.53 L 119.99 139.11 L 117.26 139.76 L 114.55 140.48 L 111.86 141.26 L 109.19 142.1 L 106.54 143.01 L 103.91 143.99 L 101.31 145.03 L 98.73 146.13 L 96.19 147.3 L 93.67 148.53 L 91.18 149.82 L 88.73 151.17 L 86.3 152.58 L 83.92 154.05 L 81.57 155.58 L 79.26 157.17 L 76.99 158.81 L 74.76 160.5 L 72.57 162.26 L 70.43 164.06 L 68.33 165.92 L 66.28 167.82 L 64.27 169.78 L 62.31 171.79 L 60.41 173.84 L 58.55 175.94 L 56.75 178.08 L 54.99 180.27 L 53.3 182.5 L 51.66 184.77 L 50.07 187.08 L 48.54 189.43 L 47.07 191.81 L 45.66 194.24 L 44.31 196.69 L 43.02 199.18 L 41.79 201.7 L 40.62 204.24 L 39.52 206.82 L 38.48 209.42 L 37.5 212.05 L 36.59 214.7 L 35.75 217.37 L 34.97 220.06 L 34.25 222.77 L 33.6 225.5 L 33.02 228.24 L 32.51 230.99 L 32.07 233.76 L 31.69 236.53 L 31.38 239.32 L 31.14 242.11 L 30.97 244.91 L 30.86 247.71 L 30.83 250.51"/><path stroke-width="6" fill="none" d="M 614 459.51 L 614 511.51 L 726 511.51 L 726 459.51 L 614 459.51 M 639.25 316.54 L 700.75 316.54 M 700.75 204.53 L 639.25 204.53"/><use x="650.31" y="305.79" xlink:href="#tool-D14-pad-1021"/><path stroke-width="2.36" fill="none" d="M 605.04 345.98 L 605.04 405.04 L 734.96 405.04 L 734.96 345.98 L 605.04 345.98 M 559.53 375.47 L 500.47 375.47 L 500.47 245.55 L 559.53 245.55 L 559.53 375.47 M 459.96 350.98 L 459.96 410.04 L 330.04 410.04 L 330.04 350.98 L 459.96 350.98 M 459.96 315.04 L 459.96 255.98 L 330.04 255.98 L 330.04 315.04 L 459.96 315.04 M 530.47 195.47 L 589.53 195.47 L 589.53 65.55 L 530.47 65.55 L 530.47 195.47 M 770.47 245.47 L 770.47 115.55 L 829.53 115.55 L 829.53 245.47 L 770.47 245.47 M 770.47 270.55 L 829.53 270.55 L 829.53 400.47 L 770.47 400.47 L 770.47 270.55 M 880.47 270.55 L 939.53 270.55 L 939.53 400.47 L 880.47 400.47 L 880.47 270.55"/></g></g><use class="_board-cf" mask="url(#_top-cu_finish-mask)" xlink:href="#_top-sm"/></g></g><style type="text/css"> ._board-fr4 { color: rgba(177, 136, 22, 0.65);} ._board-cu { color: lightgrey; } ._board-cf { color: goldenrod; } ._board-sm { color: darkgreen; opacity: 0.75; } ._board-ss { color: white; } ._board-sp { color: silver; opacity: 0.0;} ._board-out { color: black; } </style></svg>