<svg xmlns="http://www.w3.org/2000/svg" version="1.1" xmlns:xlink="http://www.w3.org/1999/xlink" stroke-width="0" stroke-linecap="round" stroke-linejoin="round" width="1.25in" height="1.25in" id="_bottom" viewBox="2000 4000 1250 1250"><defs><circle cx="0" cy="0" r="21.65" id="tool-D38-pad-1104"/><circle cx="0" cy="0" r="29.55" id="tool-D39-pad-1105"/><rect x="-29.55" y="-29.55" width="59.1" height="59.1" id="tool-D40-pad-1106"/><circle cx="0" cy="0" r="17.7" id="tool-D41-pad-1107"/><circle cx="0" cy="0" r="62.5" id="tool-D42-pad-1108"/><circle cx="0" cy="0" r="9" id="tool-D43-pad-1109"/><circle cx="0" cy="0" r="39.35" id="tool-D47-pad-1113"/><circle cx="0" cy="0" r="39.35" id="tool-D47-pad-1218"/><circle cx="0" cy="0" r="24.15" id="tool-D70-pad-1307"/><circle cx="0" cy="0" r="32.55" id="tool-D71-pad-1308"/><rect x="-32.55" y="-32.55" width="65.1" height="65.1" id="tool-D72-pad-1309"/><circle cx="0" cy="0" r="20.7" id="tool-D73-pad-1310"/><circle cx="0" cy="0" r="66.5" id="tool-D74-pad-1311"/><circle cx="0" cy="0" r="41.85" id="tool-D75-pad-1312"/><circle cx="0" cy="0" r="4" id="tool-T1-pad-1557"/><circle cx="0" cy="0" r="17.7" id="tool-T2-pad-1558"/><circle cx="0" cy="0" r="17.7" id="tool-T3-pad-1559"/><circle cx="0" cy="0" r="21.65" id="tool-T4-pad-1560"/><circle cx="0" cy="0" r="62.5" id="tool-T5-pad-1561"/><g id="_bottom-cu" fill="currentColor" stroke="currentColor"><path stroke-width="12" fill="none" d="M 2395 4243 L 2550 4398 M 2332 4243 L 2395 4243 M 2550 4398 L 2550 4400 M 2700 4311 L 2700 4400 L 2701 4399 M 2700 4311 L 2728 4283 M 2728 4150 L 2728 4283 M 2474 4875.3 L 2499.3 4850 L 2550 4850"/><path stroke-width="5" fill="none" d="M 2366 4491 L 2433 4424 M 2433 4328 L 2433 4424 M 2700 4779 L 2700 4850 M 2649 4728 L 2700 4779 M 2649 4656.8 L 2649 4728 M 2649 4656.8 L 2666 4639.8 M 2700 4642.2 L 2700 4700 M 2678 4620.2 L 2700 4642.2 M 2665 4585 L 2700 4550 M 2665 4585 L 2665 4600.5 M 3183 4662 L 3183 4859 M 3160.5 4639.5 L 3183 4662 M 3113 4639.5 L 3160.5 4639.5 M 2522.5 4756 L 2543 4756 M 2601.2 4504 L 2601.2 4735 M 2543 4756 L 2550 4749 M 2550 4700 L 2550 4749 M 2825 5140 L 2874 5091 M 2874 5001 L 2874 5091 M 2825 4988 L 2825 5040 M 2507 4787 L 2592 4787 M 2511.1 4777 L 2596.1 4777 M 2620.9 4517 L 2620.9 4718 M 3098 4944 L 3183 4859 M 2827 4954 L 2874 5001 M 2801 4964 L 2825 4988 M 2693 4944 L 3098 4944 M 2688.9 4954 L 2827 4954 M 2684.7 4964 L 2801 4964 M 2596.1 4777 L 2621 4801.9 M 2592 4787 L 2611 4806 M 2631 4752 L 2631 4827.7 M 2629.5 4829.2 L 2631 4827.7 M 2621 4801.9 L 2621 4823.5 M 2619.5 4825 L 2621 4823.5 M 2611 4806 L 2611 4819.4 M 2609.5 4820.9 L 2611 4819.4 M 2609.5 4820.9 L 2609.5 4888.8 M 2619.5 4825 L 2619.5 4884.6 M 2629.5 4829.2 L 2629.5 4880.5 L 2693 4944 M 2619.5 4884.6 L 2688.9 4954 M 2609.5 4888.8 L 2684.7 4964 M 2836 4561 L 2893.8 4618.8 L 2963 4618.8 M 2464 5105 L 2505 5105 M 2550 4541.7 L 2550 4550 M 2428.2 4520.8 L 2428.2 4620.3 M 2477 4548 L 2493 4532 M 2477 4548 L 2477 4742.9 L 2511.1 4777 M 2467 4534 L 2467 4747 M 2467 4534 L 2493 4508 M 2467 4747 L 2507 4787 M 2428.2 4620.3 L 2446 4638.2 L 2446 5087 L 2464 5105 M 2457.5 4491.5 L 2499.8 4491.5 M 2428.2 4520.8 L 2457.5 4491.5 M 2499.8 4491.5 L 2550 4541.7 M 2841.5 4387.5 L 2880 4426 L 2880.5 4425.5 M 2880 4426 L 2882 4426"/><path stroke-width="6" fill="none" d="M 2182 4719 L 2255 4792 M 2182 4431.2 L 2182 4719 M 2182 4431.2 L 2207.4 4405.8 M 2165 4732.4 L 2234 4801.4 M 2165 4399 L 2165 4732.4 M 2165 4399 L 2207.4 4356.6 M 2255 4792 L 2255 4806 M 2234 4827 L 2255 4806"/><path stroke-width="14" fill="none" d="M 2140 4360 L 2192.6 4307.4 M 2140 4786.4 L 2231.8 4878.2 M 2140 4360 L 2140 4786.4 M 2951 4756 L 3067.5 4756 M 2951 4678.8 L 2951 4756"/><use x="2219.7" y="4159.8" xlink:href="#tool-D38-pad-1104"/><use x="2219.7" y="4504.2" xlink:href="#tool-D38-pad-1104"/><use x="2925" y="5140" xlink:href="#tool-D39-pad-1105"/><use x="2925" y="5040" xlink:href="#tool-D39-pad-1105"/><use x="2825" y="5140" xlink:href="#tool-D39-pad-1105"/><use x="2825" y="5040" xlink:href="#tool-D39-pad-1105"/><use x="2725" y="5140" xlink:href="#tool-D39-pad-1105"/><use x="3025" y="5040" xlink:href="#tool-D39-pad-1105"/><use x="3025" y="5140" xlink:href="#tool-D39-pad-1105"/><use x="2725" y="5040" xlink:href="#tool-D40-pad-1106"/><use x="2330" y="5070" xlink:href="#tool-D41-pad-1107"/><use x="2480" y="5070" xlink:href="#tool-D41-pad-1107"/><use x="2125" y="5130" xlink:href="#tool-D42-pad-1108"/><use x="3130" y="4120" xlink:href="#tool-D42-pad-1108"/><use x="2271.7" y="4537" xlink:href="#tool-D43-pad-1109"/><use x="2366" y="4491" xlink:href="#tool-D43-pad-1109"/><use x="2308" y="4855" xlink:href="#tool-D43-pad-1109"/><use x="2115" y="4906" xlink:href="#tool-D43-pad-1109"/><use x="2231.8" y="4878.2" xlink:href="#tool-D43-pad-1109"/><use x="2512" y="4240" xlink:href="#tool-D43-pad-1109"/><use x="2545" y="4232" xlink:href="#tool-D43-pad-1109"/><use x="2207.4" y="4405.8" xlink:href="#tool-D43-pad-1109"/><use x="2207.4" y="4356.6" xlink:href="#tool-D43-pad-1109"/><use x="2192.6" y="4307.4" xlink:href="#tool-D43-pad-1109"/><use x="2433" y="4328" xlink:href="#tool-D43-pad-1109"/><use x="2234" y="4801.4" xlink:href="#tool-D43-pad-1109"/><use x="2234" y="4827" xlink:href="#tool-D43-pad-1109"/><use x="3067.5" y="4756" xlink:href="#tool-D43-pad-1109"/><use x="2886" y="4657" xlink:href="#tool-D43-pad-1109"/><use x="2951" y="4678.8" xlink:href="#tool-D43-pad-1109"/><use x="3028.2" y="4592.8" xlink:href="#tool-D43-pad-1109"/><use x="3113" y="4639.5" xlink:href="#tool-D43-pad-1109"/><use x="3153" y="4748.6" xlink:href="#tool-D43-pad-1109"/><use x="3112.8" y="4678.8" xlink:href="#tool-D43-pad-1109"/><use x="2621" y="4718" xlink:href="#tool-D43-pad-1109"/><use x="2601.2" y="4504" xlink:href="#tool-D43-pad-1109"/><use x="2620.9" y="4517" xlink:href="#tool-D43-pad-1109"/><use x="2305" y="5105" xlink:href="#tool-D43-pad-1109"/><use x="2355" y="5105" xlink:href="#tool-D43-pad-1109"/><use x="2405" y="5105" xlink:href="#tool-D43-pad-1109"/><use x="2728" y="4150" xlink:href="#tool-D43-pad-1109"/><use x="2665" y="4600.5" xlink:href="#tool-D43-pad-1109"/><use x="2666" y="4639.8" xlink:href="#tool-D43-pad-1109"/><use x="2678" y="4620.2" xlink:href="#tool-D43-pad-1109"/><use x="2583" y="4892" xlink:href="#tool-D43-pad-1109"/><use x="2411" y="4855" xlink:href="#tool-D43-pad-1109"/><use x="2295" y="4692.7" xlink:href="#tool-D43-pad-1109"/><use x="2330" y="4514.7" xlink:href="#tool-D43-pad-1109"/><use x="2911" y="4327" xlink:href="#tool-D43-pad-1109"/><use x="3171" y="4298" xlink:href="#tool-D43-pad-1109"/><use x="3005" y="4209" xlink:href="#tool-D43-pad-1109"/><use x="2895" y="4209" xlink:href="#tool-D43-pad-1109"/><use x="2895" y="4791" xlink:href="#tool-D43-pad-1109"/><use x="3005" y="4791" xlink:href="#tool-D43-pad-1109"/><use x="2655" y="4230.7" xlink:href="#tool-D43-pad-1109"/><use x="2705" y="4210" xlink:href="#tool-D43-pad-1109"/><use x="2618.4" y="4205.6" xlink:href="#tool-D43-pad-1109"/><use x="2440" y="4230.7" xlink:href="#tool-D43-pad-1109"/><use x="2680.3" y="4462.7" xlink:href="#tool-D43-pad-1109"/><use x="2610" y="4405" xlink:href="#tool-D43-pad-1109"/><use x="2780" y="4770" xlink:href="#tool-D43-pad-1109"/><use x="2780" y="4690" xlink:href="#tool-D43-pad-1109"/><use x="2332" y="4243" xlink:href="#tool-D43-pad-1109"/><use x="2850" y="4771" xlink:href="#tool-D43-pad-1109"/><use x="2850" y="4229" xlink:href="#tool-D43-pad-1109"/><use x="2836" y="4561" xlink:href="#tool-D43-pad-1109"/><use x="2305" y="5036" xlink:href="#tool-D43-pad-1109"/><use x="2405" y="5036" xlink:href="#tool-D43-pad-1109"/><use x="2474" y="4875.3" xlink:href="#tool-D43-pad-1109"/><use x="2601.2" y="4735" xlink:href="#tool-D43-pad-1109"/><use x="2522.5" y="4756" xlink:href="#tool-D43-pad-1109"/><use x="2631" y="4752" xlink:href="#tool-D43-pad-1109"/><use x="2493" y="4532" xlink:href="#tool-D43-pad-1109"/><use x="2493" y="4508" xlink:href="#tool-D43-pad-1109"/><use x="2646" y="4836" xlink:href="#tool-D43-pad-1109"/><use x="2682" y="4796" xlink:href="#tool-D43-pad-1109"/><use x="2771" y="4656" xlink:href="#tool-D43-pad-1109"/><use x="3090" y="4279" xlink:href="#tool-D43-pad-1109"/><use x="2767" y="4155" xlink:href="#tool-D43-pad-1109"/><use x="2768" y="4845" xlink:href="#tool-D43-pad-1109"/><use x="2963" y="4618.8" xlink:href="#tool-D43-pad-1109"/><use x="3144" y="4464" xlink:href="#tool-D43-pad-1109"/><use x="2505" y="5105" xlink:href="#tool-D43-pad-1109"/><use x="2424" y="4738.3" xlink:href="#tool-D43-pad-1109"/><use x="2428.2" y="4620.2" xlink:href="#tool-D43-pad-1109"/><use x="2841.5" y="4387.5" xlink:href="#tool-D43-pad-1109"/><use x="2880" y="4426" xlink:href="#tool-D43-pad-1109"/><use x="2550" y="4400" xlink:href="#tool-D47-pad-1113"/><use x="2550" y="4850" xlink:href="#tool-D47-pad-1113"/><use x="2700" y="4550" xlink:href="#tool-D47-pad-1113"/><use x="2700" y="4700" xlink:href="#tool-D47-pad-1113"/><use x="2700" y="4850" xlink:href="#tool-D47-pad-1113"/><use x="2550" y="4550" xlink:href="#tool-D47-pad-1113"/><use x="2550" y="4700" xlink:href="#tool-D47-pad-1113"/><use x="2700" y="4400" xlink:href="#tool-D47-pad-1113"/></g><mask id="_bottom_mech-mask" fill="#fff" stroke="#fff" fill-rule="evenodd"><path stroke-width="0" d="M 3150 4000 L 2100 4000 A 100 100 0 0 0 2000 4100 L 2000 5150 A 100 100 0 0 0 2100 5250 L 3150 5250 A 100 100 0 0 0 3250 5150 L 3250 4100 A 100 100 0 0 0 3150 4000"/><g id="_bottom-drl" fill="#000" stroke="#000"><use x="2192.6" y="4307.4" xlink:href="#tool-T1-pad-1557"/><use x="2207.4" y="4356.6" xlink:href="#tool-T1-pad-1557"/><use x="2207.4" y="4405.8" xlink:href="#tool-T1-pad-1557"/><use x="2271.7" y="4537" xlink:href="#tool-T1-pad-1557"/><use x="2330" y="4514.7" xlink:href="#tool-T1-pad-1557"/><use x="2366" y="4491" xlink:href="#tool-T1-pad-1557"/><use x="2493" y="4508" xlink:href="#tool-T1-pad-1557"/><use x="2493" y="4532" xlink:href="#tool-T1-pad-1557"/><use x="2601.2" y="4504" xlink:href="#tool-T1-pad-1557"/><use x="2620.9" y="4517" xlink:href="#tool-T1-pad-1557"/><use x="2680.3" y="4462.7" xlink:href="#tool-T1-pad-1557"/><use x="2610" y="4405" xlink:href="#tool-T1-pad-1557"/><use x="2618.4" y="4205.6" xlink:href="#tool-T1-pad-1557"/><use x="2655" y="4230.7" xlink:href="#tool-T1-pad-1557"/><use x="2705" y="4210" xlink:href="#tool-T1-pad-1557"/><use x="2728" y="4150" xlink:href="#tool-T1-pad-1557"/><use x="2767" y="4155" xlink:href="#tool-T1-pad-1557"/><use x="2850" y="4229" xlink:href="#tool-T1-pad-1557"/><use x="2895" y="4209" xlink:href="#tool-T1-pad-1557"/><use x="3005" y="4209" xlink:href="#tool-T1-pad-1557"/><use x="3090" y="4279" xlink:href="#tool-T1-pad-1557"/><use x="2911" y="4327" xlink:href="#tool-T1-pad-1557"/><use x="2841.5" y="4387.5" xlink:href="#tool-T1-pad-1557"/><use x="2880" y="4426" xlink:href="#tool-T1-pad-1557"/><use x="2836" y="4561" xlink:href="#tool-T1-pad-1557"/><use x="2886" y="4657" xlink:href="#tool-T1-pad-1557"/><use x="2951" y="4678.8" xlink:href="#tool-T1-pad-1557"/><use x="2963" y="4618.8" xlink:href="#tool-T1-pad-1557"/><use x="3028.2" y="4592.8" xlink:href="#tool-T1-pad-1557"/><use x="3113" y="4639.5" xlink:href="#tool-T1-pad-1557"/><use x="3112.8" y="4678.8" xlink:href="#tool-T1-pad-1557"/><use x="2771" y="4656" xlink:href="#tool-T1-pad-1557"/><use x="2666" y="4639.8" xlink:href="#tool-T1-pad-1557"/><use x="2678" y="4620.2" xlink:href="#tool-T1-pad-1557"/><use x="2665" y="4600.5" xlink:href="#tool-T1-pad-1557"/><use x="2428.2" y="4620.2" xlink:href="#tool-T1-pad-1557"/><use x="2433" y="4328" xlink:href="#tool-T1-pad-1557"/><use x="2440" y="4230.7" xlink:href="#tool-T1-pad-1557"/><use x="2512" y="4240" xlink:href="#tool-T1-pad-1557"/><use x="2545" y="4232" xlink:href="#tool-T1-pad-1557"/><use x="2332" y="4243" xlink:href="#tool-T1-pad-1557"/><use x="3171" y="4298" xlink:href="#tool-T1-pad-1557"/><use x="3144" y="4464" xlink:href="#tool-T1-pad-1557"/><use x="3153" y="4748.6" xlink:href="#tool-T1-pad-1557"/><use x="3067.5" y="4756" xlink:href="#tool-T1-pad-1557"/><use x="3005" y="4791" xlink:href="#tool-T1-pad-1557"/><use x="2895" y="4791" xlink:href="#tool-T1-pad-1557"/><use x="2850" y="4771" xlink:href="#tool-T1-pad-1557"/><use x="2780" y="4770" xlink:href="#tool-T1-pad-1557"/><use x="2780" y="4690" xlink:href="#tool-T1-pad-1557"/><use x="2768" y="4845" xlink:href="#tool-T1-pad-1557"/><use x="2646" y="4836" xlink:href="#tool-T1-pad-1557"/><use x="2682" y="4796" xlink:href="#tool-T1-pad-1557"/><use x="2631" y="4752" xlink:href="#tool-T1-pad-1557"/><use x="2621" y="4718" xlink:href="#tool-T1-pad-1557"/><use x="2601.2" y="4735" xlink:href="#tool-T1-pad-1557"/><use x="2522.5" y="4756" xlink:href="#tool-T1-pad-1557"/><use x="2424" y="4738.3" xlink:href="#tool-T1-pad-1557"/><use x="2411" y="4855" xlink:href="#tool-T1-pad-1557"/><use x="2474" y="4875.3" xlink:href="#tool-T1-pad-1557"/><use x="2583" y="4892" xlink:href="#tool-T1-pad-1557"/><use x="2505" y="5105" xlink:href="#tool-T1-pad-1557"/><use x="2405" y="5105" xlink:href="#tool-T1-pad-1557"/><use x="2355" y="5105" xlink:href="#tool-T1-pad-1557"/><use x="2305" y="5105" xlink:href="#tool-T1-pad-1557"/><use x="2305" y="5036" xlink:href="#tool-T1-pad-1557"/><use x="2405" y="5036" xlink:href="#tool-T1-pad-1557"/><use x="2308" y="4855" xlink:href="#tool-T1-pad-1557"/><use x="2231.8" y="4878.2" xlink:href="#tool-T1-pad-1557"/><use x="2234" y="4827" xlink:href="#tool-T1-pad-1557"/><use x="2234" y="4801.4" xlink:href="#tool-T1-pad-1557"/><use x="2295" y="4692.7" xlink:href="#tool-T1-pad-1557"/><use x="2115" y="4906" xlink:href="#tool-T1-pad-1557"/><use x="2725" y="5040" xlink:href="#tool-T2-pad-1558"/><use x="2825" y="5040" xlink:href="#tool-T2-pad-1558"/><use x="2925" y="5040" xlink:href="#tool-T2-pad-1558"/><use x="2925" y="5140" xlink:href="#tool-T2-pad-1558"/><use x="2825" y="5140" xlink:href="#tool-T2-pad-1558"/><use x="2725" y="5140" xlink:href="#tool-T2-pad-1558"/><use x="3025" y="5140" xlink:href="#tool-T2-pad-1558"/><use x="3025" y="5040" xlink:href="#tool-T2-pad-1558"/><use x="2330" y="5070" xlink:href="#tool-T3-pad-1559"/><use x="2480" y="5070" xlink:href="#tool-T3-pad-1559"/><use x="2219.7" y="4159.8" xlink:href="#tool-T4-pad-1560"/><use x="2219.7" y="4504.2" xlink:href="#tool-T4-pad-1560"/><use x="3130" y="4120" xlink:href="#tool-T5-pad-1561"/><use x="2125" y="5130" xlink:href="#tool-T5-pad-1561"/></g></mask></defs><g mask="url(#_bottom_mech-mask)" transform="translate(5250,9250) scale(-1,-1)"><rect x="2000" y="4000" width="1250" height="1250" fill="currentColor" class="_board-fr4"/><use class="_board-cu" xlink:href="#_bottom-cu"/><g><defs><g id="_bottom-sm" fill="currentColor" stroke="currentColor"><use x="2219.7" y="4159.8" xlink:href="#tool-D70-pad-1307"/><use x="2219.7" y="4504.2" xlink:href="#tool-D70-pad-1307"/><use x="2925" y="5140" xlink:href="#tool-D71-pad-1308"/><use x="2925" y="5040" xlink:href="#tool-D71-pad-1308"/><use x="2825" y="5140" xlink:href="#tool-D71-pad-1308"/><use x="2825" y="5040" xlink:href="#tool-D71-pad-1308"/><use x="2725" y="5140" xlink:href="#tool-D71-pad-1308"/><use x="3025" y="5040" xlink:href="#tool-D71-pad-1308"/><use x="3025" y="5140" xlink:href="#tool-D71-pad-1308"/><use x="2725" y="5040" xlink:href="#tool-D72-pad-1309"/><use x="2330" y="5070" xlink:href="#tool-D73-pad-1310"/><use x="2480" y="5070" xlink:href="#tool-D73-pad-1310"/><use x="2125" y="5130" xlink:href="#tool-D74-pad-1311"/><use x="3130" y="4120" xlink:href="#tool-D74-pad-1311"/><use x="2550" y="4400" xlink:href="#tool-D75-pad-1312"/><use x="2550" y="4850" xlink:href="#tool-D75-pad-1312"/><use x="2700" y="4550" xlink:href="#tool-D75-pad-1312"/><use x="2700" y="4700" xlink:href="#tool-D75-pad-1312"/><use x="2700" y="4850" xlink:href="#tool-D75-pad-1312"/><use x="2550" y="4550" xlink:href="#tool-D75-pad-1312"/><use x="2550" y="4700" xlink:href="#tool-D75-pad-1312"/><use x="2700" y="4400" xlink:href="#tool-D75-pad-1312"/></g><mask id="_bottom-sm_mask" color="#000"><rect x="2000" y="4000" width="1250" height="1250" fill="#fff"/><use xlink:href="#_bottom-sm"/></mask><mask id="_bottom-cu_finish-mask" color="#fff"><use xlink:href="#_bottom-cu"/></mask></defs><g mask="url(#_bottom-sm_mask)"><rect x="2000" y="4000" width="1250" height="1250" fill="currentColor" class="_board-sm"/><g id="_bottom-ss" class="_board-ss" fill="currentColor" stroke="currentColor"><path stroke-width="6" fill="none" d="M 2589 4934 L 2569 4934 L 2579 4934 L 2579 4904 M 2559 4904 L 2559 4934 L 2544 4934 L 2539 4929 L 2539 4919 L 2544 4914 L 2559 4914 M 2529 4929 L 2524 4934 L 2514 4934 L 2509 4929 L 2509 4924 L 2514 4919 L 2509 4914 L 2509 4909 L 2514 4904 L 2524 4904 L 2529 4909 L 2529 4914 L 2524 4919 L 2529 4924 L 2529 4929 M 2524 4919 L 2514 4919 M 2769 4634 L 2749 4634 L 2759 4634 L 2759 4604 M 2739 4604 L 2739 4634 L 2724 4634 L 2719 4629 L 2719 4619 L 2724 4614 L 2739 4614 M 2709 4634 L 2689 4634 L 2689 4629 L 2709 4609 L 2709 4604 M 2592 4784 L 2572 4784 L 2582 4784 L 2582 4754 M 2562 4754 L 2562 4784 L 2547 4784 L 2542 4779 L 2542 4769 L 2547 4764 L 2562 4764 M 2512 4784 L 2522 4779 L 2532 4769 L 2532 4759 L 2527 4754 L 2517 4754 L 2512 4759 L 2512 4764 L 2517 4769 L 2532 4769 M 2593 4634 L 2573 4634 L 2583 4634 L 2583 4604 M 2563 4604 L 2563 4634 L 2548 4634 L 2543 4629 L 2543 4619 L 2548 4614 L 2563 4614 M 2513 4634 L 2533 4634 L 2533 4619 L 2523 4624 L 2518 4624 L 2513 4619 L 2513 4609 L 2518 4604 L 2528 4604 L 2533 4609 M 2738 4784 L 2718 4784 L 2728 4784 L 2728 4754 M 2708 4754 L 2708 4784 L 2693 4784 L 2688 4779 L 2688 4769 L 2693 4764 L 2708 4764 M 2663 4754 L 2663 4784 L 2678 4769 L 2658 4769 M 2743 4934 L 2723 4934 L 2733 4934 L 2733 4904 M 2713 4904 L 2713 4934 L 2698 4934 L 2693 4929 L 2693 4919 L 2698 4914 L 2713 4914 M 2683 4929 L 2678 4934 L 2668 4934 L 2663 4929 L 2663 4924 L 2668 4919 L 2673 4919 L 2668 4919 L 2663 4914 L 2663 4909 L 2668 4904 L 2678 4904 L 2683 4909 M 2744 4484 L 2724 4484 L 2734 4484 L 2734 4454 M 2714 4454 L 2714 4484 L 2699 4484 L 2694 4479 L 2694 4469 L 2699 4464 L 2714 4464 M 2664 4454 L 2684 4454 L 2664 4474 L 2664 4479 L 2669 4484 L 2679 4484 L 2684 4479 M 2585 4484 L 2565 4484 L 2575 4484 L 2575 4454 M 2555 4454 L 2555 4484 L 2540 4484 L 2535 4479 L 2535 4469 L 2540 4464 L 2555 4464 M 2525 4454 L 2515 4454 L 2520 4454 L 2520 4484 L 2525 4479 M 2375 4600 L 2355 4600 L 2365 4600 L 2365 4570 M 2345 4570 L 2345 4600 L 2330 4600 L 2325 4595 L 2325 4585 L 2330 4580 L 2345 4580 M 2315 4595 L 2310 4600 L 2300 4600 L 2295 4595 L 2295 4590 L 2300 4585 L 2305 4585 L 2300 4585 L 2295 4580 L 2295 4575 L 2300 4570 L 2310 4570 L 2315 4575 M 2255 4570 L 2255 4600 L 2240 4600 L 2235 4595 L 2235 4585 L 2240 4580 L 2255 4580 M 2245 4580 L 2235 4570 M 2225 4600 L 2205.1 4570 M 2205.1 4600 L 2225 4570 M 2375 4700 L 2355 4700 L 2365 4700 L 2365 4670 M 2345 4670 L 2345 4700 L 2330 4700 L 2325 4695 L 2325 4685 L 2330 4680 L 2345 4680 M 2315 4670 L 2305 4670 L 2310 4670 L 2310 4700 L 2315 4695 M 2260 4700 L 2260 4680 L 2250 4670 L 2240 4680 L 2240 4700 M 2210.1 4695 L 2215.1 4700 L 2225 4700 L 2230 4695 L 2230 4675 L 2225 4670 L 2215.1 4670 L 2210.1 4675 M 2180.1 4695 L 2185.1 4700 L 2195.1 4700 L 2200.1 4695 L 2200.1 4675 L 2195.1 4670 L 2185.1 4670 L 2180.1 4675 M 2375 4650 L 2355 4650 L 2365 4650 L 2365 4620 M 2345 4620 L 2345 4650 L 2330 4650 L 2325 4645 L 2325 4635 L 2330 4630 L 2345 4630 M 2295 4620 L 2315 4620 L 2295 4640 L 2295 4645 L 2300 4650 L 2310 4650 L 2315 4645 M 2255 4645 L 2250 4650 L 2240 4650 L 2235 4645 L 2235 4640 L 2240 4635 L 2245 4635 L 2240 4635 L 2235 4630 L 2235 4625 L 2240 4620 L 2250 4620 L 2255 4625 M 2225 4620 L 2225 4625 L 2220.1 4625 L 2220.1 4620 L 2225 4620 M 2200.1 4645 L 2195.1 4650 L 2185.1 4650 L 2180.1 4645 L 2180.1 4640 L 2185.1 4635 L 2190.1 4635 L 2185.1 4635 L 2180.1 4630 L 2180.1 4625 L 2185.1 4620 L 2195.1 4620 L 2200.1 4625 M 2170.1 4650 L 2170.1 4630 L 2160.1 4620 L 2150.1 4630 L 2150.1 4650 M 2375 4550 L 2355 4550 L 2365 4550 L 2365 4520 M 2345 4520 L 2345 4550 L 2330 4550 L 2325 4545 L 2325 4535 L 2330 4530 L 2345 4530 M 2300 4520 L 2300 4550 L 2315 4535 L 2295 4535 M 2255 4550 L 2235 4550 L 2245 4550 L 2245 4520 M 2225 4550 L 2205.1 4520 M 2205.1 4550 L 2225 4520 M 2375 4500 L 2355 4500 L 2365 4500 L 2365 4470 M 2345 4470 L 2345 4500 L 2330 4500 L 2325 4495 L 2325 4485 L 2330 4480 L 2345 4480 M 2295 4500 L 2315 4500 L 2315 4485 L 2305 4490 L 2300 4490 L 2295 4485 L 2295 4475 L 2300 4470 L 2310 4470 L 2315 4475 M 2255 4470 L 2255 4500 L 2235 4470 L 2235 4500 M 2225 4470 L 2225 4500 L 2210.1 4500 L 2205.1 4495 L 2205.1 4485 L 2210.1 4480 L 2225 4480 M 2215.1 4480 L 2205.1 4470 M 2175.1 4495 L 2180.1 4500 L 2190.1 4500 L 2195.1 4495 L 2195.1 4490 L 2190.1 4485 L 2180.1 4485 L 2175.1 4480 L 2175.1 4475 L 2180.1 4470 L 2190.1 4470 L 2195.1 4475 M 2165.1 4500 L 2145.1 4500 L 2155.1 4500 L 2155.1 4470 M 2375 4450 L 2355 4450 L 2365 4450 L 2365 4420 M 2345 4420 L 2345 4450 L 2330 4450 L 2325 4445 L 2325 4435 L 2330 4430 L 2345 4430 M 2295 4450 L 2305 4445 L 2315 4435 L 2315 4425 L 2310 4420 L 2300 4420 L 2295 4425 L 2295 4430 L 2300 4435 L 2315 4435 M 2255 4450 L 2255 4420 L 2240 4420 L 2235 4425 L 2235 4430 L 2240 4435 L 2255 4435 L 2240 4435 L 2235 4440 L 2235 4445 L 2240 4450 L 2255 4450 M 2210.1 4450 L 2220.1 4450 L 2225 4445 L 2225 4425 L 2220.1 4420 L 2210.1 4420 L 2205.1 4425 L 2205.1 4445 L 2210.1 4450 M 2180.1 4450 L 2190.1 4450 L 2195.1 4445 L 2195.1 4425 L 2190.1 4420 L 2180.1 4420 L 2175.1 4425 L 2175.1 4445 L 2180.1 4450 M 2165.1 4450 L 2145.1 4450 L 2155.1 4450 L 2155.1 4420 M 2135.1 4445 L 2130.1 4450 L 2120.1 4450 L 2115.1 4445 L 2115.1 4425 L 2120.1 4420 L 2130.1 4420 L 2135.1 4425 L 2135.1 4445 M 2375 4400 L 2355 4400 L 2365 4400 L 2365 4370 M 2345 4370 L 2345 4400 L 2330 4400 L 2325 4395 L 2325 4385 L 2330 4380 L 2345 4380 M 2315 4400 L 2295 4400 L 2295 4395 L 2315 4375 L 2315 4370 M 2255 4400 L 2255 4375 L 2250 4370 L 2240 4370 L 2235 4375 L 2235 4400 M 2225 4370 L 2225 4390 L 2215.1 4400 L 2205.1 4390 L 2205.1 4370 L 2205.1 4385 L 2225 4385 M 2195.1 4370 L 2195.1 4400 L 2180.1 4400 L 2175.1 4395 L 2175.1 4385 L 2180.1 4380 L 2195.1 4380 M 2185.1 4380 L 2175.1 4370 M 2165.1 4400 L 2145.1 4400 L 2155.1 4400 L 2155.1 4370 M 2115.1 4400 L 2135.1 4400 L 2135.1 4370 L 2115.1 4370 M 2135.1 4385 L 2125.1 4385 M 2105.1 4370 L 2105.1 4400 L 2085.1 4370 L 2085.1 4400 M 2375 4350 L 2355 4350 L 2365 4350 L 2365 4320 M 2345 4320 L 2345 4350 L 2330 4350 L 2325 4345 L 2325 4335 L 2330 4330 L 2345 4330 M 2315 4345 L 2310 4350 L 2300 4350 L 2295 4345 L 2295 4340 L 2300 4335 L 2295 4330 L 2295 4325 L 2300 4320 L 2310 4320 L 2315 4325 L 2315 4330 L 2310 4335 L 2315 4340 L 2315 4345 M 2310 4335 L 2300 4335 M 2235 4345 L 2240 4350 L 2250 4350 L 2255 4345 L 2255 4325 L 2250 4320 L 2240 4320 L 2235 4325 L 2235 4335 L 2245 4335 M 2225 4320 L 2225 4350 L 2205.1 4320 L 2205.1 4350 M 2195.1 4350 L 2195.1 4320 L 2180.1 4320 L 2175.1 4325 L 2175.1 4345 L 2180.1 4350 L 2195.1 4350 M 2375 4775 L 2355 4775 L 2365 4775 L 2365 4745 M 2325 4775 L 2345 4775 L 2345 4745 L 2325 4745 M 2345 4760 L 2335 4760 M 2295 4770 L 2300 4775 L 2310 4775 L 2315 4770 L 2315 4765 L 2310 4760 L 2300 4760 L 2295 4755 L 2295 4750 L 2300 4745 L 2310 4745 L 2315 4750 M 2285 4775 L 2265 4775 L 2275 4775 L 2275 4745 M 2240 4745 L 2240 4775 L 2225 4775 L 2220 4770 L 2220 4760 L 2225 4755 L 2240 4755 M 2195 4775 L 2205 4775 L 2210 4770 L 2210 4750 L 2205 4745 L 2195 4745 L 2190 4750 L 2190 4770 L 2195 4775 M 2180 4775 L 2170 4775 L 2175 4775 L 2175 4745 L 2180 4745 L 2170 4745 M 2155 4745 L 2155 4775 L 2135 4745 L 2135 4775 M 2125 4775 L 2105 4775 L 2115 4775 L 2115 4745 M 2075.1 4770 L 2080.1 4775 L 2090 4775 L 2095 4770 L 2095 4765 L 2090 4760 L 2080.1 4760 L 2075.1 4755 L 2075.1 4750 L 2080.1 4745 L 2090 4745 L 2095 4750"/><path stroke-width="5.9" fill="none" d="M 2375 4300 A 25 25 0 0 1 2400 4325 M 2050 4325 A 25 25 0 0 1 2075 4300 M 2075 4800 A 25 25 0 0 1 2050 4775 M 2400 4775 A 25 25 0 0 1 2375 4800 M 2800 4950 A 25 25 0 0 1 2775 4975 M 2475 4975 A 25 25 0 0 1 2450 4950 M 2775 4300 A 25 25 0 0 1 2800 4325 M 2450 4325 A 25 25 0 0 1 2475 4300 M 2400 4325 L 2400 4775 M 2075 4300 L 2375 4300 M 2050 4325 L 2050 4775 M 2075 4800 L 2375 4800 M 2475 4975 L 2775 4975 M 2475 4300 L 2775 4300 M 2800 4325 L 2800 4950 M 2450 4325 L 2450 4950"/><path stroke-width="7" fill="none" d="M 2956 4103 L 2968.7 4103 L 2975 4096.7 L 2975 4071.3 L 2968.7 4065 L 2956 4065 L 2949.7 4071.3 L 2949.7 4096.7 L 2956 4103 M 2911.7 4096.7 L 2918 4103 L 2930.7 4103 L 2937 4096.7 L 2937 4071.3 L 2930.7 4065 L 2918 4065 L 2911.7 4071.3 M 2899 4103 L 2899 4071.3 L 2892.7 4065 L 2880 4065 L 2873.7 4071.3 L 2873.7 4103 M 2861 4103 L 2861 4065 L 2835.7 4065 M 2823 4103 L 2823 4071.3 L 2816.7 4065 L 2804.1 4065 L 2797.7 4071.3 L 2797.7 4103 M 2759.7 4096.7 L 2766.1 4103 L 2778.7 4103 L 2785.1 4096.7 L 2785.1 4090.3 L 2778.7 4084 L 2766.1 4084 L 2759.7 4077.7 L 2759.7 4071.3 L 2766.1 4065 L 2778.7 4065 L 2785.1 4071.3 M 2709.1 4103 L 2683.8 4103 L 2696.4 4103 L 2696.4 4065 M 2671.1 4065 L 2671.1 4103 L 2652.1 4103 L 2645.8 4096.7 L 2645.8 4084 L 2652.1 4077.7 L 2671.1 4077.7 M 2658.4 4077.7 L 2645.8 4065 M 2633.1 4065 L 2633.1 4090.3 L 2620.4 4103 L 2607.8 4090.3 L 2607.8 4065 L 2607.8 4084 L 2633.1 4084 M 2569.8 4096.7 L 2576.1 4103 L 2588.8 4103 L 2595.1 4096.7 L 2595.1 4071.3 L 2588.8 4065 L 2576.1 4065 L 2569.8 4071.3 M 2557.1 4103 L 2557.1 4065 L 2557.1 4077.7 L 2531.8 4103 L 2550.8 4084 L 2531.8 4065 M 2493.8 4103 L 2519.1 4103 L 2519.1 4065 L 2493.8 4065 M 2519.1 4084 L 2506.5 4084 M 2481.2 4065 L 2481.2 4103 L 2462.2 4103 L 2455.8 4096.7 L 2455.8 4084 L 2462.2 4077.7 L 2481.2 4077.7 M 2468.5 4077.7 L 2455.8 4065 M 2405.2 4103 L 2405.2 4077.7 L 2392.5 4065 L 2379.9 4077.7 L 2379.9 4103 M 2341.9 4065 L 2367.2 4065 L 2341.9 4090.3 L 2341.9 4096.7 L 2348.2 4103 L 2360.9 4103 L 2367.2 4096.7 M 2265.9 4065 L 2291.2 4065 L 2265.9 4090.3 L 2265.9 4096.7 L 2272.2 4103 L 2284.9 4103 L 2291.2 4096.7 M 2253.2 4096.7 L 2246.9 4103 L 2234.2 4103 L 2227.9 4096.7 L 2227.9 4071.3 L 2234.2 4065 L 2246.9 4065 L 2253.2 4071.3 L 2253.2 4096.7 M 2215.2 4065 L 2202.6 4065 L 2208.9 4065 L 2208.9 4103 L 2215.2 4096.7 M 2158.3 4065 L 2183.6 4065 L 2158.3 4090.3 L 2158.3 4096.7 L 2164.6 4103 L 2177.3 4103 L 2183.6 4096.7"/></g></g><use class="_board-cf" mask="url(#_bottom-cu_finish-mask)" xlink:href="#_bottom-sm"/></g><g id="_bottom-sp" class="_board-sp" fill="currentColor" stroke="currentColor"><use x="2550" y="4400" xlink:href="#tool-D47-pad-1218"/><use x="2550" y="4850" xlink:href="#tool-D47-pad-1218"/><use x="2700" y="4550" xlink:href="#tool-D47-pad-1218"/><use x="2700" y="4700" xlink:href="#tool-D47-pad-1218"/><use x="2700" y="4850" xlink:href="#tool-D47-pad-1218"/><use x="2550" y="4550" xlink:href="#tool-D47-pad-1218"/><use x="2550" y="4700" xlink:href="#tool-D47-pad-1218"/><use x="2700" y="4400" xlink:href="#tool-D47-pad-1218"/></g></g><style type="text/css"> ._board-fr4 { color: rgba(177, 136, 22, 0.65);} ._board-cu { color: lightgrey; } ._board-cf { color: goldenrod; } ._board-sm { color: darkgreen; opacity: 0.75; } ._board-ss { color: white; } ._board-sp { color: silver; opacity: 0.0;} ._board-out { color: black; } </style></svg>