G04 start of page 8 for group -4079 idx -4079 *
G04 Title: Nomech, topsilk *
G04 Creator: pcb 20110918 *
G04 CreationDate: Sun 08 Sep 2013 10:57:53 PM GMT UTC *
G04 For: bertho *
G04 Format: Gerber/RS-274X *
G04 PCB-Dimensions: 430000 350000 *
G04 PCB-Coordinate-Origin: lower left *
%MOIN*%
%FSLAX25Y25*%
%LNTOPSILK*%
%ADD180C,0.0200*%
%ADD179C,0.0137*%
%ADD178C,0.0110*%
%ADD177C,0.0070*%
%ADD176C,0.0400*%
%ADD175C,0.0080*%
G54D175*X20000Y26000D02*X393500D01*
X10000Y330000D02*Y36000D01*
X20000Y340000D02*X393500D01*
X403500Y330000D02*Y36000D01*
G54D176*X361000Y304000D03*
G54D175*X10000Y36000D02*G75*G03X20000Y26000I10000J0D01*G01*
X20000Y340000D02*G75*G03X10000Y330000I0J-10000D01*G01*
X403500Y330000D02*G75*G03X393500Y340000I-10000J0D01*G01*
Y26000D02*G75*G03X403500Y36000I0J10000D01*G01*
G54D177*X294500Y33500D02*X295000Y33000D01*
X293000Y33500D02*X294500D01*
X292500Y33000D02*X293000Y33500D01*
X292500Y33000D02*Y32000D01*
X293000Y31500D01*
X294500D01*
X295000Y31000D01*
Y30000D01*
X294500Y29500D02*X295000Y30000D01*
X293000Y29500D02*X294500D01*
X292500Y30000D02*X293000Y29500D01*
X296200Y33500D02*X297200D01*
X296700D02*Y29500D01*
X296200D02*X297200D01*
X298400Y33500D02*Y29500D01*
X300400D01*
X301600Y33500D02*Y29500D01*
Y31500D02*X303600Y33500D01*
X301600Y31500D02*X303600Y29500D01*
X304800Y33500D02*X306800D01*
X305800D02*Y29500D01*
X308000Y33000D02*Y30000D01*
Y33000D02*X308500Y33500D01*
X309500D01*
X310000Y33000D01*
Y30000D01*
X309500Y29500D02*X310000Y30000D01*
X308500Y29500D02*X309500D01*
X308000Y30000D02*X308500Y29500D01*
X311700Y33500D02*Y29500D01*
X311200Y33500D02*X313200D01*
X313700Y33000D01*
Y32000D01*
X313200Y31500D02*X313700Y32000D01*
X311700Y31500D02*X313200D01*
G54D178*X310250Y39000D02*X321250D01*
X310250D02*X321250Y45875D01*
X310250D02*X321250D01*
X317125Y49175D02*X319875D01*
X317125D02*X315750Y50550D01*
Y53300D02*Y50550D01*
Y53300D02*X317125Y54675D01*
X319875D01*
X321250Y53300D02*X319875Y54675D01*
X321250Y53300D02*Y50550D01*
X319875Y49175D02*X321250Y50550D01*
X310250Y57975D02*X321250D01*
X310250D02*X315750Y62100D01*
X310250Y66225D01*
X321250D01*
Y75025D02*Y70900D01*
X319875Y69525D02*X321250Y70900D01*
X317125Y69525D02*X319875D01*
X317125D02*X315750Y70900D01*
Y73650D02*Y70900D01*
Y73650D02*X317125Y75025D01*
X318500D02*Y69525D01*
X317125Y75025D02*X318500D01*
X315750Y83825D02*Y79700D01*
X317125Y78325D02*X315750Y79700D01*
X317125Y78325D02*X319875D01*
X321250Y79700D01*
Y83825D02*Y79700D01*
X310250Y87125D02*X321250D01*
X317125D02*X315750Y88500D01*
Y91250D02*Y88500D01*
Y91250D02*X317125Y92625D01*
X321250D01*
X327750Y58000D02*X338750D01*
X327750D02*X333250Y62125D01*
X327750Y66250D01*
X338750D01*
G54D179*X330500Y69550D02*X330775D01*
G54D178*X334625D02*X338750D01*
X334625Y73675D02*X338750D01*
X334625D02*X333250Y75050D01*
Y76425D02*Y75050D01*
Y76425D02*X334625Y77800D01*
X338750D01*
X333250Y72300D02*X334625Y73675D01*
G54D179*X330500Y81100D02*X330775D01*
G54D178*X334625D02*X338750D01*
G54D175*X351500Y42000D02*Y38000D01*
Y42000D02*X350500Y43000D01*
X348100D02*X350500D01*
X347100Y42000D02*X348100Y43000D01*
X347100Y42000D02*Y39000D01*
X343500D02*X351500D01*
X343500Y42000D02*Y38000D01*
Y42000D02*X344500Y43000D01*
X346100D01*
X347100Y42000D02*X346100Y43000D01*
X347500Y45400D02*X350500D01*
X351500Y46400D01*
X347500Y49400D02*X353500D01*
X354500Y48400D02*X353500Y49400D01*
X354500Y48400D02*Y46400D01*
X353500Y45400D02*X354500Y46400D01*
X351500Y48400D02*Y46400D01*
Y48400D02*X350500Y49400D01*
X343500Y55400D02*X351500D01*
X348500D02*X351500Y58400D01*
X348500Y55400D02*X346500Y57400D01*
X347500Y63800D02*X348500Y64800D01*
X347500Y63800D02*Y61800D01*
X348500Y60800D02*X347500Y61800D01*
X348500Y60800D02*X350500D01*
X351500Y61800D01*
X347500Y64800D02*X350500D01*
X351500Y65800D01*
Y63800D02*Y61800D01*
Y63800D02*X350500Y64800D01*
X351500Y72200D02*Y69200D01*
Y72200D02*X350500Y73200D01*
X349500Y72200D02*X350500Y73200D01*
X349500Y72200D02*Y69200D01*
X348500Y68200D02*X349500Y69200D01*
X348500Y68200D02*X347500Y69200D01*
Y72200D02*Y69200D01*
Y72200D02*X348500Y73200D01*
X350500Y68200D02*X351500Y69200D01*
X343500Y75600D02*X351500D01*
X350500D02*X351500Y76600D01*
Y78600D02*Y76600D01*
Y78600D02*X350500Y79600D01*
X348500D02*X350500D01*
X347500Y78600D02*X348500Y79600D01*
X347500Y78600D02*Y76600D01*
X348500Y75600D02*X347500Y76600D01*
Y85000D02*X348500Y86000D01*
X347500Y85000D02*Y83000D01*
X348500Y82000D02*X347500Y83000D01*
X348500Y82000D02*X350500D01*
X351500Y83000D01*
X347500Y86000D02*X350500D01*
X351500Y87000D01*
Y85000D02*Y83000D01*
Y85000D02*X350500Y86000D01*
X343500Y89400D02*X351500D01*
X348500D02*X347500Y90400D01*
Y92400D02*Y90400D01*
Y92400D02*X348500Y93400D01*
X351500D01*
G54D177*X370000Y31900D02*Y30340D01*
X369160Y29500D02*X370000Y30340D01*
X366040Y29500D02*X369160D01*
X366040D02*X365200Y30340D01*
Y31900D02*Y30340D01*
X370000Y35740D02*Y34180D01*
X369160Y33340D02*X370000Y34180D01*
X366040Y33340D02*X369160D01*
X366040D02*X365200Y34180D01*
Y35740D02*Y34180D01*
X367600Y39580D02*Y37180D01*
X370000Y43420D02*Y41020D01*
Y43420D02*X369400Y44020D01*
X367960D02*X369400D01*
X367360Y43420D02*X367960Y44020D01*
X367360Y43420D02*Y41620D01*
X365200D02*X370000D01*
X365200Y43420D02*Y41020D01*
Y43420D02*X365800Y44020D01*
X366760D01*
X367360Y43420D02*X366760Y44020D01*
X365200Y45460D02*X367600Y46660D01*
X365200Y47860D01*
X367600Y46660D02*X370000D01*
X367600Y51700D02*Y49300D01*
X365200Y55540D02*X365800Y56140D01*
X365200Y55540D02*Y53740D01*
X365800Y53140D02*X365200Y53740D01*
X365800Y53140D02*X367000D01*
X367600Y53740D01*
Y55540D02*Y53740D01*
Y55540D02*X368200Y56140D01*
X369400D01*
X370000Y55540D02*X369400Y56140D01*
X370000Y55540D02*Y53740D01*
X369400Y53140D02*X370000Y53740D01*
X366400Y57580D02*X370000D01*
X366400D02*X365200Y58420D01*
Y59740D02*Y58420D01*
Y59740D02*X366400Y60580D01*
X370000D01*
X367600D02*Y57580D01*
Y64420D02*Y62020D01*
X365800Y65860D02*X365200Y66460D01*
Y67660D02*Y66460D01*
Y67660D02*X365800Y68260D01*
X370000Y67660D02*X369400Y68260D01*
X370000Y67660D02*Y66460D01*
X369400Y65860D02*X370000Y66460D01*
X367360Y67660D02*Y66460D01*
X365800Y68260D02*X366760D01*
X367960D02*X369400D01*
X367960D02*X367360Y67660D01*
X366760Y68260D02*X367360Y67660D01*
X370000Y70300D02*Y69700D01*
X369400Y71740D02*X370000Y72340D01*
X365800Y71740D02*X369400D01*
X365800D02*X365200Y72340D01*
Y73540D02*Y72340D01*
Y73540D02*X365800Y74140D01*
X369400D01*
X370000Y73540D02*X369400Y74140D01*
X370000Y73540D02*Y72340D01*
X368800Y71740D02*X366400Y74140D01*
X365000Y97000D02*X369000Y98000D01*
X365000Y99000D01*
X369000Y102200D02*Y100900D01*
X368300Y100200D02*X369000Y100900D01*
X365700Y100200D02*X368300D01*
X365700D02*X365000Y100900D01*
Y102200D02*Y100900D01*
X369000Y105400D02*Y104100D01*
X368300Y103400D02*X369000Y104100D01*
X365700Y103400D02*X368300D01*
X365700D02*X365000Y104100D01*
Y105400D02*Y104100D01*
X375000Y93000D02*X379000Y94000D01*
X375000Y95000D01*
Y96200D02*X378500D01*
X379000Y96700D01*
Y97700D02*Y96700D01*
Y97700D02*X378500Y98200D01*
X375000D02*X378500D01*
X375000Y101400D02*X375500Y101900D01*
X375000Y101400D02*Y99900D01*
X375500Y99400D02*X375000Y99900D01*
X375500Y99400D02*X376500D01*
X377000Y99900D01*
Y101400D02*Y99900D01*
Y101400D02*X377500Y101900D01*
X378500D01*
X379000Y101400D02*X378500Y101900D01*
X379000Y101400D02*Y99900D01*
X378500Y99400D02*X379000Y99900D01*
Y105100D02*Y103100D01*
Y105100D02*X378500Y105600D01*
X377300D02*X378500D01*
X376800Y105100D02*X377300Y105600D01*
X376800Y105100D02*Y103600D01*
X375000D02*X379000D01*
X375000Y105100D02*Y103100D01*
Y105100D02*X375500Y105600D01*
X376300D01*
X376800Y105100D02*X376300Y105600D01*
X355000Y97500D02*X355500Y98000D01*
X355000Y97500D02*Y96000D01*
X355500Y95500D02*X355000Y96000D01*
X355500Y95500D02*X358500D01*
X359000Y96000D01*
Y97500D02*Y96000D01*
Y97500D02*X358500Y98000D01*
X357500D02*X358500D01*
X357000Y97500D02*X357500Y98000D01*
X357000Y97500D02*Y96500D01*
X355000Y99200D02*X359000D01*
X355000D02*X359000Y101700D01*
X355000D02*X359000D01*
X355000Y103400D02*X359000D01*
X355000Y104700D02*X355700Y105400D01*
X358300D01*
X359000Y104700D02*X358300Y105400D01*
X359000Y104700D02*Y102900D01*
X355000Y104700D02*Y102900D01*
X243500Y151500D02*X246000Y155500D01*
X243500D02*X246000Y151500D01*
X247200Y155000D02*X247700Y155500D01*
X248700D01*
X249200Y155000D01*
X248700Y151500D02*X249200Y152000D01*
X247700Y151500D02*X248700D01*
X247200Y152000D02*X247700Y151500D01*
Y153700D02*X248700D01*
X249200Y155000D02*Y154200D01*
Y153200D02*Y152000D01*
Y153200D02*X248700Y153700D01*
X249200Y154200D02*X248700Y153700D01*
X250400Y155500D02*X251400Y153500D01*
X252400Y155500D01*
X251400Y153500D02*Y151500D01*
X253600Y155000D02*X254100Y155500D01*
X255600D01*
X256100Y155000D01*
Y154000D01*
X253600Y151500D02*X256100Y154000D01*
X253600Y151500D02*X256100D01*
X243500Y83500D02*X246000Y87500D01*
X243500D02*X246000Y83500D01*
X247200Y87000D02*X247700Y87500D01*
X248700D01*
X249200Y87000D01*
X248700Y83500D02*X249200Y84000D01*
X247700Y83500D02*X248700D01*
X247200Y84000D02*X247700Y83500D01*
Y85700D02*X248700D01*
X249200Y87000D02*Y86200D01*
Y85200D02*Y84000D01*
Y85200D02*X248700Y85700D01*
X249200Y86200D02*X248700Y85700D01*
X250400Y87500D02*X251400Y85500D01*
X252400Y87500D01*
X251400Y85500D02*Y83500D01*
X253600Y87000D02*X254100Y87500D01*
X255100D01*
X255600Y87000D01*
X255100Y83500D02*X255600Y84000D01*
X254100Y83500D02*X255100D01*
X253600Y84000D02*X254100Y83500D01*
Y85700D02*X255100D01*
X255600Y87000D02*Y86200D01*
Y85200D02*Y84000D01*
Y85200D02*X255100Y85700D01*
X255600Y86200D02*X255100Y85700D01*
X365000Y319500D02*Y317500D01*
Y319500D02*X365500Y320000D01*
X366500D01*
X367000Y319500D02*X366500Y320000D01*
X367000Y319500D02*Y318000D01*
X365000D02*X369000D01*
X367000Y318800D02*X369000Y320000D01*
Y321200D02*X365000Y323700D01*
Y321200D02*X369000Y323700D01*
X355000Y320000D02*Y318000D01*
Y319000D02*X359000D01*
Y321200D02*X355000Y323700D01*
Y321200D02*X359000Y323700D01*
X345000Y316000D02*X345500Y316500D01*
X345000Y316000D02*Y314500D01*
X345500Y314000D02*X345000Y314500D01*
X345500Y314000D02*X348500D01*
X349000Y314500D01*
Y316000D02*Y314500D01*
Y316000D02*X348500Y316500D01*
X347500D02*X348500D01*
X347000Y316000D02*X347500Y316500D01*
X347000Y316000D02*Y315000D01*
X345000Y317700D02*X349000D01*
X345000D02*X349000Y320200D01*
X345000D02*X349000D01*
X345000Y321900D02*X349000D01*
X345000Y323200D02*X345700Y323900D01*
X348300D01*
X349000Y323200D02*X348300Y323900D01*
X349000Y323200D02*Y321400D01*
X345000Y323200D02*Y321400D01*
X243500Y287500D02*X246000Y291500D01*
X243500D02*X246000Y287500D01*
X247200Y291000D02*X247700Y291500D01*
X248700D01*
X249200Y291000D01*
X248700Y287500D02*X249200Y288000D01*
X247700Y287500D02*X248700D01*
X247200Y288000D02*X247700Y287500D01*
Y289700D02*X248700D01*
X249200Y291000D02*Y290200D01*
Y289200D02*Y288000D01*
Y289200D02*X248700Y289700D01*
X249200Y290200D02*X248700Y289700D01*
X250400Y291500D02*X251400Y289500D01*
X252400Y291500D01*
X251400Y289500D02*Y287500D01*
X253600Y288000D02*X254100Y287500D01*
X253600Y291000D02*Y288000D01*
Y291000D02*X254100Y291500D01*
X255100D01*
X255600Y291000D01*
Y288000D01*
X255100Y287500D02*X255600Y288000D01*
X254100Y287500D02*X255100D01*
X253600Y288500D02*X255600Y290500D01*
X39500Y287500D02*X42000Y291500D01*
X39500D02*X42000Y287500D01*
X43200Y288000D02*X43700Y287500D01*
X43200Y291000D02*Y288000D01*
Y291000D02*X43700Y291500D01*
X44700D01*
X45200Y291000D01*
Y288000D01*
X44700Y287500D02*X45200Y288000D01*
X43700Y287500D02*X44700D01*
X43200Y288500D02*X45200Y290500D01*
X46400Y291500D02*X47400Y289500D01*
X48400Y291500D01*
X47400Y289500D02*Y287500D01*
X49600Y288000D02*X50100Y287500D01*
X49600Y291000D02*Y288000D01*
Y291000D02*X50100Y291500D01*
X51100D01*
X51600Y291000D01*
Y288000D01*
X51100Y287500D02*X51600Y288000D01*
X50100Y287500D02*X51100D01*
X49600Y288500D02*X51600Y290500D01*
X39500Y219500D02*X42000Y223500D01*
X39500D02*X42000Y219500D01*
X43200Y220000D02*X43700Y219500D01*
X43200Y223000D02*Y220000D01*
Y223000D02*X43700Y223500D01*
X44700D01*
X45200Y223000D01*
Y220000D01*
X44700Y219500D02*X45200Y220000D01*
X43700Y219500D02*X44700D01*
X43200Y220500D02*X45200Y222500D01*
X46400Y223500D02*X47400Y221500D01*
X48400Y223500D01*
X47400Y221500D02*Y219500D01*
X49600Y222700D02*X50400Y223500D01*
Y219500D01*
X49600D02*X51100D01*
X107500D02*X110000Y223500D01*
X107500D02*X110000Y219500D01*
X111200Y222700D02*X112000Y223500D01*
Y219500D01*
X111200D02*X112700D01*
X113900Y223500D02*X114900Y221500D01*
X115900Y223500D01*
X114900Y221500D02*Y219500D01*
X117100Y222700D02*X117900Y223500D01*
Y219500D01*
X117100D02*X118600D01*
X107500Y287500D02*X110000Y291500D01*
X107500D02*X110000Y287500D01*
X111200Y290700D02*X112000Y291500D01*
Y287500D01*
X111200D02*X112700D01*
X113900Y291500D02*X114900Y289500D01*
X115900Y291500D01*
X114900Y289500D02*Y287500D01*
X117100Y288000D02*X117600Y287500D01*
X117100Y291000D02*Y288000D01*
Y291000D02*X117600Y291500D01*
X118600D01*
X119100Y291000D01*
Y288000D01*
X118600Y287500D02*X119100Y288000D01*
X117600Y287500D02*X118600D01*
X117100Y288500D02*X119100Y290500D01*
X175500Y287500D02*X178000Y291500D01*
X175500D02*X178000Y287500D01*
X179200Y291000D02*X179700Y291500D01*
X181200D01*
X181700Y291000D01*
Y290000D01*
X179200Y287500D02*X181700Y290000D01*
X179200Y287500D02*X181700D01*
X182900Y291500D02*X183900Y289500D01*
X184900Y291500D01*
X183900Y289500D02*Y287500D01*
X186100Y288000D02*X186600Y287500D01*
X186100Y291000D02*Y288000D01*
Y291000D02*X186600Y291500D01*
X187600D01*
X188100Y291000D01*
Y288000D01*
X187600Y287500D02*X188100Y288000D01*
X186600Y287500D02*X187600D01*
X186100Y288500D02*X188100Y290500D01*
X175500Y219500D02*X178000Y223500D01*
X175500D02*X178000Y219500D01*
X179200Y223000D02*X179700Y223500D01*
X181200D01*
X181700Y223000D01*
Y222000D01*
X179200Y219500D02*X181700Y222000D01*
X179200Y219500D02*X181700D01*
X182900Y223500D02*X183900Y221500D01*
X184900Y223500D01*
X183900Y221500D02*Y219500D01*
X186100Y222700D02*X186900Y223500D01*
Y219500D01*
X186100D02*X187600D01*
X243500D02*X246000Y223500D01*
X243500D02*X246000Y219500D01*
X247200Y223000D02*X247700Y223500D01*
X248700D01*
X249200Y223000D01*
X248700Y219500D02*X249200Y220000D01*
X247700Y219500D02*X248700D01*
X247200Y220000D02*X247700Y219500D01*
Y221700D02*X248700D01*
X249200Y223000D02*Y222200D01*
Y221200D02*Y220000D01*
Y221200D02*X248700Y221700D01*
X249200Y222200D02*X248700Y221700D01*
X250400Y223500D02*X251400Y221500D01*
X252400Y223500D01*
X251400Y221500D02*Y219500D01*
X253600Y222700D02*X254400Y223500D01*
Y219500D01*
X253600D02*X255100D01*
X39500Y151500D02*X42000Y155500D01*
X39500D02*X42000Y151500D01*
X43200Y152000D02*X43700Y151500D01*
X43200Y155000D02*Y152000D01*
Y155000D02*X43700Y155500D01*
X44700D01*
X45200Y155000D01*
Y152000D01*
X44700Y151500D02*X45200Y152000D01*
X43700Y151500D02*X44700D01*
X43200Y152500D02*X45200Y154500D01*
X46400Y155500D02*X47400Y153500D01*
X48400Y155500D01*
X47400Y153500D02*Y151500D01*
X49600Y155000D02*X50100Y155500D01*
X51600D01*
X52100Y155000D01*
Y154000D01*
X49600Y151500D02*X52100Y154000D01*
X49600Y151500D02*X52100D01*
X39500Y83500D02*X42000Y87500D01*
X39500D02*X42000Y83500D01*
X43200Y84000D02*X43700Y83500D01*
X43200Y87000D02*Y84000D01*
Y87000D02*X43700Y87500D01*
X44700D01*
X45200Y87000D01*
Y84000D01*
X44700Y83500D02*X45200Y84000D01*
X43700Y83500D02*X44700D01*
X43200Y84500D02*X45200Y86500D01*
X46400Y87500D02*X47400Y85500D01*
X48400Y87500D01*
X47400Y85500D02*Y83500D01*
X49600Y87000D02*X50100Y87500D01*
X51100D01*
X51600Y87000D01*
X51100Y83500D02*X51600Y84000D01*
X50100Y83500D02*X51100D01*
X49600Y84000D02*X50100Y83500D01*
Y85700D02*X51100D01*
X51600Y87000D02*Y86200D01*
Y85200D02*Y84000D01*
Y85200D02*X51100Y85700D01*
X51600Y86200D02*X51100Y85700D01*
X107500Y83500D02*X110000Y87500D01*
X107500D02*X110000Y83500D01*
X111200Y86700D02*X112000Y87500D01*
Y83500D01*
X111200D02*X112700D01*
X113900Y87500D02*X114900Y85500D01*
X115900Y87500D01*
X114900Y85500D02*Y83500D01*
X117100Y87000D02*X117600Y87500D01*
X118600D01*
X119100Y87000D01*
X118600Y83500D02*X119100Y84000D01*
X117600Y83500D02*X118600D01*
X117100Y84000D02*X117600Y83500D01*
Y85700D02*X118600D01*
X119100Y87000D02*Y86200D01*
Y85200D02*Y84000D01*
Y85200D02*X118600Y85700D01*
X119100Y86200D02*X118600Y85700D01*
X107500Y151500D02*X110000Y155500D01*
X107500D02*X110000Y151500D01*
X111200Y154700D02*X112000Y155500D01*
Y151500D01*
X111200D02*X112700D01*
X113900Y155500D02*X114900Y153500D01*
X115900Y155500D01*
X114900Y153500D02*Y151500D01*
X117100Y155000D02*X117600Y155500D01*
X119100D01*
X119600Y155000D01*
Y154000D01*
X117100Y151500D02*X119600Y154000D01*
X117100Y151500D02*X119600D01*
X175500D02*X178000Y155500D01*
X175500D02*X178000Y151500D01*
X179200Y155000D02*X179700Y155500D01*
X181200D01*
X181700Y155000D01*
Y154000D01*
X179200Y151500D02*X181700Y154000D01*
X179200Y151500D02*X181700D01*
X182900Y155500D02*X183900Y153500D01*
X184900Y155500D01*
X183900Y153500D02*Y151500D01*
X186100Y155000D02*X186600Y155500D01*
X188100D01*
X188600Y155000D01*
Y154000D01*
X186100Y151500D02*X188600Y154000D01*
X186100Y151500D02*X188600D01*
X175500Y83500D02*X178000Y87500D01*
X175500D02*X178000Y83500D01*
X179200Y87000D02*X179700Y87500D01*
X181200D01*
X181700Y87000D01*
Y86000D01*
X179200Y83500D02*X181700Y86000D01*
X179200Y83500D02*X181700D01*
X182900Y87500D02*X183900Y85500D01*
X184900Y87500D01*
X183900Y85500D02*Y83500D01*
X186100Y87000D02*X186600Y87500D01*
X187600D01*
X188100Y87000D01*
X187600Y83500D02*X188100Y84000D01*
X186600Y83500D02*X187600D01*
X186100Y84000D02*X186600Y83500D01*
Y85700D02*X187600D01*
X188100Y87000D02*Y86200D01*
Y85200D02*Y84000D01*
Y85200D02*X187600Y85700D01*
X188100Y86200D02*X187600Y85700D01*
G54D175*X10500Y41500D02*X16500D01*
X25500Y32500D02*Y26500D01*
Y56500D02*Y50500D01*
X34500Y41500D02*X40500D01*
X25500Y28900D02*G75*G03X25500Y28900I0J12600D01*G01*
X70000Y86500D02*X71000D01*
X63000D02*X64000D01*
X63000D02*Y86000D01*
X71000Y86500D02*Y86000D01*
Y76000D02*Y74400D01*
X63000D02*X71000D01*
X63000Y76000D02*Y74400D01*
X70000Y86500D02*X69000Y87500D01*
X65000D02*X69000D01*
X64000Y86500D02*X65000Y87500D01*
G54D180*X73000Y87000D02*Y87001D01*
G54D175*X138000Y86500D02*X139000D01*
X131000D02*X132000D01*
X131000D02*Y86000D01*
X139000Y86500D02*Y86000D01*
Y76000D02*Y74400D01*
X131000D02*X139000D01*
X131000Y76000D02*Y74400D01*
X138000Y86500D02*X137000Y87500D01*
X133000D02*X137000D01*
X132000Y86500D02*X133000Y87500D01*
G54D180*X141000Y87000D02*Y87001D01*
G54D175*X206000Y86500D02*X207000D01*
X199000D02*X200000D01*
X199000D02*Y86000D01*
X207000Y86500D02*Y86000D01*
Y76000D02*Y74400D01*
X199000D02*X207000D01*
X199000Y76000D02*Y74400D01*
X206000Y86500D02*X205000Y87500D01*
X201000D02*X205000D01*
X200000Y86500D02*X201000Y87500D01*
G54D180*X209000Y87000D02*Y87001D01*
G54D175*X103500Y316800D02*X114500D01*
X103500Y323200D02*X114500D01*
Y316800D01*
X103500Y323200D02*Y316800D01*
X138000Y290500D02*X139000D01*
X131000D02*X132000D01*
X131000D02*Y290000D01*
X139000Y290500D02*Y290000D01*
Y280000D02*Y278400D01*
X131000D02*X139000D01*
X131000Y280000D02*Y278400D01*
X138000Y290500D02*X137000Y291500D01*
X133000D02*X137000D01*
X132000Y290500D02*X133000Y291500D01*
G54D180*X141000Y291000D02*Y291001D01*
G54D175*X206000Y222500D02*X207000D01*
X199000D02*X200000D01*
X199000D02*Y222000D01*
X207000Y222500D02*Y222000D01*
Y212000D02*Y210400D01*
X199000D02*X207000D01*
X199000Y212000D02*Y210400D01*
X206000Y222500D02*X205000Y223500D01*
X201000D02*X205000D01*
X200000Y222500D02*X201000Y223500D01*
G54D180*X209000Y223000D02*Y223001D01*
G54D175*X206000Y154500D02*X207000D01*
X199000D02*X200000D01*
X199000D02*Y154000D01*
X207000Y154500D02*Y154000D01*
Y144000D02*Y142400D01*
X199000D02*X207000D01*
X199000Y144000D02*Y142400D01*
X206000Y154500D02*X205000Y155500D01*
X201000D02*X205000D01*
X200000Y154500D02*X201000Y155500D01*
G54D180*X209000Y155000D02*Y155001D01*
G54D175*X171500Y316800D02*X182500D01*
X171500Y323200D02*X182500D01*
Y316800D01*
X171500Y323200D02*Y316800D01*
X206000Y290500D02*X207000D01*
X199000D02*X200000D01*
X199000D02*Y290000D01*
X207000Y290500D02*Y290000D01*
Y280000D02*Y278400D01*
X199000D02*X207000D01*
X199000Y280000D02*Y278400D01*
X206000Y290500D02*X205000Y291500D01*
X201000D02*X205000D01*
X200000Y290500D02*X201000Y291500D01*
G54D180*X209000Y291000D02*Y291001D01*
G54D175*X10500Y324500D02*X16500D01*
X25500Y315500D02*Y309500D01*
Y339500D02*Y333500D01*
X34500Y324500D02*X40500D01*
X25500Y311900D02*G75*G03X25500Y311900I0J12600D01*G01*
X70000Y290500D02*X71000D01*
X63000D02*X64000D01*
X63000D02*Y290000D01*
X71000Y290500D02*Y290000D01*
Y280000D02*Y278400D01*
X63000D02*X71000D01*
X63000Y280000D02*Y278400D01*
X70000Y290500D02*X69000Y291500D01*
X65000D02*X69000D01*
X64000Y290500D02*X65000Y291500D01*
G54D180*X73000Y291000D02*Y291001D01*
G54D175*X55500Y316800D02*X66500D01*
X55500Y323200D02*X66500D01*
Y316800D01*
X55500Y323200D02*Y316800D01*
X70000Y222500D02*X71000D01*
X63000D02*X64000D01*
X63000D02*Y222000D01*
X71000Y222500D02*Y222000D01*
Y212000D02*Y210400D01*
X63000D02*X71000D01*
X63000Y212000D02*Y210400D01*
X70000Y222500D02*X69000Y223500D01*
X65000D02*X69000D01*
X64000Y222500D02*X65000Y223500D01*
G54D180*X73000Y223000D02*Y223001D01*
G54D175*X138000Y222500D02*X139000D01*
X131000D02*X132000D01*
X131000D02*Y222000D01*
X139000Y222500D02*Y222000D01*
Y212000D02*Y210400D01*
X131000D02*X139000D01*
X131000Y212000D02*Y210400D01*
X138000Y222500D02*X137000Y223500D01*
X133000D02*X137000D01*
X132000Y222500D02*X133000Y223500D01*
G54D180*X141000Y223000D02*Y223001D01*
G54D175*X70000Y154500D02*X71000D01*
X63000D02*X64000D01*
X63000D02*Y154000D01*
X71000Y154500D02*Y154000D01*
Y144000D02*Y142400D01*
X63000D02*X71000D01*
X63000Y144000D02*Y142400D01*
X70000Y154500D02*X69000Y155500D01*
X65000D02*X69000D01*
X64000Y154500D02*X65000Y155500D01*
G54D180*X73000Y155000D02*Y155001D01*
G54D175*X138000Y154500D02*X139000D01*
X131000D02*X132000D01*
X131000D02*Y154000D01*
X139000Y154500D02*Y154000D01*
Y144000D02*Y142400D01*
X131000D02*X139000D01*
X131000Y144000D02*Y142400D01*
X138000Y154500D02*X137000Y155500D01*
X133000D02*X137000D01*
X132000Y154500D02*X133000Y155500D01*
G54D180*X141000Y155000D02*Y155001D01*
G54D175*X274000Y154500D02*X275000D01*
X267000D02*X268000D01*
X267000D02*Y154000D01*
X275000Y154500D02*Y154000D01*
Y144000D02*Y142400D01*
X267000D02*X275000D01*
X267000Y144000D02*Y142400D01*
X274000Y154500D02*X273000Y155500D01*
X269000D02*X273000D01*
X268000Y154500D02*X269000Y155500D01*
G54D180*X277000Y155000D02*Y155001D01*
G54D175*X274000Y86500D02*X275000D01*
X267000D02*X268000D01*
X267000D02*Y86000D01*
X275000Y86500D02*Y86000D01*
Y76000D02*Y74400D01*
X267000D02*X275000D01*
X267000Y76000D02*Y74400D01*
X274000Y86500D02*X273000Y87500D01*
X269000D02*X273000D01*
X268000Y86500D02*X269000Y87500D01*
G54D180*X277000Y87000D02*Y87001D01*
G54D175*X274000Y290500D02*X275000D01*
X267000D02*X268000D01*
X267000D02*Y290000D01*
X275000Y290500D02*Y290000D01*
Y280000D02*Y278400D01*
X267000D02*X275000D01*
X267000Y280000D02*Y278400D01*
X274000Y290500D02*X273000Y291500D01*
X269000D02*X273000D01*
X268000Y290500D02*X269000Y291500D01*
G54D180*X277000Y291000D02*Y291001D01*
G54D175*X373000Y41500D02*X379000D01*
X388000Y32500D02*Y26500D01*
Y56500D02*Y50500D01*
X397000Y41500D02*X403000D01*
X388000Y28900D02*G75*G03X388000Y28900I0J12600D01*G01*
G54D177*X389400Y59100D02*X388300Y61300D01*
X398300Y64500D01*
X400000Y64200D02*X384800Y69300D01*
Y122200D02*Y69300D01*
Y122200D02*X387200Y123300D01*
X387300Y123100D01*
X385000Y122000D01*
Y69400D01*
X400000Y64500D01*
Y64200D01*
X388800Y60500D01*
X389600Y59100D01*
X389400Y59000D01*
X388300Y61300D01*
X388500Y60900D02*X399000Y64400D01*
X382300Y63200D02*Y62500D01*
Y63200D02*X387200D01*
X382800Y64600D02*X382600Y64700D01*
X382400Y64900D01*
X382200Y65200D01*
X382100Y65500D01*
Y66200D02*Y65500D01*
Y66200D02*X382200Y66400D01*
X382400Y66700D01*
X382600Y66900D01*
X383000Y67000D01*
X383500D01*
X383800Y66900D01*
X384400Y66300D01*
Y66100D01*
X384800Y66700D01*
X385100Y67000D01*
X385400Y67100D01*
X386200D01*
X386500Y67000D01*
X386800Y66800D01*
X387000Y66600D01*
X387200Y66300D01*
Y65400D01*
X387100Y65100D01*
X386700Y64700D01*
X386400Y64500D01*
X388400Y72000D02*X388800D01*
X388400D02*X388200Y72500D01*
X388000Y73700D01*
Y74600D02*Y73700D01*
Y74600D02*X388100Y75200D01*
X388300Y75700D01*
X388600Y76100D01*
X389000Y76500D01*
X389400Y76700D01*
X390000Y76900D01*
X390700Y77000D01*
X394800D01*
Y76400D01*
X390200D02*X394800D01*
X390200D02*X389700Y76300D01*
X389300Y76100D01*
X388900Y75700D01*
X388700Y75400D01*
X388500Y75000D01*
X388400Y74500D01*
Y73900D01*
X388500Y73100D01*
X388600Y72700D01*
X388800Y72000D01*
X390800Y76200D02*Y74000D01*
X390900Y73200D01*
X391100Y72700D01*
X391200Y72500D01*
X391500Y72100D01*
X391800Y71800D01*
X392200Y71600D01*
X392700Y71500D01*
X393500D01*
X394000Y71700D01*
X394300Y71900D01*
X394600Y72200D01*
X394800Y72600D01*
X395000Y73400D01*
Y74000D02*Y73400D01*
Y74000D02*X394900Y74500D01*
X394700Y74900D01*
X394400Y75300D01*
X393700Y76000D01*
X393400Y76200D01*
X391100Y76300D02*Y74300D01*
X391200Y73900D01*
X391300Y73300D01*
X391500Y72800D01*
X391800Y72400D01*
X392300Y72100D01*
X392800Y72000D01*
X393200D01*
X393600Y72100D01*
X393900Y72300D01*
X394200Y72600D01*
X394400Y72900D01*
X394500Y73200D01*
X394600Y73600D01*
Y74100D02*Y73600D01*
Y74400D02*Y73600D01*
Y74400D02*X394500Y74800D01*
X394300Y75200D01*
X394000Y75600D01*
X393600Y75900D01*
X393200Y76100D01*
X392800Y76200D01*
X392300Y76400D01*
X388400Y101900D02*X388800D01*
X388400D02*X388200Y102400D01*
X388000Y103600D01*
Y104500D02*Y103600D01*
Y104500D02*X388100Y105100D01*
X388300Y105600D01*
X388600Y106000D01*
X389000Y106400D01*
X389400Y106600D01*
X390000Y106800D01*
X390700Y106900D01*
X394800D01*
Y106300D01*
X390200D02*X394800D01*
X390200D02*X389700Y106200D01*
X389300Y106000D01*
X388900Y105600D01*
X388700Y105300D01*
X388500Y104900D01*
X388400Y104400D01*
Y103800D01*
X388500Y103000D01*
X388600Y102600D01*
X388800Y101900D01*
X390800Y106100D02*Y103900D01*
X390900Y103100D01*
X391100Y102600D01*
X391200Y102400D01*
X391500Y102000D01*
X391800Y101700D01*
X392200Y101500D01*
X392700Y101400D01*
X393500D01*
X394000Y101600D01*
X394300Y101800D01*
X394600Y102100D01*
X394800Y102500D01*
X395000Y103300D01*
Y103900D02*Y103300D01*
Y103900D02*X394900Y104400D01*
X394700Y104800D01*
X394400Y105200D01*
X393700Y105900D01*
X393400Y106100D01*
X391100Y106200D02*Y104200D01*
X391200Y103800D01*
X391300Y103200D01*
X391500Y102700D01*
X391800Y102300D01*
X392300Y102000D01*
X392800Y101900D01*
X393200D01*
X393600Y102000D01*
X393900Y102200D01*
X394200Y102500D01*
X394400Y102800D01*
X394500Y103100D01*
X394600Y103500D01*
Y104000D02*Y103500D01*
Y104300D02*Y103500D01*
Y104300D02*X394500Y104700D01*
X394300Y105100D01*
X394000Y105500D01*
X393600Y105800D01*
X393200Y106000D01*
X392800Y106100D01*
X392300Y106300D01*
X388100Y85400D02*X395100D01*
X395500Y85300D01*
X396000Y85100D01*
X396400Y84900D01*
X396700Y84700D01*
X397000Y84400D01*
X397300Y83900D01*
X397500Y83200D01*
X397600Y82700D01*
Y82200D01*
X397500Y81400D01*
X397400Y80900D01*
X397300Y80500D01*
X396800D02*X397300D01*
X396800D02*X397000Y80900D01*
X397100Y81500D01*
X397200Y81900D01*
Y82500D02*Y81900D01*
Y82500D02*X397100Y83200D01*
X396800Y83800D01*
X396400Y84300D01*
X396100Y84500D01*
X395600Y84700D01*
X395200Y84800D01*
X394800D02*X395200D01*
X394800D02*X394500Y84900D01*
X388100D02*X394500D01*
X388100Y85400D02*Y84900D01*
X391900Y84800D02*X392800Y84700D01*
X393500Y84400D01*
X393900Y84000D01*
X394200Y83600D01*
X394400Y83000D01*
Y82100D01*
X394300Y81600D01*
X393900Y81000D01*
X393500Y80700D01*
X393000Y80400D01*
X392500Y80300D01*
X392100Y80200D01*
X390800D02*X392100D01*
X390800D02*X390100Y80300D01*
X389600Y80500D01*
X389100Y80800D01*
X388800Y81100D01*
X388600Y81400D01*
X388500Y81700D01*
X388400Y82100D01*
Y82900D02*Y82100D01*
Y82900D02*X388500Y83300D01*
X388700Y83800D01*
X389300Y84400D01*
X389600Y84500D01*
X390000Y84700D01*
X390400Y84800D01*
X390700D01*
X391100Y84900D01*
X389300Y84500D02*X388400Y83600D01*
X388200Y83300D01*
X388000Y82500D01*
Y81900D01*
X388100Y81500D01*
X388300Y81000D01*
X388600Y80600D01*
X389400Y80000D01*
X389800Y79800D01*
X390500Y79600D01*
X391200Y79500D01*
X391600D01*
X392200Y79600D01*
X392700Y79700D01*
X393300Y79900D01*
X393700Y80200D01*
X394200Y80600D01*
X394500Y81000D01*
X394700Y81400D01*
X394800Y81800D01*
Y82700D02*Y81800D01*
Y82700D02*X394700Y83100D01*
X394500Y83500D01*
X394200Y83900D01*
X393500Y84400D01*
X388100Y120600D02*X395100D01*
X395500Y120500D01*
X396000Y120300D01*
X396400Y120100D01*
X396700Y119900D01*
X397000Y119600D01*
X397300Y119100D01*
X397500Y118400D01*
X397600Y117900D01*
Y117400D01*
X397500Y116600D01*
X397400Y116100D01*
X397300Y115700D01*
X396800D02*X397300D01*
X396800D02*X397000Y116100D01*
X397100Y116700D01*
X397200Y117100D01*
Y117700D02*Y117100D01*
Y117700D02*X397100Y118400D01*
X396800Y119000D01*
X396400Y119500D01*
X396100Y119700D01*
X395600Y119900D01*
X395200Y120000D01*
X394800D02*X395200D01*
X394800D02*X394500Y120100D01*
X388100D02*X394500D01*
X388100Y120600D02*Y120100D01*
X391900Y120000D02*X392800Y119900D01*
X393500Y119600D01*
X393900Y119200D01*
X394200Y118800D01*
X394400Y118200D01*
Y117300D01*
X394300Y116800D01*
X393900Y116200D01*
X393500Y115900D01*
X393000Y115600D01*
X392500Y115500D01*
X392100Y115400D01*
X390800D02*X392100D01*
X390800D02*X390100Y115500D01*
X389600Y115700D01*
X389100Y116000D01*
X388800Y116300D01*
X388600Y116600D01*
X388500Y116900D01*
X388400Y117300D01*
Y118100D02*Y117300D01*
Y118100D02*X388500Y118500D01*
X388700Y119000D01*
X389300Y119600D01*
X389600Y119700D01*
X390000Y119900D01*
X390400Y120000D01*
X390700D01*
X391100Y120100D01*
X389300Y119700D02*X388400Y118800D01*
X388200Y118500D01*
X388000Y117700D01*
Y117100D01*
X388100Y116700D01*
X388300Y116200D01*
X388600Y115800D01*
X389400Y115200D01*
X389800Y115000D01*
X390500Y114800D01*
X391200Y114700D01*
X391600D01*
X392200Y114800D01*
X392700Y114900D01*
X393300Y115100D01*
X393700Y115400D01*
X394200Y115800D01*
X394500Y116200D01*
X394700Y116600D01*
X394800Y117000D01*
Y117900D02*Y117000D01*
Y117900D02*X394700Y118300D01*
X394500Y118700D01*
X394200Y119100D01*
X393500Y119600D01*
X388200Y88500D02*X394800D01*
Y89000D02*Y88500D01*
X388200Y89000D02*X394800D01*
X388200D02*Y88500D01*
X388000Y92100D02*X388600D01*
X388400Y91700D01*
Y91100D01*
X388500Y90800D01*
X388600Y90400D01*
X388900Y90000D01*
X389100Y89700D01*
X389400Y89500D01*
X389800Y89300D01*
X390400Y89100D01*
X391200Y89000D01*
X388000Y92100D02*Y91500D01*
X388100Y90900D01*
X388300Y90500D01*
X388700Y90000D01*
X389400Y89400D01*
X388200Y110000D02*X394800D01*
Y110500D02*Y110000D01*
X388200Y110500D02*X394800D01*
X388200D02*Y110000D01*
X388000Y113600D02*X388600D01*
X388400Y113200D01*
Y112600D01*
X388500Y112300D01*
X388600Y111900D01*
X388900Y111500D01*
X389100Y111200D01*
X389400Y111000D01*
X389800Y110800D01*
X390400Y110600D01*
X391200Y110500D01*
X388000Y113600D02*Y113000D01*
X388100Y112400D01*
X388300Y112000D01*
X388700Y111500D01*
X389400Y110900D01*
X391200Y98700D02*Y93200D01*
X390200Y98700D02*X391200D01*
X390200D02*X389700Y98500D01*
X389300Y98300D01*
X388600Y97600D01*
X388500Y97300D01*
X388400Y96900D01*
Y95900D01*
X388500Y95500D01*
X388900Y94700D01*
X389100Y94500D01*
X389500Y94200D01*
X389900Y94000D01*
X390200Y93900D01*
X391200D02*Y93200D01*
X390200Y93900D02*X391200D01*
X390300Y99200D02*X390500D01*
X390300D02*X389900Y99100D01*
X389400Y98900D01*
X388900Y98600D01*
X388500Y98200D01*
X388100Y97400D01*
X388000Y97000D01*
Y96100D01*
X388100Y95400D01*
X388400Y94700D01*
X388700Y94300D01*
X389200Y93900D01*
X389600Y93600D01*
X390000Y93400D01*
X390400Y93300D01*
X390900Y93200D01*
X391900D01*
X392700Y93300D01*
X393400Y93600D01*
X393700Y93800D01*
X394400Y94500D01*
X394600Y94900D01*
X394800Y95400D01*
X394900Y95800D01*
X395000Y96300D01*
Y97000D02*Y96300D01*
Y97000D02*X394900Y97800D01*
X394600Y99000D01*
X394100D02*X394600D01*
X394100D02*X394400Y98300D01*
X394500Y97700D01*
X394600Y96900D01*
Y96100D01*
X394400Y95400D01*
X394100Y94900D01*
X393700Y94400D01*
X393300Y94200D01*
X392800Y94000D01*
X392200Y93800D01*
X391400D02*X392200D01*
X391400Y99200D02*Y93800D01*
X390400Y99200D02*X391400D01*
G54D175*X373200Y162000D02*Y151000D01*
X366800Y162000D02*Y151000D01*
Y162000D02*X373200D01*
X366800Y151000D02*X373200D01*
G54D180*X355700Y148900D02*X364300D01*
G54D175*X365700Y150300D01*
Y167400D02*Y150300D01*
X354300Y167400D02*X365700D01*
X354300D02*Y150300D01*
X355700Y148900D01*
X368300Y145500D02*Y134500D01*
X374700Y145500D02*Y134500D01*
X368300D02*X374700D01*
X368300Y145500D02*X374700D01*
X354500Y131700D02*X365500D01*
X354500Y125300D02*X365500D01*
X354500Y131700D02*Y125300D01*
X365500Y131700D02*Y125300D01*
X353000Y143250D02*Y136750D01*
X367000D02*Y143250D01*
X353000D02*X357200D01*
X362800D02*X367000D01*
X353000Y136750D02*X353300D01*
X358900D02*X361100D01*
X366700D02*X367000D01*
X353200Y164000D02*Y153000D01*
X346800Y164000D02*Y153000D01*
Y164000D02*X353200D01*
X346800Y153000D02*X353200D01*
X274000Y222500D02*X275000D01*
X267000D02*X268000D01*
X267000D02*Y222000D01*
X275000Y222500D02*Y222000D01*
Y212000D02*Y210400D01*
X267000D02*X275000D01*
X267000Y212000D02*Y210400D01*
X274000Y222500D02*X273000Y223500D01*
X269000D02*X273000D01*
X268000Y222500D02*X269000Y223500D01*
G54D180*X277000Y223000D02*Y223001D01*
G54D175*X307500Y223800D02*X318500D01*
X307500Y230200D02*X318500D01*
Y223800D01*
X307500Y230200D02*Y223800D01*
Y216800D02*X318500D01*
X307500Y223200D02*X318500D01*
Y216800D01*
X307500Y223200D02*Y216800D01*
Y209800D02*X318500D01*
X307500Y216200D02*X318500D01*
Y209800D01*
X307500Y216200D02*Y209800D01*
X373000Y324500D02*X379000D01*
X388000Y315500D02*Y309500D01*
Y339500D02*Y333500D01*
X397000Y324500D02*X403000D01*
X388000Y311900D02*G75*G03X388000Y311900I0J12600D01*G01*
X356300Y286500D02*Y275500D01*
X362700Y286500D02*Y275500D01*
X356300D02*X362700D01*
X356300Y286500D02*X362700D01*
X360000Y315700D02*X371000D01*
X360000Y309300D02*X371000D01*
X360000Y315700D02*Y309300D01*
X371000Y315700D02*Y309300D01*
X372000Y306500D02*X392000D01*
Y306000D01*
X372000Y306500D02*Y306000D01*
Y277000D02*Y276500D01*
X392000D01*
Y277000D02*Y276500D01*
Y297000D02*Y296000D01*
Y287000D02*Y286000D01*
X372000Y287000D02*Y286000D01*
Y297000D02*Y296000D01*
X353000Y265200D02*X364000D01*
X353000Y258800D02*X364000D01*
X353000Y265200D02*Y258800D01*
X364000Y265200D02*Y258800D01*
X379700Y274000D02*Y263000D01*
X373300Y274000D02*Y263000D01*
Y274000D02*X379700D01*
X373300Y263000D02*X379700D01*
X325300Y311000D02*Y300000D01*
X331700Y311000D02*Y300000D01*
X325300D02*X331700D01*
X325300Y311000D02*X331700D01*
X239500Y316800D02*X250500D01*
X239500Y323200D02*X250500D01*
Y316800D01*
X239500Y323200D02*Y316800D01*
X316000Y257300D02*X327000D01*
X316000Y263700D02*X327000D01*
Y257300D01*
X316000Y263700D02*Y257300D01*
Y248800D02*X327000D01*
X316000Y255200D02*X327000D01*
Y248800D01*
X316000Y255200D02*Y248800D01*
X345606Y288087D02*X346394D01*
X345606Y273913D02*X346394D01*
X337535Y277654D02*Y273913D01*
X341669D01*
X350331D02*X354465D01*
X350331Y288087D02*X354465D01*
X337535D02*X341669D01*
X337535D02*Y284346D01*
X354465Y288087D02*Y284346D01*
Y277654D02*Y273913D01*
X336945Y275488D02*X337535D01*
X336945D02*Y273323D01*
X339307D01*
Y273913D02*Y273323D01*
X335700Y286500D02*Y275500D01*
X329300Y286500D02*Y275500D01*
Y286500D02*X335700D01*
X329300Y275500D02*X335700D01*
X333169Y306287D02*X341831D01*
Y304713D01*
X333169Y305697D02*X334154Y304713D01*
X341831D01*
X333169Y306287D02*Y305697D01*
X315169Y306287D02*X323831D01*
Y304713D01*
X315169Y305697D02*X316154Y304713D01*
X323831D01*
X315169Y306287D02*Y305697D01*
X328500Y191300D02*X339500D01*
X328500Y197700D02*X339500D01*
Y191300D01*
X328500Y197700D02*Y191300D01*
X307500Y202800D02*X318500D01*
X307500Y209200D02*X318500D01*
Y202800D01*
X307500Y209200D02*Y202800D01*
X315500Y157200D02*X326500D01*
X315500Y150800D02*X326500D01*
X315500Y157200D02*Y150800D01*
X326500Y157200D02*Y150800D01*
X315500Y178800D02*X326500D01*
X315500Y185200D02*X326500D01*
Y178800D01*
X315500Y185200D02*Y178800D01*
Y178200D02*X326500D01*
X315500Y171800D02*X326500D01*
X315500Y178200D02*Y171800D01*
X326500Y178200D02*Y171800D01*
X315500Y164800D02*X326500D01*
X315500Y171200D02*X326500D01*
Y164800D01*
X315500Y171200D02*Y164800D01*
Y157800D02*X326500D01*
X315500Y164200D02*X326500D01*
Y157800D01*
X315500Y164200D02*Y157800D01*
Y136200D02*X326500D01*
X315500Y129800D02*X326500D01*
X315500Y136200D02*Y129800D01*
X326500Y136200D02*Y129800D01*
X315500Y143800D02*X326500D01*
X315500Y150200D02*X326500D01*
Y143800D01*
X315500Y150200D02*Y143800D01*
Y136800D02*X326500D01*
X315500Y143200D02*X326500D01*
Y136800D01*
X315500Y143200D02*Y136800D01*
Y122800D02*X326500D01*
X315500Y129200D02*X326500D01*
Y122800D01*
X315500Y129200D02*Y122800D01*
Y115800D02*X326500D01*
X315500Y122200D02*X326500D01*
Y115800D01*
X315500Y122200D02*Y115800D01*
Y115200D02*X326500D01*
X315500Y108800D02*X326500D01*
X315500Y115200D02*Y108800D01*
X326500Y115200D02*Y108800D01*
X315500Y101800D02*X326500D01*
X315500Y108200D02*X326500D01*
Y101800D01*
X315500Y108200D02*Y101800D01*
X354800Y196000D02*Y185000D01*
X361200Y196000D02*Y185000D01*
X354800D02*X361200D01*
X354800Y196000D02*X361200D01*
X362000Y197700D02*X373000D01*
X362000Y191300D02*X373000D01*
X362000Y197700D02*Y191300D01*
X373000Y197700D02*Y191300D01*
X362000Y188700D02*X373000D01*
X362000Y182300D02*X373000D01*
X362000Y188700D02*Y182300D01*
X373000Y188700D02*Y182300D01*
X379500Y224300D02*X390500D01*
X379500Y230700D02*X390500D01*
Y224300D01*
X379500Y230700D02*Y224300D01*
X330215Y208715D02*X365885D01*
X330215Y247285D02*Y208715D01*
Y247285D02*X368785D01*
Y211615D01*
X365885Y208715D01*
X366885Y211615D02*G75*G03X366885Y211615I-1000J0D01*G01*
X379500Y231300D02*X390500D01*
X379500Y237700D02*X390500D01*
Y231300D01*
X379500Y237700D02*Y231300D01*
X380300Y217500D02*Y206500D01*
X386700Y217500D02*Y206500D01*
X380300D02*X386700D01*
X380300Y217500D02*X386700D01*
X403532Y200126D02*Y166071D01*
X402548Y168039D02*X407076D01*
X402548Y198157D02*X407076D01*
X407863Y197370D01*
Y168827D01*
X407076Y168039D01*
X392509D02*X393493D01*
X392509Y198157D02*X393493D01*
X387500Y217300D02*X398500D01*
X387500Y223700D02*X398500D01*
Y217300D01*
X387500Y223700D02*Y217300D01*
Y210800D02*X398500D01*
X387500Y217200D02*X398500D01*
Y210800D01*
X387500Y217200D02*Y210800D01*
G54D177*X75000Y83000D02*Y79000D01*
X76300Y83000D02*X77000Y82300D01*
Y79700D01*
X76300Y79000D02*X77000Y79700D01*
X74500Y79000D02*X76300D01*
X74500Y83000D02*X76300D01*
X78200Y80500D02*X80200Y83000D01*
X78200Y80500D02*X80700D01*
X80200Y83000D02*Y79000D01*
X143000Y83000D02*Y79000D01*
X144300Y83000D02*X145000Y82300D01*
Y79700D01*
X144300Y79000D02*X145000Y79700D01*
X142500Y79000D02*X144300D01*
X142500Y83000D02*X144300D01*
X146200Y79500D02*X146700Y79000D01*
X146200Y80300D02*Y79500D01*
Y80300D02*X146900Y81000D01*
X147500D01*
X148200Y80300D01*
Y79500D01*
X147700Y79000D02*X148200Y79500D01*
X146700Y79000D02*X147700D01*
X146200Y81700D02*X146900Y81000D01*
X146200Y82500D02*Y81700D01*
Y82500D02*X146700Y83000D01*
X147700D01*
X148200Y82500D01*
Y81700D01*
X147500Y81000D02*X148200Y81700D01*
X184350Y322150D02*X186350D01*
X186850Y321650D01*
Y320650D01*
X186350Y320150D02*X186850Y320650D01*
X184850Y320150D02*X186350D01*
X184850Y322150D02*Y318150D01*
X185650Y320150D02*X186850Y318150D01*
X188550D02*X190550Y322150D01*
X188050D02*X190550D01*
X143000Y287000D02*Y283000D01*
X144300Y287000D02*X145000Y286300D01*
Y283700D01*
X144300Y283000D02*X145000Y283700D01*
X142500Y283000D02*X144300D01*
X142500Y287000D02*X144300D01*
X146200D02*X148200D01*
X146200D02*Y285000D01*
X146700Y285500D01*
X147700D01*
X148200Y285000D01*
Y283500D01*
X147700Y283000D02*X148200Y283500D01*
X146700Y283000D02*X147700D01*
X146200Y283500D02*X146700Y283000D01*
X211000Y219000D02*Y215000D01*
X212300Y219000D02*X213000Y218300D01*
Y215700D01*
X212300Y215000D02*X213000Y215700D01*
X210500Y215000D02*X212300D01*
X210500Y219000D02*X212300D01*
X214200Y218200D02*X215000Y219000D01*
Y215000D01*
X214200D02*X215700D01*
X216900Y215500D02*X217400Y215000D01*
X216900Y218500D02*Y215500D01*
Y218500D02*X217400Y219000D01*
X218400D01*
X218900Y218500D01*
Y215500D01*
X218400Y215000D02*X218900Y215500D01*
X217400Y215000D02*X218400D01*
X216900Y216000D02*X218900Y218000D01*
X211000Y287000D02*Y283000D01*
X212300Y287000D02*X213000Y286300D01*
Y283700D01*
X212300Y283000D02*X213000Y283700D01*
X210500Y283000D02*X212300D01*
X210500Y287000D02*X212300D01*
X214700Y283000D02*X216200Y285000D01*
Y286500D02*Y285000D01*
X215700Y287000D02*X216200Y286500D01*
X214700Y287000D02*X215700D01*
X214200Y286500D02*X214700Y287000D01*
X214200Y286500D02*Y285500D01*
X214700Y285000D01*
X216200D01*
X75000Y287000D02*Y283000D01*
X76300Y287000D02*X77000Y286300D01*
Y283700D01*
X76300Y283000D02*X77000Y283700D01*
X74500Y283000D02*X76300D01*
X74500Y287000D02*X76300D01*
X78200Y286200D02*X79000Y287000D01*
Y283000D01*
X78200D02*X79700D01*
X116350Y322150D02*X118350D01*
X118850Y321650D01*
Y320650D01*
X118350Y320150D02*X118850Y320650D01*
X116850Y320150D02*X118350D01*
X116850Y322150D02*Y318150D01*
X117650Y320150D02*X118850Y318150D01*
X120050Y322150D02*X122050D01*
X120050D02*Y320150D01*
X120550Y320650D01*
X121550D01*
X122050Y320150D01*
Y318650D01*
X121550Y318150D02*X122050Y318650D01*
X120550Y318150D02*X121550D01*
X120050Y318650D02*X120550Y318150D01*
X68350Y322150D02*X70350D01*
X70850Y321650D01*
Y320650D01*
X70350Y320150D02*X70850Y320650D01*
X68850Y320150D02*X70350D01*
X68850Y322150D02*Y318150D01*
X69650Y320150D02*X70850Y318150D01*
X72050Y321650D02*X72550Y322150D01*
X73550D01*
X74050Y321650D01*
X73550Y318150D02*X74050Y318650D01*
X72550Y318150D02*X73550D01*
X72050Y318650D02*X72550Y318150D01*
Y320350D02*X73550D01*
X74050Y321650D02*Y320850D01*
Y319850D02*Y318650D01*
Y319850D02*X73550Y320350D01*
X74050Y320850D02*X73550Y320350D01*
X75000Y219000D02*Y215000D01*
X76300Y219000D02*X77000Y218300D01*
Y215700D01*
X76300Y215000D02*X77000Y215700D01*
X74500Y215000D02*X76300D01*
X74500Y219000D02*X76300D01*
X78200Y218500D02*X78700Y219000D01*
X80200D01*
X80700Y218500D01*
Y217500D01*
X78200Y215000D02*X80700Y217500D01*
X78200Y215000D02*X80700D01*
X143000Y219000D02*Y215000D01*
X144300Y219000D02*X145000Y218300D01*
Y215700D01*
X144300Y215000D02*X145000Y215700D01*
X142500Y215000D02*X144300D01*
X142500Y219000D02*X144300D01*
X147700D02*X148200Y218500D01*
X146700Y219000D02*X147700D01*
X146200Y218500D02*X146700Y219000D01*
X146200Y218500D02*Y215500D01*
X146700Y215000D01*
X147700Y217200D02*X148200Y216700D01*
X146200Y217200D02*X147700D01*
X146700Y215000D02*X147700D01*
X148200Y215500D01*
Y216700D02*Y215500D01*
X75000Y151000D02*Y147000D01*
X76300Y151000D02*X77000Y150300D01*
Y147700D01*
X76300Y147000D02*X77000Y147700D01*
X74500Y147000D02*X76300D01*
X74500Y151000D02*X76300D01*
X78200Y150500D02*X78700Y151000D01*
X79700D01*
X80200Y150500D01*
X79700Y147000D02*X80200Y147500D01*
X78700Y147000D02*X79700D01*
X78200Y147500D02*X78700Y147000D01*
Y149200D02*X79700D01*
X80200Y150500D02*Y149700D01*
Y148700D02*Y147500D01*
Y148700D02*X79700Y149200D01*
X80200Y149700D02*X79700Y149200D01*
X143000Y151000D02*Y147000D01*
X144300Y151000D02*X145000Y150300D01*
Y147700D01*
X144300Y147000D02*X145000Y147700D01*
X142500Y147000D02*X144300D01*
X142500Y151000D02*X144300D01*
X146700Y147000D02*X148700Y151000D01*
X146200D02*X148700D01*
X211000D02*Y147000D01*
X212300Y151000D02*X213000Y150300D01*
Y147700D01*
X212300Y147000D02*X213000Y147700D01*
X210500Y147000D02*X212300D01*
X210500Y151000D02*X212300D01*
X214200Y150200D02*X215000Y151000D01*
Y147000D01*
X214200D02*X215700D01*
X216900Y150200D02*X217700Y151000D01*
Y147000D01*
X216900D02*X218400D01*
X211000Y83000D02*Y79000D01*
X212300Y83000D02*X213000Y82300D01*
Y79700D01*
X212300Y79000D02*X213000Y79700D01*
X210500Y79000D02*X212300D01*
X210500Y83000D02*X212300D01*
X214200Y82200D02*X215000Y83000D01*
Y79000D01*
X214200D02*X215700D01*
X216900Y82500D02*X217400Y83000D01*
X218900D01*
X219400Y82500D01*
Y81500D01*
X216900Y79000D02*X219400Y81500D01*
X216900Y79000D02*X219400D01*
X393200Y226000D02*X394500D01*
X392500Y226700D02*X393200Y226000D01*
X392500Y229300D02*Y226700D01*
Y229300D02*X393200Y230000D01*
X394500D01*
X395700Y229500D02*X396200Y230000D01*
X397200D01*
X397700Y229500D01*
X397200Y226000D02*X397700Y226500D01*
X396200Y226000D02*X397200D01*
X395700Y226500D02*X396200Y226000D01*
Y228200D02*X397200D01*
X397700Y229500D02*Y228700D01*
Y227700D02*Y226500D01*
Y227700D02*X397200Y228200D01*
X397700Y228700D02*X397200Y228200D01*
X393200Y233000D02*X394500D01*
X392500Y233700D02*X393200Y233000D01*
X392500Y236300D02*Y233700D01*
Y236300D02*X393200Y237000D01*
X394500D01*
X395700Y236200D02*X396500Y237000D01*
Y233000D01*
X395700D02*X397200D01*
X398400Y233500D02*X398900Y233000D01*
X398400Y236500D02*Y233500D01*
Y236500D02*X398900Y237000D01*
X399900D01*
X400400Y236500D01*
Y233500D01*
X399900Y233000D02*X400400Y233500D01*
X398900Y233000D02*X399900D01*
X398400Y234000D02*X400400Y236000D01*
X392350Y209150D02*X394350D01*
X394850Y208650D01*
Y207650D01*
X394350Y207150D02*X394850Y207650D01*
X392850Y207150D02*X394350D01*
X392850Y209150D02*Y205150D01*
X393650Y207150D02*X394850Y205150D01*
X396050Y208350D02*X396850Y209150D01*
Y205150D01*
X396050D02*X397550D01*
X368000Y164000D02*X372000D01*
Y166000D02*Y164000D01*
X368800Y167200D02*X368000Y168000D01*
X372000D01*
Y168700D02*Y167200D01*
X359850Y177850D02*Y176550D01*
X359150Y175850D02*X359850Y176550D01*
X356550Y175850D02*X359150D01*
X356550D02*X355850Y176550D01*
Y177850D02*Y176550D01*
X356650Y179050D02*X355850Y179850D01*
X359850D01*
Y180550D02*Y179050D01*
X356650Y181750D02*X355850Y182550D01*
X359850D01*
Y183250D02*Y181750D01*
X364500Y171000D02*Y169700D01*
X363800Y169000D02*X364500Y169700D01*
X361200Y169000D02*X363800D01*
X361200D02*X360500Y169700D01*
Y171000D02*Y169700D01*
Y173700D02*X361000Y174200D01*
X360500Y173700D02*Y172700D01*
X361000Y172200D02*X360500Y172700D01*
X361000Y172200D02*X364000D01*
X364500Y172700D01*
X362300Y173700D02*X362800Y174200D01*
X362300Y173700D02*Y172200D01*
X364500Y173700D02*Y172700D01*
Y173700D02*X364000Y174200D01*
X362800D02*X364000D01*
X375550Y192650D02*X376850D01*
X374850Y193350D02*X375550Y192650D01*
X374850Y195950D02*Y193350D01*
Y195950D02*X375550Y196650D01*
X376850D01*
X378050D02*X380050D01*
X378050D02*Y194650D01*
X378550Y195150D01*
X379550D01*
X380050Y194650D01*
Y193150D01*
X379550Y192650D02*X380050Y193150D01*
X378550Y192650D02*X379550D01*
X378050Y193150D02*X378550Y192650D01*
X370000Y207500D02*Y204000D01*
X370500Y203500D01*
X371500D01*
X372000Y204000D01*
Y207500D02*Y204000D01*
X373200Y206700D02*X374000Y207500D01*
Y203500D01*
X373200D02*X374700D01*
X382850Y201850D02*Y200550D01*
X382150Y199850D02*X382850Y200550D01*
X379550Y199850D02*X382150D01*
X379550D02*X378850Y200550D01*
Y201850D02*Y200550D01*
X382850Y203550D02*X380850Y205050D01*
X379350D02*X380850D01*
X378850Y204550D02*X379350Y205050D01*
X378850Y204550D02*Y203550D01*
X379350Y203050D02*X378850Y203550D01*
X379350Y203050D02*X380350D01*
X380850Y203550D01*
Y205050D02*Y203550D01*
X372700Y337000D02*X373500D01*
Y333500D01*
X373000Y333000D02*X373500Y333500D01*
X372500Y333000D02*X373000D01*
X372000Y333500D02*X372500Y333000D01*
X372000Y334000D02*Y333500D01*
X374700Y336500D02*X375200Y337000D01*
X376200D01*
X376700Y336500D01*
X376200Y333000D02*X376700Y333500D01*
X375200Y333000D02*X376200D01*
X374700Y333500D02*X375200Y333000D01*
Y335200D02*X376200D01*
X376700Y336500D02*Y335700D01*
Y334700D02*Y333500D01*
Y334700D02*X376200Y335200D01*
X376700Y335700D02*X376200Y335200D01*
X379350Y222650D02*X381350D01*
X381850Y222150D01*
Y221150D01*
X381350Y220650D02*X381850Y221150D01*
X379850Y220650D02*X381350D01*
X379850Y222650D02*Y218650D01*
X380650Y220650D02*X381850Y218650D01*
X383050Y222150D02*X383550Y222650D01*
X385050D01*
X385550Y222150D01*
Y221150D01*
X383050Y218650D02*X385550Y221150D01*
X383050Y218650D02*X385550D01*
X390800Y158500D02*Y157700D01*
Y158500D02*X394300D01*
X394800Y158000D02*X394300Y158500D01*
X394800Y158000D02*Y157500D01*
X394300Y157000D02*X394800Y157500D01*
X393800Y157000D02*X394300D01*
X391600Y159700D02*X390800Y160500D01*
X394800D01*
Y161200D02*Y159700D01*
X309000Y262500D02*Y258500D01*
X311000D01*
X312200Y262000D02*X312700Y262500D01*
X313700D01*
X314200Y262000D01*
X313700Y258500D02*X314200Y259000D01*
X312700Y258500D02*X313700D01*
X312200Y259000D02*X312700Y258500D01*
Y260700D02*X313700D01*
X314200Y262000D02*Y261200D01*
Y260200D02*Y259000D01*
Y260200D02*X313700Y260700D01*
X314200Y261200D02*X313700Y260700D01*
X309200Y250000D02*X310500D01*
X308500Y250700D02*X309200Y250000D01*
X308500Y253300D02*Y250700D01*
Y253300D02*X309200Y254000D01*
X310500D01*
X311700Y251500D02*X313700Y254000D01*
X311700Y251500D02*X314200D01*
X313700Y254000D02*Y250000D01*
X343500Y290000D02*X346000Y294000D01*
X343500D02*X346000Y290000D01*
X347200Y293200D02*X348000Y294000D01*
Y290000D01*
X347200D02*X348700D01*
X279000Y287000D02*Y283000D01*
X280300Y287000D02*X281000Y286300D01*
Y283700D01*
X280300Y283000D02*X281000Y283700D01*
X278500Y283000D02*X280300D01*
X278500Y287000D02*X280300D01*
X282200Y286200D02*X283000Y287000D01*
Y283000D01*
X282200D02*X283700D01*
X284900Y286500D02*X285400Y287000D01*
X286400D01*
X286900Y286500D01*
X286400Y283000D02*X286900Y283500D01*
X285400Y283000D02*X286400D01*
X284900Y283500D02*X285400Y283000D01*
Y285200D02*X286400D01*
X286900Y286500D02*Y285700D01*
Y284700D02*Y283500D01*
Y284700D02*X286400Y285200D01*
X286900Y285700D02*X286400Y285200D01*
X279000Y219000D02*Y215000D01*
X280300Y219000D02*X281000Y218300D01*
Y215700D01*
X280300Y215000D02*X281000Y215700D01*
X278500Y215000D02*X280300D01*
X278500Y219000D02*X280300D01*
X282200Y218200D02*X283000Y219000D01*
Y215000D01*
X282200D02*X283700D01*
X284900Y216500D02*X286900Y219000D01*
X284900Y216500D02*X287400D01*
X286900Y219000D02*Y215000D01*
X252350Y322150D02*X254350D01*
X254850Y321650D01*
Y320650D01*
X254350Y320150D02*X254850Y320650D01*
X252850Y320150D02*X254350D01*
X252850Y322150D02*Y318150D01*
X253650Y320150D02*X254850Y318150D01*
X256550D02*X258050Y320150D01*
Y321650D02*Y320150D01*
X257550Y322150D02*X258050Y321650D01*
X256550Y322150D02*X257550D01*
X256050Y321650D02*X256550Y322150D01*
X256050Y321650D02*Y320650D01*
X256550Y320150D01*
X258050D01*
X335358Y313941D02*X338858D01*
X339358Y314441D01*
Y315441D02*Y314441D01*
Y315441D02*X338858Y315941D01*
X335358D02*X338858D01*
X335858Y317141D02*X335358Y317641D01*
Y318641D02*Y317641D01*
Y318641D02*X335858Y319141D01*
X339358Y318641D02*X338858Y319141D01*
X339358Y318641D02*Y317641D01*
X338858Y317141D02*X339358Y317641D01*
X337158Y318641D02*Y317641D01*
X335858Y319141D02*X336658D01*
X337658D02*X338858D01*
X337658D02*X337158Y318641D01*
X336658Y319141D02*X337158Y318641D01*
X328350Y142150D02*X330350D01*
X330850Y141650D01*
Y140650D01*
X330350Y140150D02*X330850Y140650D01*
X328850Y140150D02*X330350D01*
X328850Y142150D02*Y138150D01*
X329650Y140150D02*X330850Y138150D01*
X332050Y141350D02*X332850Y142150D01*
Y138150D01*
X332050D02*X333550D01*
X334750Y141350D02*X335550Y142150D01*
Y138150D01*
X334750D02*X336250D01*
X328350Y127650D02*X330350D01*
X330850Y127150D01*
Y126150D01*
X330350Y125650D02*X330850Y126150D01*
X328850Y125650D02*X330350D01*
X328850Y127650D02*Y123650D01*
X329650Y125650D02*X330850Y123650D01*
X332050Y126850D02*X332850Y127650D01*
Y123650D01*
X332050D02*X333550D01*
X334750Y127150D02*X335250Y127650D01*
X336750D01*
X337250Y127150D01*
Y126150D01*
X334750Y123650D02*X337250Y126150D01*
X334750Y123650D02*X337250D01*
X328350Y121150D02*X330350D01*
X330850Y120650D01*
Y119650D01*
X330350Y119150D02*X330850Y119650D01*
X328850Y119150D02*X330350D01*
X328850Y121150D02*Y117150D01*
X329650Y119150D02*X330850Y117150D01*
X332050Y120350D02*X332850Y121150D01*
Y117150D01*
X332050D02*X333550D01*
X334750Y120650D02*X335250Y121150D01*
X336250D01*
X336750Y120650D01*
X336250Y117150D02*X336750Y117650D01*
X335250Y117150D02*X336250D01*
X334750Y117650D02*X335250Y117150D01*
Y119350D02*X336250D01*
X336750Y120650D02*Y119850D01*
Y118850D02*Y117650D01*
Y118850D02*X336250Y119350D01*
X336750Y119850D02*X336250Y119350D01*
X317500Y314000D02*X321000D01*
X321500Y314500D01*
Y315500D02*Y314500D01*
Y315500D02*X321000Y316000D01*
X317500D02*X321000D01*
X318000Y317200D02*X317500Y317700D01*
Y319200D02*Y317700D01*
Y319200D02*X318000Y319700D01*
X319000D01*
X321500Y317200D02*X319000Y319700D01*
X321500D02*Y317200D01*
X330350Y315850D02*Y314550D01*
X329650Y313850D02*X330350Y314550D01*
X327050Y313850D02*X329650D01*
X327050D02*X326350Y314550D01*
Y315850D02*Y314550D01*
X326850Y317050D02*X326350Y317550D01*
Y318550D02*Y317550D01*
Y318550D02*X326850Y319050D01*
X330350Y318550D02*X329850Y319050D01*
X330350Y318550D02*Y317550D01*
X329850Y317050D02*X330350Y317550D01*
X328150Y318550D02*Y317550D01*
X326850Y319050D02*X327650D01*
X328650D02*X329850D01*
X328650D02*X328150Y318550D01*
X327650Y319050D02*X328150Y318550D01*
X326850Y320250D02*X326350Y320750D01*
Y322250D02*Y320750D01*
Y322250D02*X326850Y322750D01*
X327850D01*
X330350Y320250D02*X327850Y322750D01*
X330350D02*Y320250D01*
X279000Y151000D02*Y147000D01*
X280300Y151000D02*X281000Y150300D01*
Y147700D01*
X280300Y147000D02*X281000Y147700D01*
X278500Y147000D02*X280300D01*
X278500Y151000D02*X280300D01*
X282200Y150200D02*X283000Y151000D01*
Y147000D01*
X282200D02*X283700D01*
X284900Y151000D02*X286900D01*
X284900D02*Y149000D01*
X285400Y149500D01*
X286400D01*
X286900Y149000D01*
Y147500D01*
X286400Y147000D02*X286900Y147500D01*
X285400Y147000D02*X286400D01*
X284900Y147500D02*X285400Y147000D01*
X279000Y83000D02*Y79000D01*
X280300Y83000D02*X281000Y82300D01*
Y79700D01*
X280300Y79000D02*X281000Y79700D01*
X278500Y79000D02*X280300D01*
X278500Y83000D02*X280300D01*
X282200Y82200D02*X283000Y83000D01*
Y79000D01*
X282200D02*X283700D01*
X286400Y83000D02*X286900Y82500D01*
X285400Y83000D02*X286400D01*
X284900Y82500D02*X285400Y83000D01*
X284900Y82500D02*Y79500D01*
X285400Y79000D01*
X286400Y81200D02*X286900Y80700D01*
X284900Y81200D02*X286400D01*
X285400Y79000D02*X286400D01*
X286900Y79500D01*
Y80700D02*Y79500D01*
X329050Y110150D02*X330350D01*
X328350Y110850D02*X329050Y110150D01*
X328350Y113450D02*Y110850D01*
Y113450D02*X329050Y114150D01*
X330350D01*
X331550Y113350D02*X332350Y114150D01*
Y110150D01*
X331550D02*X333050D01*
X334250Y114150D02*X336250D01*
X334250D02*Y112150D01*
X334750Y112650D01*
X335750D01*
X336250Y112150D01*
Y110650D01*
X335750Y110150D02*X336250Y110650D01*
X334750Y110150D02*X335750D01*
X334250Y110650D02*X334750Y110150D01*
X328350Y106650D02*X330350D01*
X330850Y106150D01*
Y105150D01*
X330350Y104650D02*X330850Y105150D01*
X328850Y104650D02*X330350D01*
X328850Y106650D02*Y102650D01*
X329650Y104650D02*X330850Y102650D01*
X332050Y105850D02*X332850Y106650D01*
Y102650D01*
X332050D02*X333550D01*
X334750Y104150D02*X336750Y106650D01*
X334750Y104150D02*X337250D01*
X336750Y106650D02*Y102650D01*
X361350Y290350D02*Y289050D01*
X360650Y288350D02*X361350Y289050D01*
X358050Y288350D02*X360650D01*
X358050D02*X357350Y289050D01*
Y290350D02*Y289050D01*
X357850Y291550D02*X357350Y292050D01*
Y293550D02*Y292050D01*
Y293550D02*X357850Y294050D01*
X358850D01*
X361350Y291550D02*X358850Y294050D01*
X361350D02*Y291550D01*
X366550Y260150D02*X367850D01*
X365850Y260850D02*X366550Y260150D01*
X365850Y263450D02*Y260850D01*
Y263450D02*X366550Y264150D01*
X367850D01*
X369550Y260150D02*X371550Y264150D01*
X369050D02*X371550D01*
X348850Y312150D02*X350850D01*
X351350Y311650D01*
Y310650D01*
X350850Y310150D02*X351350Y310650D01*
X349350Y310150D02*X350850D01*
X349350Y312150D02*Y308150D01*
X350150Y310150D02*X351350Y308150D01*
X352550Y311650D02*X353050Y312150D01*
X354550D01*
X355050Y311650D01*
Y310650D01*
X352550Y308150D02*X355050Y310650D01*
X352550Y308150D02*X355050D01*
X356250Y308650D02*X356750Y308150D01*
X356250Y311650D02*Y308650D01*
Y311650D02*X356750Y312150D01*
X357750D01*
X358250Y311650D01*
Y308650D01*
X357750Y308150D02*X358250Y308650D01*
X356750Y308150D02*X357750D01*
X356250Y309150D02*X358250Y311150D01*
X374594Y254850D02*Y252850D01*
Y254850D02*X375094Y255350D01*
X376094D01*
X376594Y254850D02*X376094Y255350D01*
X376594Y254850D02*Y253350D01*
X374594D02*X378594D01*
X376594Y254150D02*X378594Y255350D01*
X375394Y256550D02*X374594Y257350D01*
X378594D01*
Y258050D02*Y256550D01*
Y259750D02*X376594Y261250D01*
X375094D02*X376594D01*
X374594Y260750D02*X375094Y261250D01*
X374594Y260750D02*Y259750D01*
X375094Y259250D02*X374594Y259750D01*
X375094Y259250D02*X376094D01*
X376594Y259750D01*
Y261250D02*Y259750D01*
X334500Y290500D02*Y289200D01*
X333800Y288500D02*X334500Y289200D01*
X331200Y288500D02*X333800D01*
X331200D02*X330500Y289200D01*
Y290500D02*Y289200D01*
X331300Y291700D02*X330500Y292500D01*
X334500D01*
Y293200D02*Y291700D01*
X297000Y229000D02*X299000D01*
X299500Y228500D01*
Y227500D01*
X299000Y227000D02*X299500Y227500D01*
X297500Y227000D02*X299000D01*
X297500Y229000D02*Y225000D01*
X298300Y227000D02*X299500Y225000D01*
X300700Y228200D02*X301500Y229000D01*
Y225000D01*
X300700D02*X302200D01*
X303400Y229000D02*X305400D01*
X303400D02*Y227000D01*
X303900Y227500D01*
X304900D01*
X305400Y227000D01*
Y225500D01*
X304900Y225000D02*X305400Y225500D01*
X303900Y225000D02*X304900D01*
X303400Y225500D02*X303900Y225000D01*
X297000Y222000D02*X299000D01*
X299500Y221500D01*
Y220500D01*
X299000Y220000D02*X299500Y220500D01*
X297500Y220000D02*X299000D01*
X297500Y222000D02*Y218000D01*
X298300Y220000D02*X299500Y218000D01*
X300700Y221200D02*X301500Y222000D01*
Y218000D01*
X300700D02*X302200D01*
X304900Y222000D02*X305400Y221500D01*
X303900Y222000D02*X304900D01*
X303400Y221500D02*X303900Y222000D01*
X303400Y221500D02*Y218500D01*
X303900Y218000D01*
X304900Y220200D02*X305400Y219700D01*
X303400Y220200D02*X304900D01*
X303900Y218000D02*X304900D01*
X305400Y218500D01*
Y219700D02*Y218500D01*
X297000Y208000D02*X299000D01*
X299500Y207500D01*
Y206500D01*
X299000Y206000D02*X299500Y206500D01*
X297500Y206000D02*X299000D01*
X297500Y208000D02*Y204000D01*
X298300Y206000D02*X299500Y204000D01*
X300700Y207200D02*X301500Y208000D01*
Y204000D01*
X300700D02*X302200D01*
X303900D02*X305900Y208000D01*
X303400D02*X305900D01*
X297000Y215000D02*X299000D01*
X299500Y214500D01*
Y213500D01*
X299000Y213000D02*X299500Y213500D01*
X297500Y213000D02*X299000D01*
X297500Y215000D02*Y211000D01*
X298300Y213000D02*X299500Y211000D01*
X300700Y214200D02*X301500Y215000D01*
Y211000D01*
X300700D02*X302200D01*
X303400Y211500D02*X303900Y211000D01*
X303400Y212300D02*Y211500D01*
Y212300D02*X304100Y213000D01*
X304700D01*
X305400Y212300D01*
Y211500D01*
X304900Y211000D02*X305400Y211500D01*
X303900Y211000D02*X304900D01*
X303400Y213700D02*X304100Y213000D01*
X303400Y214500D02*Y213700D01*
Y214500D02*X303900Y215000D01*
X304900D01*
X305400Y214500D01*
Y213700D01*
X304700Y213000D02*X305400Y213700D01*
X374000Y310000D02*Y309200D01*
Y310000D02*X377500D01*
X378000Y309500D02*X377500Y310000D01*
X378000Y309500D02*Y309000D01*
X377500Y308500D02*X378000Y309000D01*
X377000Y308500D02*X377500D01*
X374500Y311200D02*X374000Y311700D01*
Y313200D02*Y311700D01*
Y313200D02*X374500Y313700D01*
X375500D01*
X378000Y311200D02*X375500Y313700D01*
X378000D02*Y311200D01*
X374850Y187650D02*Y183650D01*
X376850D01*
X378050Y187150D02*X378550Y187650D01*
X380050D01*
X380550Y187150D01*
Y186150D01*
X378050Y183650D02*X380550Y186150D01*
X378050Y183650D02*X380550D01*
X322200Y192500D02*X323500D01*
X321500Y193200D02*X322200Y192500D01*
X321500Y195800D02*Y193200D01*
Y195800D02*X322200Y196500D01*
X323500D01*
X324700Y193000D02*X325200Y192500D01*
X324700Y193800D02*Y193000D01*
Y193800D02*X325400Y194500D01*
X326000D01*
X326700Y193800D01*
Y193000D01*
X326200Y192500D02*X326700Y193000D01*
X325200Y192500D02*X326200D01*
X324700Y195200D02*X325400Y194500D01*
X324700Y196000D02*Y195200D01*
Y196000D02*X325200Y196500D01*
X326200D01*
X326700Y196000D01*
Y195200D01*
X326000Y194500D02*X326700Y195200D01*
X328350Y184150D02*X330350D01*
X330850Y183650D01*
Y182650D01*
X330350Y182150D02*X330850Y182650D01*
X328850Y182150D02*X330350D01*
X328850Y184150D02*Y180150D01*
X329650Y182150D02*X330850Y180150D01*
X332050Y181650D02*X334050Y184150D01*
X332050Y181650D02*X334550D01*
X334050Y184150D02*Y180150D01*
X329050Y173150D02*X330350D01*
X328350Y173850D02*X329050Y173150D01*
X328350Y176450D02*Y173850D01*
Y176450D02*X329050Y177150D01*
X330350D01*
X331550Y176350D02*X332350Y177150D01*
Y173150D01*
X331550D02*X333050D01*
X334250Y176650D02*X334750Y177150D01*
X336250D01*
X336750Y176650D01*
Y175650D01*
X334250Y173150D02*X336750Y175650D01*
X334250Y173150D02*X336750D01*
X376500Y137000D02*Y136200D01*
Y137000D02*X380000D01*
X380500Y136500D02*X380000Y137000D01*
X380500Y136500D02*Y136000D01*
X380000Y135500D02*X380500Y136000D01*
X379500Y135500D02*X380000D01*
X376500Y138700D02*X380500D01*
X376500Y140200D02*Y138200D01*
Y140200D02*X377000Y140700D01*
X378000D01*
X378500Y140200D02*X378000Y140700D01*
X378500Y140200D02*Y138700D01*
X377300Y141900D02*X376500Y142700D01*
X380500D01*
Y143400D02*Y141900D01*
X367980Y127150D02*X369150D01*
X367350Y127780D02*X367980Y127150D01*
X367350Y130120D02*Y127780D01*
Y130120D02*X367980Y130750D01*
X369150D01*
X370230Y130300D02*X370680Y130750D01*
X371580D01*
X372030Y130300D01*
X371580Y127150D02*X372030Y127600D01*
X370680Y127150D02*X371580D01*
X370230Y127600D02*X370680Y127150D01*
Y129130D02*X371580D01*
X372030Y130300D02*Y129580D01*
Y128680D02*Y127600D01*
Y128680D02*X371580Y129130D01*
X372030Y129580D02*X371580Y129130D01*
X373110Y130300D02*X373560Y130750D01*
X374460D01*
X374910Y130300D01*
X374460Y127150D02*X374910Y127600D01*
X373560Y127150D02*X374460D01*
X373110Y127600D02*X373560Y127150D01*
Y129130D02*X374460D01*
X374910Y130300D02*Y129580D01*
Y128680D02*Y127600D01*
Y128680D02*X374460Y129130D01*
X374910Y129580D02*X374460Y129130D01*
X345500Y142000D02*Y138500D01*
X346000Y138000D01*
X347000D01*
X347500Y138500D01*
Y142000D02*Y138500D01*
X348700Y139500D02*X350700Y142000D01*
X348700Y139500D02*X351200D01*
X350700Y142000D02*Y138000D01*
X329050Y152150D02*X330350D01*
X328350Y152850D02*X329050Y152150D01*
X328350Y155450D02*Y152850D01*
Y155450D02*X329050Y156150D01*
X330350D01*
X331550Y155350D02*X332350Y156150D01*
Y152150D01*
X331550D02*X333050D01*
X334250Y155650D02*X334750Y156150D01*
X335750D01*
X336250Y155650D01*
X335750Y152150D02*X336250Y152650D01*
X334750Y152150D02*X335750D01*
X334250Y152650D02*X334750Y152150D01*
Y154350D02*X335750D01*
X336250Y155650D02*Y154850D01*
Y153850D02*Y152650D01*
Y153850D02*X335750Y154350D01*
X336250Y154850D02*X335750Y154350D01*
X329050Y131150D02*X330350D01*
X328350Y131850D02*X329050Y131150D01*
X328350Y134450D02*Y131850D01*
Y134450D02*X329050Y135150D01*
X330350D01*
X331550Y134350D02*X332350Y135150D01*
Y131150D01*
X331550D02*X333050D01*
X334250Y132650D02*X336250Y135150D01*
X334250Y132650D02*X336750D01*
X336250Y135150D02*Y131150D01*
X328350Y169650D02*X330350D01*
X330850Y169150D01*
Y168150D01*
X330350Y167650D02*X330850Y168150D01*
X328850Y167650D02*X330350D01*
X328850Y169650D02*Y165650D01*
X329650Y167650D02*X330850Y165650D01*
X333550Y169650D02*X334050Y169150D01*
X332550Y169650D02*X333550D01*
X332050Y169150D02*X332550Y169650D01*
X332050Y169150D02*Y166150D01*
X332550Y165650D01*
X333550Y167850D02*X334050Y167350D01*
X332050Y167850D02*X333550D01*
X332550Y165650D02*X333550D01*
X334050Y166150D01*
Y167350D02*Y166150D01*
X328350Y162650D02*X330350D01*
X330850Y162150D01*
Y161150D01*
X330350Y160650D02*X330850Y161150D01*
X328850Y160650D02*X330350D01*
X328850Y162650D02*Y158650D01*
X329650Y160650D02*X330850Y158650D01*
X332050Y159150D02*X332550Y158650D01*
X332050Y159950D02*Y159150D01*
Y159950D02*X332750Y160650D01*
X333350D01*
X334050Y159950D01*
Y159150D01*
X333550Y158650D02*X334050Y159150D01*
X332550Y158650D02*X333550D01*
X332050Y161350D02*X332750Y160650D01*
X332050Y162150D02*Y161350D01*
Y162150D02*X332550Y162650D01*
X333550D01*
X334050Y162150D01*
Y161350D01*
X333350Y160650D02*X334050Y161350D01*
X328350Y149150D02*X330350D01*
X330850Y148650D01*
Y147650D01*
X330350Y147150D02*X330850Y147650D01*
X328850Y147150D02*X330350D01*
X328850Y149150D02*Y145150D01*
X329650Y147150D02*X330850Y145150D01*
X332050Y148350D02*X332850Y149150D01*
Y145150D01*
X332050D02*X333550D01*
X334750Y145650D02*X335250Y145150D01*
X334750Y148650D02*Y145650D01*
Y148650D02*X335250Y149150D01*
X336250D01*
X336750Y148650D01*
Y145650D01*
X336250Y145150D02*X336750Y145650D01*
X335250Y145150D02*X336250D01*
X334750Y146150D02*X336750Y148150D01*
X351850Y167850D02*Y166550D01*
X351150Y165850D02*X351850Y166550D01*
X348550Y165850D02*X351150D01*
X348550D02*X347850Y166550D01*
Y167850D02*Y166550D01*
X348350Y169050D02*X347850Y169550D01*
Y170550D02*Y169550D01*
Y170550D02*X348350Y171050D01*
X351850Y170550D02*X351350Y171050D01*
X351850Y170550D02*Y169550D01*
X351350Y169050D02*X351850Y169550D01*
X349650Y170550D02*Y169550D01*
X348350Y171050D02*X349150D01*
X350150D02*X351350D01*
X350150D02*X349650Y170550D01*
X349150Y171050D02*X349650Y170550D01*
X350350Y172250D02*X347850Y174250D01*
X350350Y174750D02*Y172250D01*
X347850Y174250D02*X351850D01*
M02*
