M48
INCH
T153C0.012
T152C0.079
T151C0.126
%
T153
X036450Y019100
X035350Y018350
X036000Y016800
X036000Y014850
X038900Y013800
X038200Y015700
X039750Y010050
X040000Y012850
X040000Y020450
X035800Y021850
X035300Y029850
X035600Y027150
X038650Y028150
X038200Y023850
X037950Y021500
X038000Y020900
X036750Y027300
X036900Y021200
X032450Y025550
X036150Y026650
X035200Y026200
X032900Y026050
X035500Y027800
X035350Y031600
X035700Y032450
X033700Y028400
X031800Y028450
X033200Y033150
X031950Y031300
X032850Y031300
X033750Y031300
X034600Y031300
X036700Y032450
X029100Y026500
X031700Y026900
X031700Y027300
X031950Y029800
X031650Y029500
X032850Y029850
X033450Y029500
X033750Y029800
X038150Y018850
X037500Y025850
X037250Y026650
X037400Y020000
X039300Y020450
X038800Y023100
X039250Y024400
X039900Y031000
X039100Y027250
X038900Y026000
X039800Y030150
X033700Y019100
X033100Y019100
X034000Y021250
X033250Y018600
X034350Y023550
X031450Y010500
X036450Y017600
X037300Y007100
X037700Y011750
X034950Y004900
X034950Y008400
X035600Y013200
X035150Y011700
X031450Y016800
X031450Y014700
X031450Y012600
X029100Y019700
X029850Y021300
X030750Y019300
X031000Y019950
X025100Y008100
X023200Y018650
X023700Y012150
X018300Y014900
X022300Y014900
X025100Y014900
X008700Y014900
X011500Y014900
X011500Y008100
X015500Y008100
X015500Y014900
X010100Y012150
X018300Y008100
X022300Y008100
X029100Y014000
X016900Y012150
X008700Y021700
X011500Y021700
X015500Y021700
X018300Y021700
X022300Y021700
X025100Y021700
X008700Y028500
X010100Y032000
X007300Y032500
X006700Y032900
X011500Y028500
X003300Y029950
X015500Y028500
X018300Y028500
X016900Y032000
X016350Y024950
X016900Y025750
X016900Y018950
X022300Y028500
X025100Y028500
X023700Y032000
X023700Y025750
X023700Y019000
X009550Y025250
X003300Y025750
X010100Y025750
X003300Y018950
X010100Y018950
X029100Y010100
X032300Y006800
X032500Y004050
X008700Y008100
X003300Y012150
X023700Y005350
X016900Y005350
X010100Y005350
X003300Y005700
T152
X027100Y021700
X027100Y014900
X027100Y008100
X027100Y028500
X006700Y014900
X013500Y014900
X006700Y008100
X013500Y008100
X006700Y021700
X006700Y028500
X020300Y014900
X013500Y021700
X020300Y021700
X013500Y028500
X020300Y028500
X020300Y008100
T151
X038800Y004150
X038800Y032450
X002550Y004150
X002550Y032450
M30
