G04 start of page 9 for group -4078 idx -4078 *
G04 Title: Nomech, bottomsilk *
G04 Creator: pcb 20110918 *
G04 CreationDate: Sun 08 Sep 2013 10:57:53 PM GMT UTC *
G04 For: bertho *
G04 Format: Gerber/RS-274X *
G04 PCB-Dimensions: 430000 350000 *
G04 PCB-Coordinate-Origin: lower left *
%MOIN*%
%FSLAX25Y25*%
%LNBOTTOMSILK*%
%ADD184C,0.0070*%
%ADD183C,0.0262*%
%ADD182C,0.0210*%
%ADD181C,0.0080*%
G54D181*X20000Y340000D02*X393500D01*
X403500Y330000D02*Y36000D01*
X393500Y26000D02*X20000D01*
X10000Y36000D02*Y330000D01*
Y36000D02*G75*G03X20000Y26000I10000J0D01*G01*
X393500D02*G75*G03X403500Y36000I0J10000D01*G01*
Y330000D02*G75*G03X393500Y340000I-10000J0D01*G01*
X20000D02*G75*G03X10000Y330000I0J-10000D01*G01*
G54D182*X348250Y39500D02*X369250D01*
X348250Y52625D01*
X369250D01*
X350875Y58925D02*X356125D01*
X358750Y61550D01*
Y66800D01*
X356125Y69425D01*
X350875D02*X356125D01*
X348250Y66800D02*X350875Y69425D01*
X348250Y61550D02*Y66800D01*
X350875Y58925D02*X348250Y61550D01*
Y75725D02*X369250D01*
X358750Y83600D01*
X369250Y91475D01*
X348250D02*X369250D01*
X348250Y100400D02*Y108275D01*
X350875Y97775D02*X348250Y100400D01*
X350875Y97775D02*X356125D01*
X358750Y100400D01*
Y105650D01*
X356125Y108275D01*
X353500Y97775D02*Y108275D01*
X356125D01*
X358750Y117200D02*Y125075D01*
X356125Y114575D02*X358750Y117200D01*
X350875Y114575D02*X356125D01*
X350875D02*X348250Y117200D01*
Y125075D01*
Y131375D02*X369250D01*
X356125D02*X358750Y134000D01*
Y139250D01*
X356125Y141875D01*
X348250D02*X356125D01*
X348250Y157625D02*X369250D01*
X358750Y165500D01*
X369250Y173375D01*
X348250D02*X369250D01*
G54D183*X363475Y179675D02*X364000D01*
G54D182*X348250D02*X356125D01*
X348250Y187550D02*X356125D01*
X358750Y190175D01*
Y192800D01*
X356125Y195425D01*
X348250D02*X356125D01*
X358750Y184925D02*X356125Y187550D01*
G54D183*X363475Y201725D02*X364000D01*
G54D182*X348250D02*X356125D01*
G54D181*X334500Y38500D02*Y42500D01*
X335500Y43500D01*
X337900D01*
X338900Y42500D02*X337900Y43500D01*
X338900Y39500D02*Y42500D01*
X334500Y39500D02*X342500D01*
Y38500D02*Y42500D01*
X341500Y43500D01*
X339900D02*X341500D01*
X338900Y42500D02*X339900Y43500D01*
X335500Y45900D02*X338500D01*
X335500D02*X334500Y46900D01*
X332500Y49900D02*X338500D01*
X331500Y48900D02*X332500Y49900D01*
X331500Y46900D02*Y48900D01*
X332500Y45900D02*X331500Y46900D01*
X334500D02*Y48900D01*
X335500Y49900D01*
X334500Y55900D02*X342500D01*
X337500D02*X334500Y58900D01*
X337500Y55900D02*X339500Y57900D01*
X338500Y64300D02*X337500Y65300D01*
X338500Y62300D02*Y64300D01*
X337500Y61300D02*X338500Y62300D01*
X335500Y61300D02*X337500D01*
X335500D02*X334500Y62300D01*
X335500Y65300D02*X338500D01*
X335500D02*X334500Y66300D01*
Y62300D02*Y64300D01*
X335500Y65300D01*
X334500Y69700D02*Y72700D01*
X335500Y73700D01*
X336500Y72700D02*X335500Y73700D01*
X336500Y69700D02*Y72700D01*
X337500Y68700D02*X336500Y69700D01*
X337500Y68700D02*X338500Y69700D01*
Y72700D01*
X337500Y73700D01*
X335500Y68700D02*X334500Y69700D01*
Y76100D02*X342500D01*
X335500D02*X334500Y77100D01*
Y79100D01*
X335500Y80100D01*
X337500D01*
X338500Y79100D02*X337500Y80100D01*
X338500Y77100D02*Y79100D01*
X337500Y76100D02*X338500Y77100D01*
Y85500D02*X337500Y86500D01*
X338500Y83500D02*Y85500D01*
X337500Y82500D02*X338500Y83500D01*
X335500Y82500D02*X337500D01*
X335500D02*X334500Y83500D01*
X335500Y86500D02*X338500D01*
X335500D02*X334500Y87500D01*
Y83500D02*Y85500D01*
X335500Y86500D01*
X334500Y89900D02*X342500D01*
X337500D02*X338500Y90900D01*
Y92900D01*
X337500Y93900D01*
X334500D02*X337500D01*
G54D184*X322500Y39340D02*Y40900D01*
X323340Y38500D02*X322500Y39340D01*
X323340Y38500D02*X326460D01*
X327300Y39340D01*
Y40900D01*
X322500Y43180D02*Y44740D01*
X323340Y42340D02*X322500Y43180D01*
X323340Y42340D02*X326460D01*
X327300Y43180D01*
Y44740D01*
X324900Y46180D02*Y48580D01*
X322500Y50020D02*Y52420D01*
X323100Y53020D01*
X324540D01*
X325140Y52420D02*X324540Y53020D01*
X325140Y50620D02*Y52420D01*
X322500Y50620D02*X327300D01*
Y50020D02*Y52420D01*
X326700Y53020D01*
X325740D02*X326700D01*
X325140Y52420D02*X325740Y53020D01*
X327300Y54460D02*X324900Y55660D01*
X327300Y56860D01*
X322500Y55660D02*X324900D01*
Y58300D02*Y60700D01*
X327300Y64540D02*X326700Y65140D01*
X327300Y62740D02*Y64540D01*
X326700Y62140D02*X327300Y62740D01*
X325500Y62140D02*X326700D01*
X325500D02*X324900Y62740D01*
Y64540D01*
X324300Y65140D01*
X323100D02*X324300D01*
X322500Y64540D02*X323100Y65140D01*
X322500Y62740D02*Y64540D01*
X323100Y62140D02*X322500Y62740D01*
Y66580D02*X326100D01*
X327300Y67420D01*
Y68740D01*
X326100Y69580D01*
X322500D02*X326100D01*
X324900Y66580D02*Y69580D01*
Y71020D02*Y73420D01*
X326700Y74860D02*X327300Y75460D01*
Y76660D01*
X326700Y77260D01*
X322500Y76660D02*X323100Y77260D01*
X322500Y75460D02*Y76660D01*
X323100Y74860D02*X322500Y75460D01*
X325140D02*Y76660D01*
X325740Y77260D02*X326700D01*
X323100D02*X324540D01*
X325140Y76660D01*
X325740Y77260D02*X325140Y76660D01*
X322500Y78700D02*Y79300D01*
X323100Y80740D02*X322500Y81340D01*
X323100Y80740D02*X326700D01*
X327300Y81340D01*
Y82540D01*
X326700Y83140D01*
X323100D02*X326700D01*
X322500Y82540D02*X323100Y83140D01*
X322500Y81340D02*Y82540D01*
X323700Y80740D02*X326100Y83140D01*
X294500Y29500D02*X295000Y30000D01*
X293000Y29500D02*X294500D01*
X292500Y30000D02*X293000Y29500D01*
X292500Y30000D02*Y31000D01*
X293000Y31500D01*
X294500D01*
X295000Y32000D01*
Y33000D01*
X294500Y33500D02*X295000Y33000D01*
X293000Y33500D02*X294500D01*
X292500Y33000D02*X293000Y33500D01*
X296200Y29500D02*X297200D01*
X296700D02*Y33500D01*
X296200D02*X297200D01*
X298400Y29500D02*Y33500D01*
X300400D01*
X301600Y29500D02*Y33500D01*
Y31500D02*X303600Y29500D01*
X301600Y31500D02*X303600Y33500D01*
X304800D02*X306800D01*
X307300Y33000D01*
Y31800D02*Y33000D01*
X306800Y31300D02*X307300Y31800D01*
X305300Y31300D02*X306800D01*
X305300Y29500D02*Y33500D01*
X304800Y29500D02*X306800D01*
X307300Y30000D01*
Y30800D01*
X306800Y31300D02*X307300Y30800D01*
X308500Y30000D02*Y33000D01*
Y30000D02*X309000Y29500D01*
X310000D01*
X310500Y30000D01*
Y33000D01*
X310000Y33500D02*X310500Y33000D01*
X309000Y33500D02*X310000D01*
X308500Y33000D02*X309000Y33500D01*
X311700Y29500D02*X313700D01*
X312700D02*Y33500D01*
X358600Y266600D02*X359700Y268800D01*
X349700Y272000D01*
X348000Y271700D02*X363200Y276800D01*
Y329700D02*Y276800D01*
Y329700D02*X360800Y330800D01*
X360700Y330600D01*
X363000Y329500D01*
Y276900D01*
X348000Y272000D01*
Y271700D01*
X359200Y268000D01*
X358400Y266600D01*
X358600Y266500D01*
X359700Y268800D01*
X359500Y268400D02*X349000Y271900D01*
X365700Y270700D02*Y270000D01*
X360800Y270700D02*X365700D01*
X365200Y272100D02*X365400Y272200D01*
X365600Y272400D01*
X365800Y272700D01*
X365900Y273000D01*
Y273700D02*Y273000D01*
Y273700D02*X365800Y273900D01*
X365600Y274200D01*
X365400Y274400D01*
X365000Y274500D01*
X364500D02*X365000D01*
X364500D02*X364200Y274400D01*
X363600Y273800D01*
Y273600D01*
X363200Y274200D01*
X362900Y274500D01*
X362600Y274600D01*
X361800D02*X362600D01*
X361800D02*X361500Y274500D01*
X361200Y274300D01*
X361000Y274100D01*
X360800Y273800D01*
Y272900D01*
X360900Y272600D01*
X361300Y272200D01*
X361600Y272000D01*
X359200Y279500D02*X359600D01*
X359800Y280000D01*
X360000Y281200D01*
Y282100D02*Y281200D01*
Y282100D02*X359900Y282700D01*
X359700Y283200D01*
X359400Y283600D01*
X359000Y284000D01*
X358600Y284200D01*
X358000Y284400D01*
X357300Y284500D01*
X353200D02*X357300D01*
X353200D02*Y283900D01*
X357800D01*
X358300Y283800D01*
X358700Y283600D01*
X359100Y283200D01*
X359300Y282900D01*
X359500Y282500D01*
X359600Y282000D01*
Y281400D01*
X359500Y280600D01*
X359400Y280200D01*
X359200Y279500D01*
X357200Y283700D02*Y281500D01*
X357100Y280700D01*
X356900Y280200D01*
X356800Y280000D01*
X356500Y279600D01*
X356200Y279300D01*
X355800Y279100D01*
X355300Y279000D01*
X354500D02*X355300D01*
X354500D02*X354000Y279200D01*
X353700Y279400D01*
X353400Y279700D01*
X353200Y280100D01*
X353000Y280900D01*
Y281500D02*Y280900D01*
Y281500D02*X353100Y282000D01*
X353300Y282400D01*
X353600Y282800D01*
X354300Y283500D01*
X354600Y283700D01*
X356900Y283800D02*Y281800D01*
X356800Y281400D01*
X356700Y280800D01*
X356500Y280300D01*
X356200Y279900D01*
X355700Y279600D01*
X355200Y279500D01*
X354800D02*X355200D01*
X354800D02*X354400Y279600D01*
X354100Y279800D01*
X353800Y280100D01*
X353600Y280400D01*
X353500Y280700D01*
X353400Y281100D01*
Y281600D02*Y281100D01*
Y281900D02*Y281100D01*
Y281900D02*X353500Y282300D01*
X353700Y282700D01*
X354000Y283100D01*
X354400Y283400D01*
X354800Y283600D01*
X355200Y283700D01*
X355700Y283900D01*
X359200Y309400D02*X359600D01*
X359800Y309900D01*
X360000Y311100D01*
Y312000D02*Y311100D01*
Y312000D02*X359900Y312600D01*
X359700Y313100D01*
X359400Y313500D01*
X359000Y313900D01*
X358600Y314100D01*
X358000Y314300D01*
X357300Y314400D01*
X353200D02*X357300D01*
X353200D02*Y313800D01*
X357800D01*
X358300Y313700D01*
X358700Y313500D01*
X359100Y313100D01*
X359300Y312800D01*
X359500Y312400D01*
X359600Y311900D01*
Y311300D01*
X359500Y310500D01*
X359400Y310100D01*
X359200Y309400D01*
X357200Y313600D02*Y311400D01*
X357100Y310600D01*
X356900Y310100D01*
X356800Y309900D01*
X356500Y309500D01*
X356200Y309200D01*
X355800Y309000D01*
X355300Y308900D01*
X354500D02*X355300D01*
X354500D02*X354000Y309100D01*
X353700Y309300D01*
X353400Y309600D01*
X353200Y310000D01*
X353000Y310800D01*
Y311400D02*Y310800D01*
Y311400D02*X353100Y311900D01*
X353300Y312300D01*
X353600Y312700D01*
X354300Y313400D01*
X354600Y313600D01*
X356900Y313700D02*Y311700D01*
X356800Y311300D01*
X356700Y310700D01*
X356500Y310200D01*
X356200Y309800D01*
X355700Y309500D01*
X355200Y309400D01*
X354800D02*X355200D01*
X354800D02*X354400Y309500D01*
X354100Y309700D01*
X353800Y310000D01*
X353600Y310300D01*
X353500Y310600D01*
X353400Y311000D01*
Y311500D02*Y311000D01*
Y311800D02*Y311000D01*
Y311800D02*X353500Y312200D01*
X353700Y312600D01*
X354000Y313000D01*
X354400Y313300D01*
X354800Y313500D01*
X355200Y313600D01*
X355700Y313800D01*
X352900Y292900D02*X359900D01*
X352900D02*X352500Y292800D01*
X352000Y292600D01*
X351600Y292400D01*
X351300Y292200D01*
X351000Y291900D01*
X350700Y291400D01*
X350500Y290700D01*
X350400Y290200D01*
Y289700D01*
X350500Y288900D01*
X350600Y288400D01*
X350700Y288000D01*
X351200D01*
X351000Y288400D01*
X350900Y289000D01*
X350800Y289400D01*
Y290000D02*Y289400D01*
Y290000D02*X350900Y290700D01*
X351200Y291300D01*
X351600Y291800D01*
X351900Y292000D01*
X352400Y292200D01*
X352800Y292300D01*
X353200D01*
X353500Y292400D01*
X359900D01*
Y292900D02*Y292400D01*
X356100Y292300D02*X355200Y292200D01*
X354500Y291900D01*
X354100Y291500D01*
X353800Y291100D01*
X353600Y290500D01*
Y289600D01*
X353700Y289100D01*
X354100Y288500D01*
X354500Y288200D01*
X355000Y287900D01*
X355500Y287800D01*
X355900Y287700D01*
X357200D01*
X357900Y287800D01*
X358400Y288000D01*
X358900Y288300D01*
X359200Y288600D01*
X359400Y288900D01*
X359500Y289200D01*
X359600Y289600D01*
Y290400D02*Y289600D01*
Y290400D02*X359500Y290800D01*
X359300Y291300D01*
X358700Y291900D01*
X358400Y292000D01*
X358000Y292200D01*
X357600Y292300D01*
X357300D02*X357600D01*
X357300D02*X356900Y292400D01*
X358700Y292000D02*X359600Y291100D01*
X359800Y290800D01*
X360000Y290000D01*
Y289400D01*
X359900Y289000D01*
X359700Y288500D01*
X359400Y288100D01*
X358600Y287500D01*
X358200Y287300D01*
X357500Y287100D01*
X356800Y287000D01*
X356400D02*X356800D01*
X356400D02*X355800Y287100D01*
X355300Y287200D01*
X354700Y287400D01*
X354300Y287700D01*
X353800Y288100D01*
X353500Y288500D01*
X353300Y288900D01*
X353200Y289300D01*
Y290200D02*Y289300D01*
Y290200D02*X353300Y290600D01*
X353500Y291000D01*
X353800Y291400D01*
X354500Y291900D01*
X352900Y328100D02*X359900D01*
X352900D02*X352500Y328000D01*
X352000Y327800D01*
X351600Y327600D01*
X351300Y327400D01*
X351000Y327100D01*
X350700Y326600D01*
X350500Y325900D01*
X350400Y325400D01*
Y324900D01*
X350500Y324100D01*
X350600Y323600D01*
X350700Y323200D01*
X351200D01*
X351000Y323600D01*
X350900Y324200D01*
X350800Y324600D01*
Y325200D02*Y324600D01*
Y325200D02*X350900Y325900D01*
X351200Y326500D01*
X351600Y327000D01*
X351900Y327200D01*
X352400Y327400D01*
X352800Y327500D01*
X353200D01*
X353500Y327600D01*
X359900D01*
Y328100D02*Y327600D01*
X356100Y327500D02*X355200Y327400D01*
X354500Y327100D01*
X354100Y326700D01*
X353800Y326300D01*
X353600Y325700D01*
Y324800D01*
X353700Y324300D01*
X354100Y323700D01*
X354500Y323400D01*
X355000Y323100D01*
X355500Y323000D01*
X355900Y322900D01*
X357200D01*
X357900Y323000D01*
X358400Y323200D01*
X358900Y323500D01*
X359200Y323800D01*
X359400Y324100D01*
X359500Y324400D01*
X359600Y324800D01*
Y325600D02*Y324800D01*
Y325600D02*X359500Y326000D01*
X359300Y326500D01*
X358700Y327100D01*
X358400Y327200D01*
X358000Y327400D01*
X357600Y327500D01*
X357300D02*X357600D01*
X357300D02*X356900Y327600D01*
X358700Y327200D02*X359600Y326300D01*
X359800Y326000D01*
X360000Y325200D01*
Y324600D01*
X359900Y324200D01*
X359700Y323700D01*
X359400Y323300D01*
X358600Y322700D01*
X358200Y322500D01*
X357500Y322300D01*
X356800Y322200D01*
X356400D02*X356800D01*
X356400D02*X355800Y322300D01*
X355300Y322400D01*
X354700Y322600D01*
X354300Y322900D01*
X353800Y323300D01*
X353500Y323700D01*
X353300Y324100D01*
X353200Y324500D01*
Y325400D02*Y324500D01*
Y325400D02*X353300Y325800D01*
X353500Y326200D01*
X353800Y326600D01*
X354500Y327100D01*
X353200Y296000D02*X359800D01*
X353200Y296500D02*Y296000D01*
Y296500D02*X359800D01*
Y296000D01*
X359400Y299600D02*X360000D01*
X359400D02*X359600Y299200D01*
Y298600D01*
X359500Y298300D01*
X359400Y297900D01*
X359100Y297500D01*
X358900Y297200D01*
X358600Y297000D01*
X358200Y296800D01*
X357600Y296600D01*
X356800Y296500D01*
X360000Y299600D02*Y299000D01*
X359900Y298400D01*
X359700Y298000D01*
X359300Y297500D01*
X358600Y296900D01*
X353200Y317500D02*X359800D01*
X353200Y318000D02*Y317500D01*
Y318000D02*X359800D01*
Y317500D01*
X359400Y321100D02*X360000D01*
X359400D02*X359600Y320700D01*
Y320100D01*
X359500Y319800D01*
X359400Y319400D01*
X359100Y319000D01*
X358900Y318700D01*
X358600Y318500D01*
X358200Y318300D01*
X357600Y318100D01*
X356800Y318000D01*
X360000Y321100D02*Y320500D01*
X359900Y319900D01*
X359700Y319500D01*
X359300Y319000D01*
X358600Y318400D01*
X356800Y306200D02*Y300700D01*
Y306200D02*X357800D01*
X358300Y306000D01*
X358700Y305800D01*
X359400Y305100D01*
X359500Y304800D01*
X359600Y304400D01*
Y303400D01*
X359500Y303000D01*
X359100Y302200D01*
X358900Y302000D01*
X358500Y301700D01*
X358100Y301500D01*
X357800Y301400D01*
X356800D02*Y300700D01*
Y301400D02*X357800D01*
X357500Y306700D02*X357700D01*
X358100Y306600D01*
X358600Y306400D01*
X359100Y306100D01*
X359500Y305700D01*
X359900Y304900D01*
X360000Y304500D01*
Y303600D01*
X359900Y302900D01*
X359600Y302200D01*
X359300Y301800D01*
X358800Y301400D01*
X358400Y301100D01*
X358000Y300900D01*
X357600Y300800D01*
X357100Y300700D01*
X356100D02*X357100D01*
X356100D02*X355300Y300800D01*
X354600Y301100D01*
X354300Y301300D01*
X353600Y302000D01*
X353400Y302400D01*
X353200Y302900D01*
X353100Y303300D01*
X353000Y303800D01*
Y304500D02*Y303800D01*
Y304500D02*X353100Y305300D01*
X353400Y306500D01*
X353900D01*
X353600Y305800D01*
X353500Y305200D01*
X353400Y304400D01*
Y303600D01*
X353600Y302900D01*
X353900Y302400D01*
X354300Y301900D01*
X354700Y301700D01*
X355200Y301500D01*
X355800Y301300D01*
X356600D01*
Y306700D02*Y301300D01*
Y306700D02*X357600D01*
X341387Y250262D02*X342466Y251347D01*
X342807Y251694D01*
X344239Y253126D01*
X344620Y253501D01*
X344800Y253583D01*
X344994Y253538D01*
X345632Y253100D01*
X345835Y252963D01*
X349382Y250522D01*
X349591Y250455D01*
X349806Y250490D01*
X349903Y250527D01*
X349925Y250544D01*
X351792Y251433D01*
X353778Y252090D01*
X353799Y252095D01*
X353941Y252150D01*
X354117Y252272D01*
X354217Y252459D01*
X355020Y256762D01*
X355069Y257002D01*
X355205Y257770D01*
X355310Y257936D01*
X355498Y258004D01*
X361096D01*
X361281Y257936D01*
X361384Y257770D01*
X361525Y257002D01*
X361574Y256762D01*
X362394Y252334D01*
X362492Y252137D01*
X362670Y252009D01*
X362860Y251922D01*
X364655Y251272D01*
X366348Y250430D01*
X374373Y240100D02*X374567Y239997D01*
X379434Y239095D01*
X380194Y238950D01*
X380362Y238848D01*
X380432Y238662D01*
Y233069D01*
X366348Y250430D02*X366560Y250338D01*
X366771Y250304D01*
X366977Y250370D01*
X370753Y252952D01*
X371160Y253236D01*
X371595Y253538D01*
X371789Y253583D01*
X371974Y253501D01*
X372344Y253126D01*
X372696Y252779D01*
X373775Y251694D01*
X374128Y251347D01*
X375213Y250262D01*
X380432Y233069D02*X380362Y232883D01*
X380194Y232781D01*
X379678Y232684D01*
X379434Y232636D01*
X374567Y231734D01*
X374373Y231631D01*
X374248Y231452D01*
X374155Y231225D01*
X373562Y229513D01*
X372794Y227893D01*
X372782Y227877D01*
X372706Y227687D01*
X372671Y227469D01*
X372739Y227263D01*
X375387Y223401D01*
X375525Y223202D01*
X375962Y222561D01*
X376010Y222369D01*
X375930Y222191D01*
X375549Y221816D01*
X375213Y221469D01*
X345835Y218773D02*X345632Y218632D01*
X345434Y218497D01*
X344994Y218192D01*
X344800Y218148D01*
X344620Y218230D01*
X344239Y218605D01*
X342807Y220037D01*
X342466Y220384D01*
X341387Y221469D01*
X341034Y221816D01*
X340664Y222191D01*
X340581Y222369D01*
X340627Y222561D01*
X340931Y223000D01*
X341066Y223202D01*
X343584Y226873D01*
X343644Y227081D01*
X343599Y227291D01*
X343198Y228012D01*
X343082Y228227D01*
X342970Y228447D01*
X342580Y229195D01*
X342567Y229376D01*
X342694Y229505D01*
X343475Y229825D01*
X343700Y229918D01*
X343925Y230015D01*
X351212Y233026D01*
X351431Y233118D01*
X351656Y233211D01*
X352171Y233427D01*
X352371Y233431D01*
X352530Y233313D01*
X352817Y232836D01*
X352924Y232684D01*
X353050Y232531D01*
X354021Y231361D01*
X355246Y230461D01*
X356675Y229883D01*
X358259Y229679D01*
X359506Y229805D01*
X360669Y230165D01*
X361721Y230736D01*
X362639Y231493D01*
X363396Y232408D01*
X375213Y221469D02*X374128Y220384D01*
X373775Y220037D01*
X372696Y218952D01*
X372344Y218605D01*
X371974Y218230D01*
X371789Y218148D01*
X371595Y218192D01*
X371160Y218497D01*
X370956Y218637D01*
X370753Y218779D01*
X366977Y221361D01*
X366771Y221430D01*
X366560Y221394D01*
X366348Y221301D01*
X364655Y220459D01*
X362860Y219809D01*
X362670Y219727D01*
X362492Y219595D01*
X362394Y219402D01*
X361574Y214970D01*
X361525Y214730D01*
X361481Y214487D01*
X361384Y213966D01*
X361281Y213796D01*
X361096Y213727D01*
X355498D02*X361096D01*
X355498D02*X355310Y213796D01*
X355205Y213966D01*
X355069Y214730D01*
X355020Y214970D01*
X354217Y219272D01*
X354117Y219461D01*
X353941Y219582D01*
X353794Y219641D01*
X351809Y220301D01*
X363396Y232408D02*X363967Y233459D01*
X364330Y234622D01*
X364455Y235869D01*
X364330Y237116D01*
X363967Y238277D01*
X363396Y239327D01*
X362639Y240243D01*
X351809Y220301D02*X349942Y221187D01*
X349806Y221241D01*
X349591Y221279D01*
X349382Y221209D01*
X345835Y218773D01*
X375213Y250262D02*X375549Y249915D01*
X375930Y249540D01*
X376010Y249362D01*
X375962Y249172D01*
X375663Y248731D01*
X375525Y248529D01*
X375387Y248330D01*
X372739Y244473D01*
X372671Y244262D01*
X372706Y244044D01*
X372782Y243855D01*
X372794Y243844D01*
X373562Y242218D01*
X374155Y240506D01*
X374248Y240279D01*
X374373Y240100D01*
X362639Y240243D02*X361721Y240998D01*
X360669Y241568D01*
X359506Y241929D01*
X358259Y242054D01*
X356675Y241850D01*
X355246Y241272D01*
X354021Y240370D01*
X352924Y239048D01*
X352817Y238895D01*
X352530Y238419D01*
X352371Y238301D01*
X352171Y238309D01*
X351656Y238522D01*
X351431Y238613D01*
X351212Y238711D01*
X343925Y241718D01*
X343700Y241813D01*
X342694Y242227D01*
X342567Y242355D01*
X342580Y242536D01*
X342970Y243290D01*
X343082Y243504D01*
X343198Y243719D01*
X343599Y244440D01*
X343644Y244650D01*
X343584Y244858D01*
X341066Y248529D01*
X340931Y248731D01*
X340627Y249172D01*
X340581Y249362D01*
X340664Y249540D01*
X341034Y249915D01*
X341387Y250262D01*
M02*
