G04 start of page 3 for group 1 idx 1 *
G04 Title: Nomech, solder *
G04 Creator: pcb 20110918 *
G04 CreationDate: Sun 08 Sep 2013 10:57:53 PM GMT UTC *
G04 For: bertho *
G04 Format: Gerber/RS-274X *
G04 PCB-Dimensions: 430000 350000 *
G04 PCB-Coordinate-Origin: lower left *
%MOIN*%
%FSLAX25Y25*%
%LNBOTTOM*%
%ADD149C,0.0787*%
%ADD148C,0.1260*%
%ADD147C,0.0118*%
%ADD146C,0.0278*%
%ADD145R,0.0800X0.0800*%
%ADD144R,0.0500X0.0500*%
%ADD143C,0.0100*%
%ADD142R,0.0100X0.0100*%
%ADD141C,0.1037*%
%ADD140C,0.1420*%
%ADD139C,0.0120*%
%ADD138C,0.0200*%
%ADD137C,0.0250*%
%ADD136C,0.0300*%
%ADD135C,0.0080*%
%ADD134C,0.0001*%
G54D134*G36*
X35500Y111500D02*Y118500D01*
X98500D01*
Y111500D01*
X84125D01*
X84067Y111567D01*
X83972Y111649D01*
X83864Y111715D01*
X83748Y111763D01*
X83626Y111793D01*
X83500Y111800D01*
X78374Y111793D01*
X78252Y111763D01*
X78136Y111715D01*
X78028Y111649D01*
X77933Y111567D01*
X77875Y111500D01*
X70125D01*
X70067Y111567D01*
X69972Y111649D01*
X69864Y111715D01*
X69748Y111763D01*
X69626Y111793D01*
X69500Y111800D01*
X64374Y111793D01*
X64252Y111763D01*
X64136Y111715D01*
X64028Y111649D01*
X63933Y111567D01*
X63875Y111500D01*
X56125D01*
X56067Y111567D01*
X55972Y111649D01*
X55864Y111715D01*
X55748Y111763D01*
X55626Y111793D01*
X55500Y111800D01*
X50374Y111793D01*
X50252Y111763D01*
X50136Y111715D01*
X50028Y111649D01*
X49933Y111567D01*
X49875Y111500D01*
X35500D01*
G37*
G36*
Y179500D02*Y186500D01*
X98500D01*
Y179500D01*
X84125D01*
X84067Y179567D01*
X83972Y179649D01*
X83864Y179715D01*
X83748Y179763D01*
X83626Y179793D01*
X83500Y179800D01*
X78374Y179793D01*
X78252Y179763D01*
X78136Y179715D01*
X78028Y179649D01*
X77933Y179567D01*
X77875Y179500D01*
X70125D01*
X70067Y179567D01*
X69972Y179649D01*
X69864Y179715D01*
X69748Y179763D01*
X69626Y179793D01*
X69500Y179800D01*
X64374Y179793D01*
X64252Y179763D01*
X64136Y179715D01*
X64028Y179649D01*
X63933Y179567D01*
X63875Y179500D01*
X56125D01*
X56067Y179567D01*
X55972Y179649D01*
X55864Y179715D01*
X55748Y179763D01*
X55626Y179793D01*
X55500Y179800D01*
X50374Y179793D01*
X50252Y179763D01*
X50136Y179715D01*
X50028Y179649D01*
X49933Y179567D01*
X49875Y179500D01*
X35500D01*
G37*
G36*
Y247500D02*Y254500D01*
X98500D01*
Y247500D01*
X84125D01*
X84067Y247567D01*
X83972Y247649D01*
X83864Y247715D01*
X83748Y247763D01*
X83626Y247793D01*
X83500Y247800D01*
X78374Y247793D01*
X78252Y247763D01*
X78136Y247715D01*
X78028Y247649D01*
X77933Y247567D01*
X77875Y247500D01*
X70125D01*
X70067Y247567D01*
X69972Y247649D01*
X69864Y247715D01*
X69748Y247763D01*
X69626Y247793D01*
X69500Y247800D01*
X64374Y247793D01*
X64252Y247763D01*
X64136Y247715D01*
X64028Y247649D01*
X63933Y247567D01*
X63875Y247500D01*
X56125D01*
X56067Y247567D01*
X55972Y247649D01*
X55864Y247715D01*
X55748Y247763D01*
X55626Y247793D01*
X55500Y247800D01*
X50374Y247793D01*
X50252Y247763D01*
X50136Y247715D01*
X50028Y247649D01*
X49933Y247567D01*
X49875Y247500D01*
X35500D01*
G37*
G36*
X103500D02*Y254500D01*
X166500D01*
Y247500D01*
X152125D01*
X152067Y247567D01*
X151972Y247649D01*
X151864Y247715D01*
X151748Y247763D01*
X151626Y247793D01*
X151500Y247800D01*
X146374Y247793D01*
X146252Y247763D01*
X146136Y247715D01*
X146028Y247649D01*
X145933Y247567D01*
X145875Y247500D01*
X138125D01*
X138067Y247567D01*
X137972Y247649D01*
X137864Y247715D01*
X137748Y247763D01*
X137626Y247793D01*
X137500Y247800D01*
X132374Y247793D01*
X132252Y247763D01*
X132136Y247715D01*
X132028Y247649D01*
X131933Y247567D01*
X131875Y247500D01*
X124125D01*
X124067Y247567D01*
X123972Y247649D01*
X123864Y247715D01*
X123748Y247763D01*
X123626Y247793D01*
X123500Y247800D01*
X118374Y247793D01*
X118252Y247763D01*
X118136Y247715D01*
X118028Y247649D01*
X117933Y247567D01*
X117875Y247500D01*
X103500D01*
G37*
G36*
Y111500D02*Y118500D01*
X166500D01*
Y111500D01*
X152125D01*
X152067Y111567D01*
X151972Y111649D01*
X151864Y111715D01*
X151748Y111763D01*
X151626Y111793D01*
X151500Y111800D01*
X146374Y111793D01*
X146252Y111763D01*
X146136Y111715D01*
X146028Y111649D01*
X145933Y111567D01*
X145875Y111500D01*
X138125D01*
X138067Y111567D01*
X137972Y111649D01*
X137864Y111715D01*
X137748Y111763D01*
X137626Y111793D01*
X137500Y111800D01*
X132374Y111793D01*
X132252Y111763D01*
X132136Y111715D01*
X132028Y111649D01*
X131933Y111567D01*
X131875Y111500D01*
X124125D01*
X124067Y111567D01*
X123972Y111649D01*
X123864Y111715D01*
X123748Y111763D01*
X123626Y111793D01*
X123500Y111800D01*
X118374Y111793D01*
X118252Y111763D01*
X118136Y111715D01*
X118028Y111649D01*
X117933Y111567D01*
X117875Y111500D01*
X103500D01*
G37*
G36*
Y179500D02*Y186500D01*
X166500D01*
Y179500D01*
X152125D01*
X152067Y179567D01*
X151972Y179649D01*
X151864Y179715D01*
X151748Y179763D01*
X151626Y179793D01*
X151500Y179800D01*
X146374Y179793D01*
X146252Y179763D01*
X146136Y179715D01*
X146028Y179649D01*
X145933Y179567D01*
X145875Y179500D01*
X138125D01*
X138067Y179567D01*
X137972Y179649D01*
X137864Y179715D01*
X137748Y179763D01*
X137626Y179793D01*
X137500Y179800D01*
X132374Y179793D01*
X132252Y179763D01*
X132136Y179715D01*
X132028Y179649D01*
X131933Y179567D01*
X131875Y179500D01*
X124125D01*
X124067Y179567D01*
X123972Y179649D01*
X123864Y179715D01*
X123748Y179763D01*
X123626Y179793D01*
X123500Y179800D01*
X118374Y179793D01*
X118252Y179763D01*
X118136Y179715D01*
X118028Y179649D01*
X117933Y179567D01*
X117875Y179500D01*
X103500D01*
G37*
G36*
X387979Y146700D02*X390929D01*
X391000Y146694D01*
X391282Y146717D01*
X391282Y146717D01*
X391558Y146783D01*
X391820Y146891D01*
X392061Y147039D01*
X392277Y147223D01*
X392323Y147277D01*
X397700Y152654D01*
Y128500D01*
X397721Y128139D01*
X397806Y127787D01*
X397944Y127453D01*
X398134Y127144D01*
X398369Y126869D01*
X398644Y126634D01*
X398953Y126444D01*
X399287Y126306D01*
X399639Y126221D01*
X400000Y126193D01*
X400361Y126221D01*
X400713Y126306D01*
X401047Y126444D01*
X401356Y126634D01*
X401631Y126869D01*
X401866Y127144D01*
X402056Y127453D01*
X402194Y127787D01*
X402279Y128139D01*
X402300Y128500D01*
Y36142D01*
X402292Y36000D01*
X402267Y35233D01*
X402166Y34472D01*
X402000Y33722D01*
X401769Y32990D01*
X401476Y32281D01*
X401121Y31600D01*
X400709Y30953D01*
X400241Y30343D01*
X399723Y29777D01*
X399157Y29259D01*
X398547Y28791D01*
X397900Y28379D01*
X397219Y28024D01*
X396510Y27731D01*
X395778Y27500D01*
X395028Y27334D01*
X394267Y27233D01*
X393500Y27200D01*
X393500Y27200D01*
X387979D01*
Y28161D01*
X388000Y28159D01*
X390087Y28323D01*
X392123Y28812D01*
X394057Y29613D01*
X395842Y30707D01*
X397434Y32066D01*
X398793Y33658D01*
X399887Y35443D01*
X400688Y37377D01*
X401177Y39413D01*
X401300Y41500D01*
X401177Y43587D01*
X400688Y45623D01*
X399887Y47557D01*
X398793Y49342D01*
X397434Y50934D01*
X395842Y52293D01*
X394057Y53387D01*
X392123Y54188D01*
X390087Y54677D01*
X388000Y54841D01*
X387979Y54839D01*
Y146700D01*
G37*
G36*
X364501D02*X375200D01*
Y118755D01*
X375042Y118498D01*
X374910Y118179D01*
X374830Y117844D01*
X374803Y117500D01*
X374830Y117156D01*
X374910Y116821D01*
X375042Y116502D01*
X375222Y116208D01*
X375446Y115946D01*
X375708Y115722D01*
X376002Y115542D01*
X376321Y115410D01*
X376656Y115330D01*
X377000Y115303D01*
X377344Y115330D01*
X377679Y115410D01*
X377998Y115542D01*
X378292Y115722D01*
X378554Y115946D01*
X378778Y116208D01*
X378958Y116502D01*
X379090Y116821D01*
X379170Y117156D01*
X379190Y117500D01*
X379170Y117844D01*
X379090Y118179D01*
X378958Y118498D01*
X378800Y118755D01*
Y146700D01*
X387979D01*
Y54839D01*
X385913Y54677D01*
X383877Y54188D01*
X381943Y53387D01*
X380158Y52293D01*
X378566Y50934D01*
X377207Y49342D01*
X376113Y47557D01*
X375312Y45623D01*
X374823Y43587D01*
X374659Y41500D01*
X374823Y39413D01*
X375312Y37377D01*
X376113Y35443D01*
X377207Y33658D01*
X378566Y32066D01*
X380158Y30707D01*
X381943Y29613D01*
X383877Y28812D01*
X385913Y28323D01*
X387979Y28161D01*
Y27200D01*
X364501D01*
Y146700D01*
G37*
G36*
X383267Y202450D02*X392225D01*
X392321Y202410D01*
X392656Y202330D01*
X393000Y202303D01*
X393344Y202330D01*
X393679Y202410D01*
X393998Y202542D01*
X394292Y202722D01*
X394554Y202946D01*
X394700Y203118D01*
Y154746D01*
X390254Y150300D01*
X383267D01*
Y187697D01*
X383280Y187698D01*
X383342Y187708D01*
X383401Y187728D01*
X383457Y187757D01*
X383508Y187794D01*
X383552Y187839D01*
X383589Y187891D01*
X383617Y187947D01*
X383634Y188007D01*
X383672Y188202D01*
X383690Y188401D01*
Y188599D01*
X383672Y188798D01*
X383637Y188993D01*
X383618Y189054D01*
X383590Y189110D01*
X383553Y189162D01*
X383509Y189207D01*
X383458Y189244D01*
X383402Y189273D01*
X383342Y189293D01*
X383280Y189304D01*
X383267Y189304D01*
Y202450D01*
G37*
G36*
X381501D02*X383267D01*
Y189304D01*
X383217Y189304D01*
X383154Y189295D01*
X383094Y189276D01*
X383037Y189248D01*
X382986Y189211D01*
X382941Y189167D01*
X382903Y189116D01*
X382874Y189060D01*
X382854Y189000D01*
X382843Y188938D01*
X382843Y188875D01*
X382853Y188812D01*
X382878Y188689D01*
X382889Y188563D01*
Y188437D01*
X382878Y188311D01*
X382855Y188187D01*
X382844Y188125D01*
X382845Y188062D01*
X382855Y188000D01*
X382875Y187940D01*
X382904Y187885D01*
X382942Y187834D01*
X382987Y187790D01*
X383038Y187753D01*
X383094Y187725D01*
X383154Y187706D01*
X383217Y187697D01*
X383267Y187697D01*
Y150300D01*
X381501D01*
Y186310D01*
X381599D01*
X381798Y186328D01*
X381993Y186363D01*
X382054Y186382D01*
X382110Y186410D01*
X382162Y186447D01*
X382207Y186491D01*
X382244Y186542D01*
X382273Y186598D01*
X382293Y186658D01*
X382304Y186720D01*
X382304Y186783D01*
X382295Y186846D01*
X382276Y186906D01*
X382248Y186963D01*
X382211Y187014D01*
X382167Y187059D01*
X382116Y187097D01*
X382060Y187126D01*
X382000Y187146D01*
X381938Y187157D01*
X381875Y187157D01*
X381812Y187147D01*
X381689Y187122D01*
X381563Y187111D01*
X381501D01*
Y189889D01*
X381563D01*
X381689Y189878D01*
X381813Y189855D01*
X381875Y189844D01*
X381938Y189845D01*
X382000Y189855D01*
X382060Y189875D01*
X382115Y189904D01*
X382166Y189942D01*
X382210Y189987D01*
X382247Y190038D01*
X382275Y190094D01*
X382294Y190154D01*
X382303Y190217D01*
X382302Y190280D01*
X382292Y190342D01*
X382272Y190401D01*
X382243Y190457D01*
X382206Y190508D01*
X382161Y190552D01*
X382109Y190589D01*
X382053Y190617D01*
X381993Y190634D01*
X381798Y190672D01*
X381599Y190690D01*
X381501D01*
Y202450D01*
G37*
G36*
X379733D02*X381501D01*
Y190690D01*
X381401D01*
X381202Y190672D01*
X381007Y190637D01*
X380946Y190618D01*
X380890Y190590D01*
X380838Y190553D01*
X380793Y190509D01*
X380756Y190458D01*
X380727Y190402D01*
X380707Y190342D01*
X380696Y190280D01*
X380696Y190217D01*
X380705Y190154D01*
X380724Y190094D01*
X380752Y190037D01*
X380789Y189986D01*
X380833Y189941D01*
X380884Y189903D01*
X380940Y189874D01*
X381000Y189854D01*
X381062Y189843D01*
X381125Y189843D01*
X381188Y189853D01*
X381311Y189878D01*
X381437Y189889D01*
X381501D01*
Y187111D01*
X381437D01*
X381311Y187122D01*
X381187Y187145D01*
X381125Y187156D01*
X381062Y187155D01*
X381000Y187145D01*
X380940Y187125D01*
X380885Y187096D01*
X380834Y187058D01*
X380790Y187013D01*
X380753Y186962D01*
X380725Y186906D01*
X380706Y186846D01*
X380697Y186783D01*
X380698Y186720D01*
X380708Y186658D01*
X380728Y186599D01*
X380757Y186543D01*
X380794Y186492D01*
X380839Y186448D01*
X380891Y186411D01*
X380947Y186383D01*
X381007Y186366D01*
X381202Y186328D01*
X381401Y186310D01*
X381501D01*
Y150300D01*
X379733D01*
Y187696D01*
X379783Y187696D01*
X379846Y187705D01*
X379906Y187724D01*
X379963Y187752D01*
X380014Y187789D01*
X380059Y187833D01*
X380097Y187884D01*
X380126Y187940D01*
X380146Y188000D01*
X380157Y188062D01*
X380157Y188125D01*
X380147Y188188D01*
X380122Y188311D01*
X380111Y188437D01*
Y188563D01*
X380122Y188689D01*
X380145Y188813D01*
X380156Y188875D01*
X380155Y188938D01*
X380145Y189000D01*
X380125Y189060D01*
X380096Y189115D01*
X380058Y189166D01*
X380013Y189210D01*
X379962Y189247D01*
X379906Y189275D01*
X379846Y189294D01*
X379783Y189303D01*
X379733Y189303D01*
Y202450D01*
G37*
G36*
X366267D02*X379733D01*
Y189303D01*
X379720Y189302D01*
X379658Y189292D01*
X379599Y189272D01*
X379543Y189243D01*
X379492Y189206D01*
X379448Y189161D01*
X379411Y189109D01*
X379383Y189053D01*
X379366Y188993D01*
X379328Y188798D01*
X379310Y188599D01*
Y188401D01*
X379328Y188202D01*
X379363Y188007D01*
X379382Y187946D01*
X379410Y187890D01*
X379447Y187838D01*
X379491Y187793D01*
X379542Y187756D01*
X379598Y187727D01*
X379658Y187707D01*
X379720Y187696D01*
X379733Y187696D01*
Y150300D01*
X377071D01*
X377000Y150306D01*
X376929Y150300D01*
X366267D01*
Y190197D01*
X366280Y190198D01*
X366342Y190208D01*
X366401Y190228D01*
X366457Y190257D01*
X366508Y190294D01*
X366552Y190339D01*
X366589Y190391D01*
X366617Y190447D01*
X366634Y190507D01*
X366672Y190702D01*
X366690Y190901D01*
Y191099D01*
X366672Y191298D01*
X366637Y191493D01*
X366618Y191554D01*
X366590Y191610D01*
X366553Y191662D01*
X366509Y191707D01*
X366458Y191744D01*
X366402Y191773D01*
X366342Y191793D01*
X366280Y191804D01*
X366267Y191804D01*
Y202450D01*
G37*
G36*
X364501D02*X366267D01*
Y191804D01*
X366217Y191804D01*
X366154Y191795D01*
X366094Y191776D01*
X366037Y191748D01*
X365986Y191711D01*
X365941Y191667D01*
X365903Y191616D01*
X365874Y191560D01*
X365854Y191500D01*
X365843Y191438D01*
X365843Y191375D01*
X365853Y191312D01*
X365878Y191189D01*
X365889Y191063D01*
Y190937D01*
X365878Y190811D01*
X365855Y190687D01*
X365844Y190625D01*
X365845Y190562D01*
X365855Y190500D01*
X365875Y190440D01*
X365904Y190385D01*
X365942Y190334D01*
X365987Y190290D01*
X366038Y190253D01*
X366094Y190225D01*
X366154Y190206D01*
X366217Y190197D01*
X366267Y190197D01*
Y150300D01*
X364501D01*
Y188810D01*
X364599D01*
X364798Y188828D01*
X364993Y188863D01*
X365054Y188882D01*
X365110Y188910D01*
X365162Y188947D01*
X365207Y188991D01*
X365244Y189042D01*
X365273Y189098D01*
X365293Y189158D01*
X365304Y189220D01*
X365304Y189283D01*
X365295Y189346D01*
X365276Y189406D01*
X365248Y189463D01*
X365211Y189514D01*
X365167Y189559D01*
X365116Y189597D01*
X365060Y189626D01*
X365000Y189646D01*
X364938Y189657D01*
X364875Y189657D01*
X364812Y189647D01*
X364689Y189622D01*
X364563Y189611D01*
X364501D01*
Y192389D01*
X364563D01*
X364689Y192378D01*
X364813Y192355D01*
X364875Y192344D01*
X364938Y192345D01*
X365000Y192355D01*
X365060Y192375D01*
X365115Y192404D01*
X365166Y192442D01*
X365210Y192487D01*
X365247Y192538D01*
X365275Y192594D01*
X365294Y192654D01*
X365303Y192717D01*
X365302Y192780D01*
X365292Y192842D01*
X365272Y192901D01*
X365243Y192957D01*
X365206Y193008D01*
X365161Y193052D01*
X365109Y193089D01*
X365053Y193117D01*
X364993Y193134D01*
X364798Y193172D01*
X364599Y193190D01*
X364501D01*
Y202450D01*
G37*
G36*
X381767Y213200D02*X394700D01*
Y205882D01*
X394554Y206054D01*
X394292Y206278D01*
X393998Y206458D01*
X393679Y206590D01*
X393344Y206670D01*
X393000Y206697D01*
X392656Y206670D01*
X392321Y206590D01*
X392225Y206550D01*
X381767D01*
Y208197D01*
X381780Y208198D01*
X381842Y208208D01*
X381901Y208228D01*
X381957Y208257D01*
X382008Y208294D01*
X382052Y208339D01*
X382089Y208391D01*
X382117Y208447D01*
X382134Y208507D01*
X382172Y208702D01*
X382190Y208901D01*
Y209099D01*
X382172Y209298D01*
X382137Y209493D01*
X382118Y209554D01*
X382090Y209610D01*
X382053Y209662D01*
X382009Y209707D01*
X381958Y209744D01*
X381902Y209773D01*
X381842Y209793D01*
X381780Y209804D01*
X381767Y209804D01*
Y213200D01*
G37*
G36*
X380001Y212867D02*X380179Y212910D01*
X380498Y213042D01*
X380755Y213200D01*
X381767D01*
Y209804D01*
X381717Y209804D01*
X381654Y209795D01*
X381594Y209776D01*
X381537Y209748D01*
X381486Y209711D01*
X381441Y209667D01*
X381403Y209616D01*
X381374Y209560D01*
X381354Y209500D01*
X381343Y209438D01*
X381343Y209375D01*
X381353Y209312D01*
X381378Y209189D01*
X381389Y209063D01*
Y208937D01*
X381378Y208811D01*
X381355Y208687D01*
X381344Y208625D01*
X381345Y208562D01*
X381355Y208500D01*
X381375Y208440D01*
X381404Y208385D01*
X381442Y208334D01*
X381487Y208290D01*
X381538Y208253D01*
X381594Y208225D01*
X381654Y208206D01*
X381717Y208197D01*
X381767Y208197D01*
Y206550D01*
X380001D01*
Y206810D01*
X380099D01*
X380298Y206828D01*
X380493Y206863D01*
X380554Y206882D01*
X380610Y206910D01*
X380662Y206947D01*
X380707Y206991D01*
X380744Y207042D01*
X380773Y207098D01*
X380793Y207158D01*
X380804Y207220D01*
X380804Y207283D01*
X380795Y207346D01*
X380776Y207406D01*
X380748Y207463D01*
X380711Y207514D01*
X380667Y207559D01*
X380616Y207597D01*
X380560Y207626D01*
X380500Y207646D01*
X380438Y207657D01*
X380375Y207657D01*
X380312Y207647D01*
X380189Y207622D01*
X380063Y207611D01*
X380001D01*
Y210389D01*
X380063D01*
X380189Y210378D01*
X380313Y210355D01*
X380375Y210344D01*
X380438Y210345D01*
X380500Y210355D01*
X380560Y210375D01*
X380615Y210404D01*
X380666Y210442D01*
X380710Y210487D01*
X380747Y210538D01*
X380775Y210594D01*
X380794Y210654D01*
X380803Y210717D01*
X380802Y210780D01*
X380792Y210842D01*
X380772Y210901D01*
X380743Y210957D01*
X380706Y211008D01*
X380661Y211052D01*
X380609Y211089D01*
X380553Y211117D01*
X380493Y211134D01*
X380298Y211172D01*
X380099Y211191D01*
X380001D01*
Y212867D01*
G37*
G36*
X389767Y236688D02*X394700Y231754D01*
Y216800D01*
X389767D01*
Y230197D01*
X389780Y230198D01*
X389842Y230208D01*
X389901Y230228D01*
X389957Y230257D01*
X390008Y230294D01*
X390052Y230339D01*
X390089Y230391D01*
X390117Y230447D01*
X390134Y230507D01*
X390172Y230702D01*
X390190Y230901D01*
Y231099D01*
X390172Y231298D01*
X390137Y231493D01*
X390118Y231554D01*
X390090Y231610D01*
X390053Y231662D01*
X390009Y231707D01*
X389958Y231744D01*
X389902Y231773D01*
X389842Y231793D01*
X389780Y231804D01*
X389767Y231804D01*
Y236688D01*
G37*
G36*
X388001Y236700D02*X389754D01*
X389767Y236688D01*
Y231804D01*
X389717Y231804D01*
X389654Y231795D01*
X389594Y231776D01*
X389537Y231748D01*
X389486Y231711D01*
X389441Y231667D01*
X389403Y231616D01*
X389374Y231560D01*
X389354Y231500D01*
X389343Y231438D01*
X389343Y231375D01*
X389353Y231312D01*
X389378Y231189D01*
X389389Y231063D01*
Y230937D01*
X389378Y230811D01*
X389355Y230687D01*
X389344Y230625D01*
X389345Y230562D01*
X389355Y230500D01*
X389375Y230440D01*
X389404Y230385D01*
X389442Y230334D01*
X389487Y230290D01*
X389538Y230253D01*
X389594Y230225D01*
X389654Y230206D01*
X389717Y230197D01*
X389767Y230197D01*
Y216800D01*
X388001D01*
Y228810D01*
X388099D01*
X388298Y228828D01*
X388493Y228863D01*
X388554Y228882D01*
X388610Y228910D01*
X388662Y228947D01*
X388707Y228991D01*
X388744Y229042D01*
X388773Y229098D01*
X388793Y229158D01*
X388804Y229220D01*
X388804Y229283D01*
X388795Y229346D01*
X388776Y229406D01*
X388748Y229463D01*
X388711Y229514D01*
X388667Y229559D01*
X388616Y229597D01*
X388560Y229626D01*
X388500Y229646D01*
X388438Y229657D01*
X388375Y229657D01*
X388312Y229647D01*
X388189Y229622D01*
X388063Y229611D01*
X388001D01*
Y232389D01*
X388063D01*
X388189Y232378D01*
X388313Y232355D01*
X388375Y232344D01*
X388438Y232345D01*
X388500Y232355D01*
X388560Y232375D01*
X388615Y232404D01*
X388666Y232442D01*
X388710Y232487D01*
X388747Y232538D01*
X388775Y232594D01*
X388794Y232654D01*
X388803Y232717D01*
X388802Y232780D01*
X388792Y232842D01*
X388772Y232901D01*
X388743Y232957D01*
X388706Y233008D01*
X388661Y233052D01*
X388609Y233089D01*
X388553Y233117D01*
X388493Y233134D01*
X388298Y233172D01*
X388099Y233191D01*
X388001D01*
Y236700D01*
G37*
G36*
X386233D02*X388001D01*
Y233191D01*
X387901D01*
X387702Y233172D01*
X387507Y233137D01*
X387446Y233118D01*
X387390Y233090D01*
X387338Y233053D01*
X387293Y233009D01*
X387256Y232958D01*
X387227Y232902D01*
X387207Y232842D01*
X387196Y232780D01*
X387196Y232717D01*
X387205Y232654D01*
X387224Y232594D01*
X387252Y232537D01*
X387289Y232486D01*
X387333Y232441D01*
X387384Y232403D01*
X387440Y232374D01*
X387500Y232354D01*
X387562Y232343D01*
X387625Y232343D01*
X387688Y232353D01*
X387811Y232378D01*
X387937Y232389D01*
X388001D01*
Y229611D01*
X387937D01*
X387811Y229622D01*
X387687Y229645D01*
X387625Y229656D01*
X387562Y229655D01*
X387500Y229645D01*
X387440Y229625D01*
X387385Y229596D01*
X387334Y229558D01*
X387290Y229513D01*
X387253Y229462D01*
X387225Y229406D01*
X387206Y229346D01*
X387197Y229283D01*
X387198Y229220D01*
X387208Y229158D01*
X387228Y229099D01*
X387257Y229043D01*
X387294Y228992D01*
X387339Y228948D01*
X387391Y228911D01*
X387447Y228883D01*
X387507Y228866D01*
X387702Y228828D01*
X387901Y228810D01*
X388001D01*
Y216800D01*
X386233D01*
Y230196D01*
X386283Y230196D01*
X386346Y230205D01*
X386406Y230224D01*
X386463Y230252D01*
X386514Y230289D01*
X386559Y230333D01*
X386597Y230384D01*
X386626Y230440D01*
X386646Y230500D01*
X386657Y230562D01*
X386657Y230625D01*
X386647Y230688D01*
X386622Y230811D01*
X386611Y230937D01*
Y231063D01*
X386622Y231189D01*
X386645Y231313D01*
X386656Y231375D01*
X386655Y231438D01*
X386645Y231500D01*
X386625Y231560D01*
X386596Y231615D01*
X386558Y231666D01*
X386513Y231710D01*
X386462Y231747D01*
X386406Y231775D01*
X386346Y231794D01*
X386283Y231803D01*
X386233Y231803D01*
Y236700D01*
G37*
G36*
X380001Y237603D02*X380042Y237502D01*
X380222Y237208D01*
X380446Y236946D01*
X380708Y236722D01*
X381002Y236542D01*
X381321Y236410D01*
X381656Y236330D01*
X382000Y236303D01*
X382344Y236330D01*
X382679Y236410D01*
X382998Y236542D01*
X383255Y236700D01*
X386233D01*
Y231803D01*
X386220Y231802D01*
X386158Y231792D01*
X386099Y231772D01*
X386043Y231743D01*
X385992Y231706D01*
X385948Y231661D01*
X385911Y231609D01*
X385883Y231553D01*
X385866Y231493D01*
X385828Y231298D01*
X385810Y231099D01*
Y230901D01*
X385828Y230702D01*
X385863Y230507D01*
X385882Y230446D01*
X385910Y230390D01*
X385947Y230338D01*
X385991Y230293D01*
X386042Y230256D01*
X386098Y230227D01*
X386158Y230207D01*
X386220Y230196D01*
X386233Y230196D01*
Y216800D01*
X380755D01*
X380498Y216958D01*
X380179Y217090D01*
X380001Y217133D01*
Y237603D01*
G37*
G36*
Y264450D02*X397700D01*
Y233846D01*
X391823Y239723D01*
X391777Y239777D01*
X391561Y239961D01*
X391561Y239961D01*
X391320Y240109D01*
X391058Y240217D01*
X390782Y240283D01*
X390500Y240306D01*
X390429Y240300D01*
X383255D01*
X382998Y240458D01*
X382679Y240590D01*
X382344Y240670D01*
X382000Y240697D01*
X381656Y240670D01*
X381321Y240590D01*
X381002Y240458D01*
X380708Y240278D01*
X380446Y240054D01*
X380222Y239792D01*
X380042Y239498D01*
X380001Y239397D01*
Y264450D01*
G37*
G36*
X378233Y213207D02*X378502Y213042D01*
X378821Y212910D01*
X379156Y212830D01*
X379500Y212803D01*
X379844Y212830D01*
X380001Y212867D01*
Y211191D01*
X379901D01*
X379702Y211172D01*
X379507Y211137D01*
X379446Y211118D01*
X379390Y211090D01*
X379338Y211053D01*
X379293Y211009D01*
X379256Y210958D01*
X379227Y210902D01*
X379207Y210842D01*
X379196Y210780D01*
X379196Y210717D01*
X379205Y210654D01*
X379224Y210594D01*
X379252Y210537D01*
X379289Y210486D01*
X379333Y210441D01*
X379384Y210403D01*
X379440Y210374D01*
X379500Y210354D01*
X379562Y210343D01*
X379625Y210343D01*
X379688Y210353D01*
X379811Y210378D01*
X379937Y210389D01*
X380001D01*
Y207611D01*
X379937D01*
X379811Y207622D01*
X379687Y207645D01*
X379625Y207656D01*
X379562Y207655D01*
X379500Y207645D01*
X379440Y207625D01*
X379385Y207596D01*
X379334Y207558D01*
X379290Y207513D01*
X379253Y207462D01*
X379225Y207406D01*
X379206Y207346D01*
X379197Y207283D01*
X379198Y207220D01*
X379208Y207158D01*
X379228Y207099D01*
X379257Y207043D01*
X379294Y206992D01*
X379339Y206948D01*
X379391Y206911D01*
X379447Y206883D01*
X379507Y206866D01*
X379702Y206828D01*
X379901Y206810D01*
X380001D01*
Y206550D01*
X378233D01*
Y208196D01*
X378283Y208196D01*
X378346Y208205D01*
X378406Y208224D01*
X378463Y208252D01*
X378514Y208289D01*
X378559Y208333D01*
X378597Y208384D01*
X378626Y208440D01*
X378646Y208500D01*
X378657Y208562D01*
X378657Y208625D01*
X378647Y208688D01*
X378622Y208811D01*
X378611Y208937D01*
Y209063D01*
X378622Y209189D01*
X378645Y209313D01*
X378656Y209375D01*
X378655Y209438D01*
X378645Y209500D01*
X378625Y209560D01*
X378596Y209615D01*
X378558Y209666D01*
X378513Y209710D01*
X378462Y209747D01*
X378406Y209775D01*
X378346Y209794D01*
X378283Y209803D01*
X378233Y209803D01*
Y213207D01*
G37*
G36*
Y264450D02*X380001D01*
Y239397D01*
X379910Y239179D01*
X379830Y238844D01*
X379803Y238500D01*
X379830Y238156D01*
X379910Y237821D01*
X380001Y237603D01*
Y217133D01*
X379844Y217170D01*
X379500Y217197D01*
X379156Y217170D01*
X378821Y217090D01*
X378502Y216958D01*
X378233Y216793D01*
Y264450D01*
G37*
G36*
X370767D02*X371725D01*
X371821Y264410D01*
X372156Y264330D01*
X372500Y264303D01*
X372844Y264330D01*
X373179Y264410D01*
X373275Y264450D01*
X378233D01*
Y216793D01*
X378208Y216778D01*
X377946Y216554D01*
X377722Y216292D01*
X377542Y215998D01*
X377410Y215679D01*
X377330Y215344D01*
X377303Y215000D01*
X377330Y214656D01*
X377410Y214321D01*
X377542Y214002D01*
X377722Y213708D01*
X377946Y213446D01*
X378208Y213222D01*
X378233Y213207D01*
Y209803D01*
X378220Y209802D01*
X378158Y209792D01*
X378099Y209772D01*
X378043Y209743D01*
X377992Y209706D01*
X377948Y209661D01*
X377911Y209609D01*
X377883Y209553D01*
X377866Y209493D01*
X377828Y209298D01*
X377810Y209099D01*
Y208901D01*
X377828Y208702D01*
X377863Y208507D01*
X377882Y208446D01*
X377910Y208390D01*
X377947Y208338D01*
X377991Y208293D01*
X378042Y208256D01*
X378098Y208227D01*
X378158Y208207D01*
X378220Y208196D01*
X378233Y208196D01*
Y206550D01*
X370767D01*
Y211197D01*
X370780Y211198D01*
X370842Y211208D01*
X370901Y211228D01*
X370957Y211257D01*
X371008Y211294D01*
X371052Y211339D01*
X371089Y211391D01*
X371117Y211447D01*
X371134Y211507D01*
X371172Y211702D01*
X371190Y211901D01*
Y212099D01*
X371172Y212298D01*
X371137Y212493D01*
X371118Y212554D01*
X371090Y212610D01*
X371053Y212662D01*
X371009Y212707D01*
X370958Y212744D01*
X370902Y212773D01*
X370842Y212793D01*
X370780Y212804D01*
X370767Y212804D01*
Y264450D01*
G37*
G36*
X369001D02*X370767D01*
Y212804D01*
X370717Y212804D01*
X370654Y212795D01*
X370594Y212776D01*
X370537Y212748D01*
X370486Y212711D01*
X370441Y212667D01*
X370403Y212616D01*
X370374Y212560D01*
X370354Y212500D01*
X370343Y212438D01*
X370343Y212375D01*
X370353Y212312D01*
X370378Y212189D01*
X370389Y212063D01*
Y211937D01*
X370378Y211811D01*
X370355Y211687D01*
X370344Y211625D01*
X370345Y211562D01*
X370355Y211500D01*
X370375Y211440D01*
X370404Y211385D01*
X370442Y211334D01*
X370487Y211290D01*
X370538Y211253D01*
X370594Y211225D01*
X370654Y211206D01*
X370717Y211197D01*
X370767Y211197D01*
Y206550D01*
X369001D01*
Y209810D01*
X369099D01*
X369298Y209828D01*
X369493Y209863D01*
X369554Y209882D01*
X369610Y209910D01*
X369662Y209947D01*
X369707Y209991D01*
X369744Y210042D01*
X369773Y210098D01*
X369793Y210158D01*
X369804Y210220D01*
X369804Y210283D01*
X369795Y210346D01*
X369776Y210406D01*
X369748Y210463D01*
X369711Y210514D01*
X369667Y210559D01*
X369616Y210597D01*
X369560Y210626D01*
X369500Y210646D01*
X369438Y210657D01*
X369375Y210657D01*
X369312Y210647D01*
X369189Y210622D01*
X369063Y210611D01*
X369001D01*
Y213389D01*
X369063D01*
X369189Y213378D01*
X369313Y213355D01*
X369375Y213344D01*
X369438Y213345D01*
X369500Y213355D01*
X369560Y213375D01*
X369615Y213404D01*
X369666Y213442D01*
X369710Y213487D01*
X369747Y213538D01*
X369775Y213594D01*
X369794Y213654D01*
X369803Y213717D01*
X369802Y213780D01*
X369792Y213842D01*
X369772Y213901D01*
X369743Y213957D01*
X369706Y214008D01*
X369661Y214052D01*
X369609Y214089D01*
X369553Y214117D01*
X369493Y214134D01*
X369298Y214172D01*
X369099Y214191D01*
X369001D01*
Y264450D01*
G37*
G36*
X367233D02*X369001D01*
Y214191D01*
X368901D01*
X368702Y214172D01*
X368507Y214137D01*
X368446Y214118D01*
X368390Y214090D01*
X368338Y214053D01*
X368293Y214009D01*
X368256Y213958D01*
X368227Y213902D01*
X368207Y213842D01*
X368196Y213780D01*
X368196Y213717D01*
X368205Y213654D01*
X368224Y213594D01*
X368252Y213537D01*
X368289Y213486D01*
X368333Y213441D01*
X368384Y213403D01*
X368440Y213374D01*
X368500Y213354D01*
X368562Y213343D01*
X368625Y213343D01*
X368688Y213353D01*
X368811Y213378D01*
X368937Y213389D01*
X369001D01*
Y210611D01*
X368937D01*
X368811Y210622D01*
X368687Y210645D01*
X368625Y210656D01*
X368562Y210655D01*
X368500Y210645D01*
X368440Y210625D01*
X368385Y210596D01*
X368334Y210558D01*
X368290Y210513D01*
X368253Y210462D01*
X368225Y210406D01*
X368206Y210346D01*
X368197Y210283D01*
X368198Y210220D01*
X368208Y210158D01*
X368228Y210099D01*
X368257Y210043D01*
X368294Y209992D01*
X368339Y209948D01*
X368391Y209911D01*
X368447Y209883D01*
X368507Y209866D01*
X368702Y209828D01*
X368901Y209810D01*
X369001D01*
Y206550D01*
X367233D01*
Y211196D01*
X367283Y211196D01*
X367346Y211205D01*
X367406Y211224D01*
X367463Y211252D01*
X367514Y211289D01*
X367559Y211333D01*
X367597Y211384D01*
X367626Y211440D01*
X367646Y211500D01*
X367657Y211562D01*
X367657Y211625D01*
X367647Y211688D01*
X367622Y211811D01*
X367611Y211937D01*
Y212063D01*
X367622Y212189D01*
X367645Y212313D01*
X367656Y212375D01*
X367655Y212438D01*
X367645Y212500D01*
X367625Y212560D01*
X367596Y212615D01*
X367558Y212666D01*
X367513Y212710D01*
X367462Y212747D01*
X367406Y212775D01*
X367346Y212794D01*
X367283Y212803D01*
X367233Y212803D01*
Y264450D01*
G37*
G36*
X364501D02*X367233D01*
Y212803D01*
X367220Y212802D01*
X367158Y212792D01*
X367099Y212772D01*
X367043Y212743D01*
X366992Y212706D01*
X366948Y212661D01*
X366911Y212609D01*
X366883Y212553D01*
X366866Y212493D01*
X366828Y212298D01*
X366810Y212099D01*
Y211901D01*
X366828Y211702D01*
X366863Y211507D01*
X366882Y211446D01*
X366910Y211390D01*
X366947Y211338D01*
X366991Y211293D01*
X367042Y211256D01*
X367098Y211227D01*
X367158Y211207D01*
X367220Y211196D01*
X367233Y211196D01*
Y206550D01*
X364501D01*
Y264450D01*
G37*
G36*
X388267Y338800D02*X393358D01*
X393500Y338792D01*
X394267Y338767D01*
X395028Y338666D01*
X395778Y338500D01*
X396510Y338269D01*
X397219Y337976D01*
X397900Y337621D01*
X398547Y337209D01*
X399157Y336741D01*
X399723Y336223D01*
X400241Y335657D01*
X400709Y335047D01*
X401121Y334400D01*
X401476Y333719D01*
X401769Y333010D01*
X402000Y332278D01*
X402166Y331528D01*
X402267Y330767D01*
X402300Y330000D01*
Y299590D01*
X402279Y299861D01*
X402279Y299861D01*
X402194Y300213D01*
X402056Y300547D01*
X401866Y300856D01*
X401631Y301131D01*
X401563Y301190D01*
X399626Y303126D01*
X399356Y303366D01*
X399047Y303556D01*
X398713Y303694D01*
X398361Y303779D01*
X398000Y303807D01*
X397639Y303779D01*
X397287Y303694D01*
X396953Y303556D01*
X396644Y303366D01*
X396369Y303131D01*
X396134Y302856D01*
X395944Y302547D01*
X395806Y302213D01*
X395721Y301861D01*
X395693Y301500D01*
X395721Y301139D01*
X395806Y300787D01*
X395944Y300453D01*
X396134Y300144D01*
X396374Y299874D01*
X397700Y298547D01*
Y268550D01*
X388267D01*
Y280697D01*
X388280Y280698D01*
X388342Y280708D01*
X388401Y280728D01*
X388457Y280757D01*
X388508Y280794D01*
X388552Y280839D01*
X388589Y280891D01*
X388617Y280947D01*
X388634Y281007D01*
X388672Y281202D01*
X388690Y281401D01*
Y281599D01*
X388672Y281798D01*
X388637Y281993D01*
X388618Y282054D01*
X388590Y282110D01*
X388553Y282162D01*
X388509Y282207D01*
X388458Y282244D01*
X388402Y282273D01*
X388342Y282293D01*
X388280Y282304D01*
X388267Y282304D01*
Y311180D01*
X390087Y311323D01*
X392123Y311812D01*
X394057Y312613D01*
X395842Y313707D01*
X397434Y315066D01*
X398793Y316658D01*
X399887Y318443D01*
X400688Y320377D01*
X401177Y322413D01*
X401300Y324500D01*
X401177Y326587D01*
X400688Y328623D01*
X399887Y330557D01*
X398793Y332342D01*
X397434Y333934D01*
X395842Y335293D01*
X394057Y336387D01*
X392123Y337188D01*
X390087Y337677D01*
X388267Y337820D01*
Y338800D01*
G37*
G36*
Y268550D02*X386501D01*
Y279310D01*
X386599D01*
X386798Y279328D01*
X386993Y279363D01*
X387054Y279382D01*
X387110Y279410D01*
X387162Y279447D01*
X387207Y279491D01*
X387244Y279542D01*
X387273Y279598D01*
X387293Y279658D01*
X387304Y279720D01*
X387304Y279783D01*
X387295Y279846D01*
X387276Y279906D01*
X387248Y279963D01*
X387211Y280014D01*
X387167Y280059D01*
X387116Y280097D01*
X387060Y280126D01*
X387000Y280146D01*
X386938Y280157D01*
X386875Y280157D01*
X386812Y280147D01*
X386689Y280122D01*
X386563Y280111D01*
X386501D01*
Y282889D01*
X386563D01*
X386689Y282878D01*
X386813Y282855D01*
X386875Y282844D01*
X386938Y282845D01*
X387000Y282855D01*
X387060Y282875D01*
X387115Y282904D01*
X387166Y282942D01*
X387210Y282987D01*
X387247Y283038D01*
X387275Y283094D01*
X387294Y283154D01*
X387303Y283217D01*
X387302Y283280D01*
X387292Y283342D01*
X387272Y283401D01*
X387243Y283457D01*
X387206Y283508D01*
X387161Y283552D01*
X387109Y283589D01*
X387053Y283617D01*
X386993Y283634D01*
X386798Y283672D01*
X386599Y283690D01*
X386501D01*
Y311277D01*
X388000Y311159D01*
X388267Y311180D01*
Y282304D01*
X388217Y282304D01*
X388154Y282295D01*
X388094Y282276D01*
X388037Y282248D01*
X387986Y282211D01*
X387941Y282167D01*
X387903Y282116D01*
X387874Y282060D01*
X387854Y282000D01*
X387843Y281938D01*
X387843Y281875D01*
X387853Y281812D01*
X387878Y281689D01*
X387889Y281563D01*
Y281437D01*
X387878Y281311D01*
X387855Y281187D01*
X387844Y281125D01*
X387845Y281062D01*
X387855Y281000D01*
X387875Y280940D01*
X387904Y280885D01*
X387942Y280834D01*
X387987Y280790D01*
X388038Y280753D01*
X388094Y280725D01*
X388154Y280706D01*
X388217Y280697D01*
X388267Y280697D01*
Y268550D01*
G37*
G36*
X386501Y338800D02*X388267D01*
Y337820D01*
X388000Y337841D01*
X386501Y337723D01*
Y338800D01*
G37*
G36*
X384733Y311606D02*X385913Y311323D01*
X386501Y311277D01*
Y283690D01*
X386401D01*
X386202Y283672D01*
X386007Y283637D01*
X385946Y283618D01*
X385890Y283590D01*
X385838Y283553D01*
X385793Y283509D01*
X385756Y283458D01*
X385727Y283402D01*
X385707Y283342D01*
X385696Y283280D01*
X385696Y283217D01*
X385705Y283154D01*
X385724Y283094D01*
X385752Y283037D01*
X385789Y282986D01*
X385833Y282941D01*
X385884Y282903D01*
X385940Y282874D01*
X386000Y282854D01*
X386062Y282843D01*
X386125Y282843D01*
X386188Y282853D01*
X386311Y282878D01*
X386437Y282889D01*
X386501D01*
Y280111D01*
X386437D01*
X386311Y280122D01*
X386187Y280145D01*
X386125Y280156D01*
X386062Y280155D01*
X386000Y280145D01*
X385940Y280125D01*
X385885Y280096D01*
X385834Y280058D01*
X385790Y280013D01*
X385753Y279962D01*
X385725Y279906D01*
X385706Y279846D01*
X385697Y279783D01*
X385698Y279720D01*
X385708Y279658D01*
X385728Y279599D01*
X385757Y279543D01*
X385794Y279492D01*
X385839Y279448D01*
X385891Y279411D01*
X385947Y279383D01*
X386007Y279366D01*
X386202Y279328D01*
X386401Y279310D01*
X386501D01*
Y268550D01*
X384733D01*
Y280696D01*
X384783Y280696D01*
X384846Y280705D01*
X384906Y280724D01*
X384963Y280752D01*
X385014Y280789D01*
X385059Y280833D01*
X385097Y280884D01*
X385126Y280940D01*
X385146Y281000D01*
X385157Y281062D01*
X385157Y281125D01*
X385147Y281188D01*
X385122Y281311D01*
X385111Y281437D01*
Y281563D01*
X385122Y281689D01*
X385145Y281813D01*
X385156Y281875D01*
X385155Y281938D01*
X385145Y282000D01*
X385125Y282060D01*
X385096Y282115D01*
X385058Y282166D01*
X385013Y282210D01*
X384962Y282247D01*
X384906Y282275D01*
X384846Y282294D01*
X384783Y282303D01*
X384733Y282303D01*
Y311606D01*
G37*
G36*
Y338800D02*X386501D01*
Y337723D01*
X385913Y337677D01*
X384733Y337394D01*
Y338800D01*
G37*
G36*
X367052Y275145D02*X364501Y277696D01*
Y320409D01*
X364546Y320427D01*
X364708Y320526D01*
X364851Y320649D01*
X364882Y320685D01*
X366552Y322355D01*
X366656Y322330D01*
X367000Y322303D01*
X367344Y322330D01*
X367679Y322410D01*
X367998Y322542D01*
X368292Y322722D01*
X368554Y322946D01*
X368778Y323208D01*
X368958Y323502D01*
X369090Y323821D01*
X369170Y324156D01*
X369190Y324500D01*
X369170Y324844D01*
X369090Y325179D01*
X368958Y325498D01*
X368778Y325792D01*
X368554Y326054D01*
X368292Y326278D01*
X367998Y326458D01*
X367679Y326590D01*
X367344Y326670D01*
X367000Y326697D01*
X366656Y326670D01*
X366321Y326590D01*
X366002Y326458D01*
X365708Y326278D01*
X365446Y326054D01*
X365222Y325792D01*
X365042Y325498D01*
X364910Y325179D01*
X364830Y324844D01*
X364803Y324500D01*
X364830Y324156D01*
X364855Y324052D01*
X364501Y323698D01*
Y338800D01*
X384733D01*
Y337394D01*
X383877Y337188D01*
X381943Y336387D01*
X380158Y335293D01*
X378566Y333934D01*
X377207Y332342D01*
X376113Y330557D01*
X375312Y328623D01*
X374823Y326587D01*
X374659Y324500D01*
X374823Y322413D01*
X375312Y320377D01*
X376113Y318443D01*
X377207Y316658D01*
X378566Y315066D01*
X380158Y313707D01*
X381943Y312613D01*
X383877Y311812D01*
X384733Y311606D01*
Y282303D01*
X384720Y282302D01*
X384658Y282292D01*
X384599Y282272D01*
X384543Y282243D01*
X384492Y282206D01*
X384448Y282161D01*
X384411Y282109D01*
X384383Y282053D01*
X384366Y281993D01*
X384328Y281798D01*
X384310Y281599D01*
Y281401D01*
X384328Y281202D01*
X384363Y281007D01*
X384382Y280946D01*
X384410Y280890D01*
X384447Y280838D01*
X384491Y280793D01*
X384542Y280756D01*
X384598Y280727D01*
X384658Y280707D01*
X384720Y280696D01*
X384733Y280696D01*
Y268550D01*
X373275D01*
X373179Y268590D01*
X372844Y268670D01*
X372500Y268697D01*
X372156Y268670D01*
X371821Y268590D01*
X371725Y268550D01*
X364501D01*
Y274302D01*
X365355Y273448D01*
X365330Y273344D01*
X365303Y273000D01*
X365330Y272656D01*
X365410Y272321D01*
X365542Y272002D01*
X365722Y271708D01*
X365946Y271446D01*
X366208Y271222D01*
X366502Y271042D01*
X366821Y270910D01*
X367156Y270830D01*
X367500Y270803D01*
X367844Y270830D01*
X368179Y270910D01*
X368498Y271042D01*
X368792Y271222D01*
X369054Y271446D01*
X369278Y271708D01*
X369458Y272002D01*
X369590Y272321D01*
X369670Y272656D01*
X369690Y273000D01*
X369670Y273344D01*
X369590Y273679D01*
X369458Y273998D01*
X369278Y274292D01*
X369054Y274554D01*
X368792Y274778D01*
X368498Y274958D01*
X368179Y275090D01*
X367844Y275170D01*
X367500Y275197D01*
X367156Y275170D01*
X367052Y275145D01*
G37*
G36*
X362733Y146700D02*X364501D01*
Y27200D01*
X362733D01*
Y146700D01*
G37*
G36*
Y201834D02*X363349Y202450D01*
X364501D01*
Y193190D01*
X364401D01*
X364202Y193172D01*
X364007Y193137D01*
X363946Y193118D01*
X363890Y193090D01*
X363838Y193053D01*
X363793Y193009D01*
X363756Y192958D01*
X363727Y192902D01*
X363707Y192842D01*
X363696Y192780D01*
X363696Y192717D01*
X363705Y192654D01*
X363724Y192594D01*
X363752Y192537D01*
X363789Y192486D01*
X363833Y192441D01*
X363884Y192403D01*
X363940Y192374D01*
X364000Y192354D01*
X364062Y192343D01*
X364125Y192343D01*
X364188Y192353D01*
X364311Y192378D01*
X364437Y192389D01*
X364501D01*
Y189611D01*
X364437D01*
X364311Y189622D01*
X364187Y189645D01*
X364125Y189656D01*
X364062Y189655D01*
X364000Y189645D01*
X363940Y189625D01*
X363885Y189596D01*
X363834Y189558D01*
X363790Y189513D01*
X363753Y189462D01*
X363725Y189406D01*
X363706Y189346D01*
X363697Y189283D01*
X363698Y189220D01*
X363708Y189158D01*
X363728Y189099D01*
X363757Y189043D01*
X363794Y188992D01*
X363839Y188948D01*
X363891Y188911D01*
X363947Y188883D01*
X364007Y188866D01*
X364202Y188828D01*
X364401Y188810D01*
X364501D01*
Y150300D01*
X362733D01*
Y190196D01*
X362783Y190196D01*
X362846Y190205D01*
X362906Y190224D01*
X362963Y190252D01*
X363014Y190289D01*
X363059Y190333D01*
X363097Y190384D01*
X363126Y190440D01*
X363146Y190500D01*
X363157Y190562D01*
X363157Y190625D01*
X363147Y190688D01*
X363122Y190811D01*
X363111Y190937D01*
Y191063D01*
X363122Y191189D01*
X363145Y191313D01*
X363156Y191375D01*
X363155Y191438D01*
X363145Y191500D01*
X363125Y191560D01*
X363096Y191615D01*
X363058Y191666D01*
X363013Y191710D01*
X362962Y191747D01*
X362906Y191775D01*
X362846Y191794D01*
X362783Y191803D01*
X362733Y191803D01*
Y201834D01*
G37*
G36*
Y264450D02*X364501D01*
Y206550D01*
X362733D01*
Y264450D01*
G37*
G36*
X364501Y268550D02*X362733D01*
Y276070D01*
X364501Y274302D01*
Y268550D01*
G37*
G36*
X360001Y146303D02*X360344Y146330D01*
X360679Y146410D01*
X360998Y146542D01*
X361255Y146700D01*
X362733D01*
Y27200D01*
X360001D01*
Y146303D01*
G37*
G36*
X361767Y200868D02*X362733Y201834D01*
Y191803D01*
X362720Y191802D01*
X362658Y191792D01*
X362599Y191772D01*
X362543Y191743D01*
X362492Y191706D01*
X362448Y191661D01*
X362411Y191609D01*
X362383Y191553D01*
X362366Y191493D01*
X362328Y191298D01*
X362310Y191099D01*
Y190901D01*
X362328Y190702D01*
X362363Y190507D01*
X362382Y190446D01*
X362410Y190390D01*
X362447Y190338D01*
X362491Y190293D01*
X362542Y190256D01*
X362598Y190227D01*
X362658Y190207D01*
X362720Y190196D01*
X362733Y190196D01*
Y150300D01*
X361767D01*
Y167197D01*
X361780Y167198D01*
X361842Y167208D01*
X361901Y167228D01*
X361957Y167257D01*
X362008Y167294D01*
X362052Y167339D01*
X362089Y167391D01*
X362117Y167447D01*
X362134Y167507D01*
X362172Y167702D01*
X362190Y167901D01*
Y168099D01*
X362172Y168298D01*
X362137Y168493D01*
X362118Y168554D01*
X362090Y168610D01*
X362053Y168662D01*
X362009Y168707D01*
X361958Y168744D01*
X361902Y168773D01*
X361842Y168793D01*
X361780Y168804D01*
X361767Y168804D01*
Y200868D01*
G37*
G36*
X360001Y199102D02*X361767Y200868D01*
Y168804D01*
X361717Y168804D01*
X361654Y168795D01*
X361594Y168776D01*
X361537Y168748D01*
X361486Y168711D01*
X361441Y168667D01*
X361403Y168616D01*
X361374Y168560D01*
X361354Y168500D01*
X361343Y168438D01*
X361343Y168375D01*
X361353Y168312D01*
X361378Y168189D01*
X361389Y168063D01*
Y167937D01*
X361378Y167811D01*
X361355Y167687D01*
X361344Y167625D01*
X361345Y167562D01*
X361355Y167500D01*
X361375Y167440D01*
X361404Y167385D01*
X361442Y167334D01*
X361487Y167290D01*
X361538Y167253D01*
X361594Y167225D01*
X361654Y167206D01*
X361717Y167197D01*
X361767Y167197D01*
Y150300D01*
X361255D01*
X360998Y150458D01*
X360679Y150590D01*
X360344Y150670D01*
X360001Y150697D01*
Y165810D01*
X360099D01*
X360298Y165828D01*
X360493Y165863D01*
X360554Y165882D01*
X360610Y165910D01*
X360662Y165947D01*
X360707Y165991D01*
X360744Y166042D01*
X360773Y166098D01*
X360793Y166158D01*
X360804Y166220D01*
X360804Y166283D01*
X360795Y166346D01*
X360776Y166406D01*
X360748Y166463D01*
X360711Y166514D01*
X360667Y166559D01*
X360616Y166597D01*
X360560Y166626D01*
X360500Y166646D01*
X360438Y166657D01*
X360375Y166657D01*
X360312Y166647D01*
X360189Y166622D01*
X360063Y166611D01*
X360001D01*
Y169389D01*
X360063D01*
X360189Y169378D01*
X360313Y169355D01*
X360375Y169344D01*
X360438Y169345D01*
X360500Y169355D01*
X360560Y169375D01*
X360615Y169404D01*
X360666Y169442D01*
X360710Y169487D01*
X360747Y169538D01*
X360775Y169594D01*
X360794Y169654D01*
X360803Y169717D01*
X360802Y169780D01*
X360792Y169842D01*
X360772Y169901D01*
X360743Y169957D01*
X360706Y170008D01*
X360661Y170052D01*
X360609Y170089D01*
X360553Y170117D01*
X360493Y170134D01*
X360298Y170172D01*
X360099Y170190D01*
X360001D01*
Y199102D01*
G37*
G36*
Y264450D02*X360725D01*
X360821Y264410D01*
X361156Y264330D01*
X361500Y264303D01*
X361844Y264330D01*
X362179Y264410D01*
X362275Y264450D01*
X362733D01*
Y206550D01*
X362580D01*
X362500Y206556D01*
X362178Y206531D01*
X361865Y206456D01*
X361566Y206332D01*
X361291Y206164D01*
X361291Y206163D01*
X361046Y205954D01*
X360994Y205893D01*
X360001Y204900D01*
Y264450D01*
G37*
G36*
X362733Y268550D02*X362275D01*
X362179Y268590D01*
X361844Y268670D01*
X361500Y268697D01*
X361156Y268670D01*
X360821Y268590D01*
X360725Y268550D01*
X360001D01*
Y278802D01*
X362733Y276070D01*
Y268550D01*
G37*
G36*
X358233Y147196D02*X358446Y146946D01*
X358708Y146722D01*
X359002Y146542D01*
X359321Y146410D01*
X359656Y146330D01*
X360000Y146303D01*
X360001Y146303D01*
Y27200D01*
X358233D01*
Y147196D01*
G37*
G36*
Y197334D02*X360001Y199102D01*
Y170190D01*
X359901D01*
X359702Y170172D01*
X359507Y170137D01*
X359446Y170118D01*
X359390Y170090D01*
X359338Y170053D01*
X359293Y170009D01*
X359256Y169958D01*
X359227Y169902D01*
X359207Y169842D01*
X359196Y169780D01*
X359196Y169717D01*
X359205Y169654D01*
X359224Y169594D01*
X359252Y169537D01*
X359289Y169486D01*
X359333Y169441D01*
X359384Y169403D01*
X359440Y169374D01*
X359500Y169354D01*
X359562Y169343D01*
X359625Y169343D01*
X359688Y169353D01*
X359811Y169378D01*
X359937Y169389D01*
X360001D01*
Y166611D01*
X359937D01*
X359811Y166622D01*
X359687Y166645D01*
X359625Y166656D01*
X359562Y166655D01*
X359500Y166645D01*
X359440Y166625D01*
X359385Y166596D01*
X359334Y166558D01*
X359290Y166513D01*
X359253Y166462D01*
X359225Y166406D01*
X359206Y166346D01*
X359197Y166283D01*
X359198Y166220D01*
X359208Y166158D01*
X359228Y166099D01*
X359257Y166043D01*
X359294Y165992D01*
X359339Y165948D01*
X359391Y165911D01*
X359447Y165883D01*
X359507Y165866D01*
X359702Y165828D01*
X359901Y165810D01*
X360001D01*
Y150697D01*
X360000Y150697D01*
X359656Y150670D01*
X359321Y150590D01*
X359002Y150458D01*
X358708Y150278D01*
X358446Y150054D01*
X358233Y149804D01*
Y167196D01*
X358283Y167196D01*
X358346Y167205D01*
X358406Y167224D01*
X358463Y167252D01*
X358514Y167289D01*
X358559Y167333D01*
X358597Y167384D01*
X358626Y167440D01*
X358646Y167500D01*
X358657Y167562D01*
X358657Y167625D01*
X358647Y167688D01*
X358622Y167811D01*
X358611Y167937D01*
Y168063D01*
X358622Y168189D01*
X358645Y168313D01*
X358656Y168375D01*
X358655Y168438D01*
X358645Y168500D01*
X358625Y168560D01*
X358596Y168615D01*
X358558Y168666D01*
X358513Y168710D01*
X358462Y168747D01*
X358406Y168775D01*
X358346Y168794D01*
X358283Y168803D01*
X358233Y168803D01*
Y197334D01*
G37*
G36*
Y264450D02*X360001D01*
Y204900D01*
X358233Y203132D01*
Y264450D01*
G37*
G36*
X360001Y268550D02*X358233D01*
Y280570D01*
X360001Y278802D01*
Y268550D01*
G37*
G36*
X357767Y196868D02*X358233Y197334D01*
Y168803D01*
X358220Y168802D01*
X358158Y168792D01*
X358099Y168772D01*
X358043Y168743D01*
X357992Y168706D01*
X357948Y168661D01*
X357911Y168609D01*
X357883Y168553D01*
X357866Y168493D01*
X357828Y168298D01*
X357810Y168099D01*
Y167901D01*
X357828Y167702D01*
X357863Y167507D01*
X357882Y167446D01*
X357910Y167390D01*
X357947Y167338D01*
X357991Y167293D01*
X358042Y167256D01*
X358098Y167227D01*
X358158Y167207D01*
X358220Y167196D01*
X358233Y167196D01*
Y149804D01*
X358222Y149792D01*
X358042Y149498D01*
X357910Y149179D01*
X357830Y148844D01*
X357803Y148500D01*
X357830Y148156D01*
X357910Y147821D01*
X358042Y147502D01*
X358222Y147208D01*
X358233Y147196D01*
Y27200D01*
X357767D01*
Y131197D01*
X357780Y131198D01*
X357842Y131208D01*
X357901Y131228D01*
X357957Y131257D01*
X358008Y131294D01*
X358052Y131339D01*
X358089Y131391D01*
X358117Y131447D01*
X358134Y131507D01*
X358172Y131702D01*
X358190Y131901D01*
Y132099D01*
X358172Y132298D01*
X358137Y132493D01*
X358118Y132554D01*
X358090Y132610D01*
X358053Y132662D01*
X358009Y132707D01*
X357958Y132744D01*
X357902Y132773D01*
X357842Y132793D01*
X357780Y132804D01*
X357767Y132804D01*
Y196868D01*
G37*
G36*
X356001Y195102D02*X357767Y196868D01*
Y132804D01*
X357717Y132804D01*
X357654Y132795D01*
X357594Y132776D01*
X357537Y132748D01*
X357486Y132711D01*
X357441Y132667D01*
X357403Y132616D01*
X357374Y132560D01*
X357354Y132500D01*
X357343Y132438D01*
X357343Y132375D01*
X357353Y132312D01*
X357378Y132189D01*
X357389Y132063D01*
Y131937D01*
X357378Y131811D01*
X357355Y131687D01*
X357344Y131625D01*
X357345Y131562D01*
X357355Y131500D01*
X357375Y131440D01*
X357404Y131385D01*
X357442Y131334D01*
X357487Y131290D01*
X357538Y131253D01*
X357594Y131225D01*
X357654Y131206D01*
X357717Y131197D01*
X357767Y131197D01*
Y27200D01*
X356001D01*
Y129810D01*
X356099D01*
X356298Y129828D01*
X356493Y129863D01*
X356554Y129882D01*
X356610Y129910D01*
X356662Y129947D01*
X356707Y129991D01*
X356744Y130042D01*
X356773Y130098D01*
X356793Y130158D01*
X356804Y130220D01*
X356804Y130283D01*
X356795Y130346D01*
X356776Y130406D01*
X356748Y130463D01*
X356711Y130514D01*
X356667Y130559D01*
X356616Y130597D01*
X356560Y130626D01*
X356500Y130646D01*
X356438Y130657D01*
X356375Y130657D01*
X356312Y130647D01*
X356189Y130622D01*
X356063Y130611D01*
X356001D01*
Y133389D01*
X356063D01*
X356189Y133378D01*
X356313Y133355D01*
X356375Y133344D01*
X356438Y133345D01*
X356500Y133355D01*
X356560Y133375D01*
X356615Y133404D01*
X356666Y133442D01*
X356710Y133487D01*
X356747Y133538D01*
X356775Y133594D01*
X356794Y133654D01*
X356803Y133717D01*
X356802Y133780D01*
X356792Y133842D01*
X356772Y133901D01*
X356743Y133957D01*
X356706Y134008D01*
X356661Y134052D01*
X356609Y134089D01*
X356553Y134117D01*
X356493Y134134D01*
X356298Y134172D01*
X356099Y134190D01*
X356001D01*
Y195102D01*
G37*
G36*
X354233Y181433D02*X354498Y181542D01*
X354792Y181722D01*
X355054Y181946D01*
X355278Y182208D01*
X355458Y182502D01*
X355590Y182821D01*
X355670Y183156D01*
X355690Y183500D01*
X355670Y183844D01*
X355590Y184179D01*
X355550Y184275D01*
Y194651D01*
X356001Y195102D01*
Y134190D01*
X355901D01*
X355702Y134172D01*
X355507Y134137D01*
X355446Y134118D01*
X355390Y134090D01*
X355338Y134053D01*
X355293Y134009D01*
X355256Y133958D01*
X355227Y133902D01*
X355207Y133842D01*
X355196Y133780D01*
X355196Y133717D01*
X355205Y133654D01*
X355224Y133594D01*
X355252Y133537D01*
X355289Y133486D01*
X355333Y133441D01*
X355384Y133403D01*
X355440Y133374D01*
X355500Y133354D01*
X355562Y133343D01*
X355625Y133343D01*
X355688Y133353D01*
X355811Y133378D01*
X355937Y133389D01*
X356001D01*
Y130611D01*
X355937D01*
X355811Y130622D01*
X355687Y130645D01*
X355625Y130656D01*
X355562Y130655D01*
X355500Y130645D01*
X355440Y130625D01*
X355385Y130596D01*
X355334Y130558D01*
X355290Y130513D01*
X355253Y130462D01*
X355225Y130406D01*
X355206Y130346D01*
X355197Y130283D01*
X355198Y130220D01*
X355208Y130158D01*
X355228Y130099D01*
X355257Y130043D01*
X355294Y129992D01*
X355339Y129948D01*
X355391Y129911D01*
X355447Y129883D01*
X355507Y129866D01*
X355702Y129828D01*
X355901Y129810D01*
X356001D01*
Y27200D01*
X354233D01*
Y131196D01*
X354283Y131196D01*
X354346Y131205D01*
X354406Y131224D01*
X354463Y131252D01*
X354514Y131289D01*
X354559Y131333D01*
X354597Y131384D01*
X354626Y131440D01*
X354646Y131500D01*
X354657Y131562D01*
X354657Y131625D01*
X354647Y131688D01*
X354622Y131811D01*
X354611Y131937D01*
Y132063D01*
X354622Y132189D01*
X354645Y132313D01*
X354656Y132375D01*
X354655Y132438D01*
X354645Y132500D01*
X354625Y132560D01*
X354596Y132615D01*
X354558Y132666D01*
X354513Y132710D01*
X354462Y132747D01*
X354406Y132775D01*
X354346Y132794D01*
X354283Y132803D01*
X354233Y132803D01*
Y181433D01*
G37*
G36*
X352001Y181900D02*X352208Y181722D01*
X352502Y181542D01*
X352821Y181410D01*
X353156Y181330D01*
X353500Y181303D01*
X353844Y181330D01*
X354179Y181410D01*
X354233Y181433D01*
Y132803D01*
X354220Y132802D01*
X354158Y132792D01*
X354099Y132772D01*
X354043Y132743D01*
X353992Y132706D01*
X353948Y132661D01*
X353911Y132609D01*
X353883Y132553D01*
X353866Y132493D01*
X353828Y132298D01*
X353810Y132099D01*
Y131901D01*
X353828Y131702D01*
X353863Y131507D01*
X353882Y131446D01*
X353910Y131390D01*
X353947Y131338D01*
X353991Y131293D01*
X354042Y131256D01*
X354098Y131227D01*
X354158Y131207D01*
X354220Y131196D01*
X354233Y131196D01*
Y27200D01*
X352001D01*
Y181900D01*
G37*
G36*
X353767Y264450D02*X358233D01*
Y203132D01*
X353767Y198666D01*
Y261197D01*
X353780Y261198D01*
X353842Y261208D01*
X353901Y261228D01*
X353957Y261257D01*
X354008Y261294D01*
X354052Y261339D01*
X354089Y261391D01*
X354117Y261447D01*
X354134Y261507D01*
X354172Y261702D01*
X354190Y261901D01*
Y262099D01*
X354172Y262298D01*
X354137Y262493D01*
X354118Y262554D01*
X354090Y262610D01*
X354053Y262662D01*
X354009Y262707D01*
X353958Y262744D01*
X353902Y262773D01*
X353842Y262793D01*
X353780Y262804D01*
X353767Y262804D01*
Y264450D01*
G37*
G36*
X352001D02*X353767D01*
Y262804D01*
X353717Y262804D01*
X353654Y262795D01*
X353594Y262776D01*
X353537Y262748D01*
X353486Y262711D01*
X353441Y262667D01*
X353403Y262616D01*
X353374Y262560D01*
X353354Y262500D01*
X353343Y262438D01*
X353343Y262375D01*
X353353Y262312D01*
X353378Y262189D01*
X353389Y262063D01*
Y261937D01*
X353378Y261811D01*
X353355Y261687D01*
X353344Y261625D01*
X353345Y261562D01*
X353355Y261500D01*
X353375Y261440D01*
X353404Y261385D01*
X353442Y261334D01*
X353487Y261290D01*
X353538Y261253D01*
X353594Y261225D01*
X353654Y261206D01*
X353717Y261197D01*
X353767Y261197D01*
Y198666D01*
X352651Y197550D01*
X352001D01*
Y259810D01*
X352099D01*
X352298Y259828D01*
X352493Y259863D01*
X352554Y259882D01*
X352610Y259910D01*
X352662Y259947D01*
X352707Y259991D01*
X352744Y260042D01*
X352773Y260098D01*
X352793Y260158D01*
X352804Y260220D01*
X352804Y260283D01*
X352795Y260346D01*
X352776Y260406D01*
X352748Y260463D01*
X352711Y260514D01*
X352667Y260559D01*
X352616Y260597D01*
X352560Y260626D01*
X352500Y260646D01*
X352438Y260657D01*
X352375Y260657D01*
X352312Y260647D01*
X352189Y260622D01*
X352063Y260611D01*
X352001D01*
Y263389D01*
X352063D01*
X352189Y263378D01*
X352313Y263355D01*
X352375Y263344D01*
X352438Y263345D01*
X352500Y263355D01*
X352560Y263375D01*
X352615Y263404D01*
X352666Y263442D01*
X352710Y263487D01*
X352747Y263538D01*
X352775Y263594D01*
X352794Y263654D01*
X352803Y263717D01*
X352802Y263780D01*
X352792Y263842D01*
X352772Y263901D01*
X352743Y263957D01*
X352706Y264008D01*
X352661Y264052D01*
X352609Y264089D01*
X352553Y264117D01*
X352493Y264134D01*
X352298Y264172D01*
X352099Y264190D01*
X352001D01*
Y264450D01*
G37*
G36*
X358233Y268550D02*X356767D01*
Y277197D01*
X356780Y277198D01*
X356842Y277208D01*
X356901Y277228D01*
X356957Y277257D01*
X357008Y277294D01*
X357052Y277339D01*
X357089Y277391D01*
X357117Y277447D01*
X357134Y277507D01*
X357172Y277702D01*
X357190Y277901D01*
Y278099D01*
X357172Y278298D01*
X357137Y278493D01*
X357118Y278554D01*
X357090Y278610D01*
X357053Y278662D01*
X357009Y278707D01*
X356958Y278744D01*
X356902Y278773D01*
X356842Y278793D01*
X356780Y278804D01*
X356767Y278804D01*
Y282036D01*
X358233Y280570D01*
Y268550D01*
G37*
G36*
X356767D02*X355001D01*
Y275810D01*
X355099D01*
X355298Y275828D01*
X355493Y275863D01*
X355554Y275882D01*
X355610Y275910D01*
X355662Y275947D01*
X355707Y275991D01*
X355744Y276042D01*
X355773Y276098D01*
X355793Y276158D01*
X355804Y276220D01*
X355804Y276283D01*
X355795Y276346D01*
X355776Y276406D01*
X355748Y276463D01*
X355711Y276514D01*
X355667Y276559D01*
X355616Y276597D01*
X355560Y276626D01*
X355500Y276646D01*
X355438Y276657D01*
X355375Y276657D01*
X355312Y276647D01*
X355189Y276622D01*
X355063Y276611D01*
X355001D01*
Y279389D01*
X355063D01*
X355189Y279378D01*
X355313Y279355D01*
X355375Y279344D01*
X355438Y279345D01*
X355500Y279355D01*
X355560Y279375D01*
X355615Y279404D01*
X355666Y279442D01*
X355710Y279487D01*
X355747Y279538D01*
X355775Y279594D01*
X355794Y279654D01*
X355803Y279717D01*
X355802Y279780D01*
X355792Y279842D01*
X355772Y279901D01*
X355743Y279957D01*
X355706Y280008D01*
X355661Y280052D01*
X355609Y280089D01*
X355553Y280117D01*
X355493Y280134D01*
X355298Y280172D01*
X355099Y280190D01*
X355001D01*
Y283802D01*
X356767Y282036D01*
Y278804D01*
X356717Y278804D01*
X356654Y278795D01*
X356594Y278776D01*
X356537Y278748D01*
X356486Y278711D01*
X356441Y278667D01*
X356403Y278616D01*
X356374Y278560D01*
X356354Y278500D01*
X356343Y278438D01*
X356343Y278375D01*
X356353Y278312D01*
X356378Y278189D01*
X356389Y278063D01*
Y277937D01*
X356378Y277811D01*
X356355Y277687D01*
X356344Y277625D01*
X356345Y277562D01*
X356355Y277500D01*
X356375Y277440D01*
X356404Y277385D01*
X356442Y277334D01*
X356487Y277290D01*
X356538Y277253D01*
X356594Y277225D01*
X356654Y277206D01*
X356717Y277197D01*
X356767Y277197D01*
Y268550D01*
G37*
G36*
X355001D02*X353233D01*
Y277196D01*
X353283Y277196D01*
X353346Y277205D01*
X353406Y277224D01*
X353463Y277252D01*
X353514Y277289D01*
X353559Y277333D01*
X353597Y277384D01*
X353626Y277440D01*
X353646Y277500D01*
X353657Y277562D01*
X353657Y277625D01*
X353647Y277688D01*
X353622Y277811D01*
X353611Y277937D01*
Y278063D01*
X353622Y278189D01*
X353645Y278313D01*
X353656Y278375D01*
X353655Y278438D01*
X353645Y278500D01*
X353625Y278560D01*
X353596Y278615D01*
X353558Y278666D01*
X353513Y278710D01*
X353462Y278747D01*
X353406Y278775D01*
X353346Y278794D01*
X353283Y278803D01*
X353233Y278803D01*
Y285570D01*
X355001Y283802D01*
Y280190D01*
X354901D01*
X354702Y280172D01*
X354507Y280137D01*
X354446Y280118D01*
X354390Y280090D01*
X354338Y280053D01*
X354293Y280009D01*
X354256Y279958D01*
X354227Y279902D01*
X354207Y279842D01*
X354196Y279780D01*
X354196Y279717D01*
X354205Y279654D01*
X354224Y279594D01*
X354252Y279537D01*
X354289Y279486D01*
X354333Y279441D01*
X354384Y279403D01*
X354440Y279374D01*
X354500Y279354D01*
X354562Y279343D01*
X354625Y279343D01*
X354688Y279353D01*
X354811Y279378D01*
X354937Y279389D01*
X355001D01*
Y276611D01*
X354937D01*
X354811Y276622D01*
X354687Y276645D01*
X354625Y276656D01*
X354562Y276655D01*
X354500Y276645D01*
X354440Y276625D01*
X354385Y276596D01*
X354334Y276558D01*
X354290Y276513D01*
X354253Y276462D01*
X354225Y276406D01*
X354206Y276346D01*
X354197Y276283D01*
X354198Y276220D01*
X354208Y276158D01*
X354228Y276099D01*
X354257Y276043D01*
X354294Y275992D01*
X354339Y275948D01*
X354391Y275911D01*
X354447Y275883D01*
X354507Y275866D01*
X354702Y275828D01*
X354901Y275810D01*
X355001D01*
Y268550D01*
G37*
G36*
X353233D02*X352001D01*
Y286802D01*
X353233Y285570D01*
Y278803D01*
X353220Y278802D01*
X353158Y278792D01*
X353099Y278772D01*
X353043Y278743D01*
X352992Y278706D01*
X352948Y278661D01*
X352911Y278609D01*
X352883Y278553D01*
X352866Y278493D01*
X352828Y278298D01*
X352810Y278099D01*
Y277901D01*
X352828Y277702D01*
X352863Y277507D01*
X352882Y277446D01*
X352910Y277390D01*
X352947Y277338D01*
X352991Y277293D01*
X353042Y277256D01*
X353098Y277227D01*
X353158Y277207D01*
X353220Y277196D01*
X353233Y277196D01*
Y268550D01*
G37*
G36*
X350233Y193450D02*X351450D01*
Y184275D01*
X351410Y184179D01*
X351330Y183844D01*
X351303Y183500D01*
X351330Y183156D01*
X351410Y182821D01*
X351542Y182502D01*
X351722Y182208D01*
X351946Y181946D01*
X352001Y181900D01*
Y27200D01*
X350233D01*
Y193450D01*
G37*
G36*
Y264450D02*X352001D01*
Y264190D01*
X351901D01*
X351702Y264172D01*
X351507Y264137D01*
X351446Y264118D01*
X351390Y264090D01*
X351338Y264053D01*
X351293Y264009D01*
X351256Y263958D01*
X351227Y263902D01*
X351207Y263842D01*
X351196Y263780D01*
X351196Y263717D01*
X351205Y263654D01*
X351224Y263594D01*
X351252Y263537D01*
X351289Y263486D01*
X351333Y263441D01*
X351384Y263403D01*
X351440Y263374D01*
X351500Y263354D01*
X351562Y263343D01*
X351625Y263343D01*
X351688Y263353D01*
X351811Y263378D01*
X351937Y263389D01*
X352001D01*
Y260611D01*
X351937D01*
X351811Y260622D01*
X351687Y260645D01*
X351625Y260656D01*
X351562Y260655D01*
X351500Y260645D01*
X351440Y260625D01*
X351385Y260596D01*
X351334Y260558D01*
X351290Y260513D01*
X351253Y260462D01*
X351225Y260406D01*
X351206Y260346D01*
X351197Y260283D01*
X351198Y260220D01*
X351208Y260158D01*
X351228Y260099D01*
X351257Y260043D01*
X351294Y259992D01*
X351339Y259948D01*
X351391Y259911D01*
X351447Y259883D01*
X351507Y259866D01*
X351702Y259828D01*
X351901Y259810D01*
X352001D01*
Y197550D01*
X350233D01*
Y261196D01*
X350283Y261196D01*
X350346Y261205D01*
X350406Y261224D01*
X350463Y261252D01*
X350514Y261289D01*
X350559Y261333D01*
X350597Y261384D01*
X350626Y261440D01*
X350646Y261500D01*
X350657Y261562D01*
X350657Y261625D01*
X350647Y261688D01*
X350622Y261811D01*
X350611Y261937D01*
Y262063D01*
X350622Y262189D01*
X350645Y262313D01*
X350656Y262375D01*
X350655Y262438D01*
X350645Y262500D01*
X350625Y262560D01*
X350596Y262615D01*
X350558Y262666D01*
X350513Y262710D01*
X350462Y262747D01*
X350406Y262775D01*
X350346Y262794D01*
X350283Y262803D01*
X350233Y262803D01*
Y264450D01*
G37*
G36*
X352001Y268550D02*X350233D01*
Y288570D01*
X352001Y286802D01*
Y268550D01*
G37*
G36*
X338767Y193450D02*X350233D01*
Y27200D01*
X338767D01*
Y190197D01*
X338780Y190198D01*
X338842Y190208D01*
X338901Y190228D01*
X338957Y190257D01*
X339008Y190294D01*
X339052Y190339D01*
X339089Y190391D01*
X339117Y190447D01*
X339134Y190507D01*
X339172Y190702D01*
X339190Y190901D01*
Y191099D01*
X339172Y191298D01*
X339137Y191493D01*
X339118Y191554D01*
X339090Y191610D01*
X339053Y191662D01*
X339009Y191707D01*
X338958Y191744D01*
X338902Y191773D01*
X338842Y191793D01*
X338780Y191804D01*
X338767Y191804D01*
Y193450D01*
G37*
G36*
X337001D02*X338767D01*
Y191804D01*
X338717Y191804D01*
X338654Y191795D01*
X338594Y191776D01*
X338537Y191748D01*
X338486Y191711D01*
X338441Y191667D01*
X338403Y191616D01*
X338374Y191560D01*
X338354Y191500D01*
X338343Y191438D01*
X338343Y191375D01*
X338353Y191312D01*
X338378Y191189D01*
X338389Y191063D01*
Y190937D01*
X338378Y190811D01*
X338355Y190687D01*
X338344Y190625D01*
X338345Y190562D01*
X338355Y190500D01*
X338375Y190440D01*
X338404Y190385D01*
X338442Y190334D01*
X338487Y190290D01*
X338538Y190253D01*
X338594Y190225D01*
X338654Y190206D01*
X338717Y190197D01*
X338767Y190197D01*
Y27200D01*
X337001D01*
Y188810D01*
X337099D01*
X337298Y188828D01*
X337493Y188863D01*
X337554Y188882D01*
X337610Y188910D01*
X337662Y188947D01*
X337707Y188991D01*
X337744Y189042D01*
X337773Y189098D01*
X337793Y189158D01*
X337804Y189220D01*
X337804Y189283D01*
X337795Y189346D01*
X337776Y189406D01*
X337748Y189463D01*
X337711Y189514D01*
X337667Y189559D01*
X337616Y189597D01*
X337560Y189626D01*
X337500Y189646D01*
X337438Y189657D01*
X337375Y189657D01*
X337312Y189647D01*
X337189Y189622D01*
X337063Y189611D01*
X337001D01*
Y192389D01*
X337063D01*
X337189Y192378D01*
X337313Y192355D01*
X337375Y192344D01*
X337438Y192345D01*
X337500Y192355D01*
X337560Y192375D01*
X337615Y192404D01*
X337666Y192442D01*
X337710Y192487D01*
X337747Y192538D01*
X337775Y192594D01*
X337794Y192654D01*
X337803Y192717D01*
X337802Y192780D01*
X337792Y192842D01*
X337772Y192901D01*
X337743Y192957D01*
X337706Y193008D01*
X337661Y193052D01*
X337609Y193089D01*
X337553Y193117D01*
X337493Y193134D01*
X337298Y193172D01*
X337099Y193190D01*
X337001D01*
Y193450D01*
G37*
G36*
Y264450D02*X350233D01*
Y262803D01*
X350220Y262802D01*
X350158Y262792D01*
X350099Y262772D01*
X350043Y262743D01*
X349992Y262706D01*
X349948Y262661D01*
X349911Y262609D01*
X349883Y262553D01*
X349866Y262493D01*
X349828Y262298D01*
X349810Y262099D01*
Y261901D01*
X349828Y261702D01*
X349863Y261507D01*
X349882Y261446D01*
X349910Y261390D01*
X349947Y261338D01*
X349991Y261293D01*
X350042Y261256D01*
X350098Y261227D01*
X350158Y261207D01*
X350220Y261196D01*
X350233Y261196D01*
Y197550D01*
X337001D01*
Y211300D01*
X338166D01*
X338222Y211208D01*
X338446Y210946D01*
X338708Y210722D01*
X339002Y210542D01*
X339321Y210410D01*
X339656Y210330D01*
X340000Y210303D01*
X340344Y210330D01*
X340679Y210410D01*
X340998Y210542D01*
X341292Y210722D01*
X341554Y210946D01*
X341778Y211208D01*
X341958Y211502D01*
X342090Y211821D01*
X342170Y212156D01*
X342190Y212500D01*
X342170Y212844D01*
X342090Y213179D01*
X341958Y213498D01*
X341778Y213792D01*
X341554Y214054D01*
X341292Y214278D01*
X340998Y214458D01*
X340679Y214590D01*
X340344Y214670D01*
X340000Y214697D01*
X339656Y214670D01*
X339321Y214590D01*
X339002Y214458D01*
X338708Y214278D01*
X338446Y214054D01*
X338222Y213792D01*
X338166Y213700D01*
X337001D01*
Y264450D01*
G37*
G36*
X350233Y268550D02*X338767D01*
Y283197D01*
X338780Y283198D01*
X338842Y283208D01*
X338901Y283228D01*
X338957Y283257D01*
X339008Y283294D01*
X339052Y283339D01*
X339089Y283391D01*
X339117Y283447D01*
X339134Y283507D01*
X339172Y283702D01*
X339190Y283901D01*
Y284099D01*
X339172Y284298D01*
X339137Y284493D01*
X339118Y284554D01*
X339090Y284610D01*
X339053Y284662D01*
X339009Y284707D01*
X338958Y284744D01*
X338902Y284773D01*
X338842Y284793D01*
X338780Y284804D01*
X338767Y284804D01*
Y293800D01*
X345003D01*
X350233Y288570D01*
Y268550D01*
G37*
G36*
X338767D02*X337001D01*
Y281810D01*
X337099D01*
X337298Y281828D01*
X337493Y281863D01*
X337554Y281882D01*
X337610Y281910D01*
X337662Y281947D01*
X337707Y281991D01*
X337744Y282042D01*
X337773Y282098D01*
X337793Y282158D01*
X337804Y282220D01*
X337804Y282283D01*
X337795Y282346D01*
X337776Y282406D01*
X337748Y282463D01*
X337711Y282514D01*
X337667Y282559D01*
X337616Y282597D01*
X337560Y282626D01*
X337500Y282646D01*
X337438Y282657D01*
X337375Y282657D01*
X337312Y282647D01*
X337189Y282622D01*
X337063Y282611D01*
X337001D01*
Y285389D01*
X337063D01*
X337189Y285378D01*
X337313Y285355D01*
X337375Y285344D01*
X337438Y285345D01*
X337500Y285355D01*
X337560Y285375D01*
X337615Y285404D01*
X337666Y285442D01*
X337710Y285487D01*
X337747Y285538D01*
X337775Y285594D01*
X337794Y285654D01*
X337803Y285717D01*
X337802Y285780D01*
X337792Y285842D01*
X337772Y285901D01*
X337743Y285957D01*
X337706Y286008D01*
X337661Y286052D01*
X337609Y286089D01*
X337553Y286117D01*
X337493Y286134D01*
X337298Y286172D01*
X337099Y286190D01*
X337001D01*
Y293800D01*
X338767D01*
Y284804D01*
X338717Y284804D01*
X338654Y284795D01*
X338594Y284776D01*
X338537Y284748D01*
X338486Y284711D01*
X338441Y284667D01*
X338403Y284616D01*
X338374Y284560D01*
X338354Y284500D01*
X338343Y284438D01*
X338343Y284375D01*
X338353Y284312D01*
X338378Y284189D01*
X338389Y284063D01*
Y283937D01*
X338378Y283811D01*
X338355Y283687D01*
X338344Y283625D01*
X338345Y283562D01*
X338355Y283500D01*
X338375Y283440D01*
X338404Y283385D01*
X338442Y283334D01*
X338487Y283290D01*
X338538Y283253D01*
X338594Y283225D01*
X338654Y283206D01*
X338717Y283197D01*
X338767Y283197D01*
Y268550D01*
G37*
G36*
X335233Y193450D02*X337001D01*
Y193190D01*
X336901D01*
X336702Y193172D01*
X336507Y193137D01*
X336446Y193118D01*
X336390Y193090D01*
X336338Y193053D01*
X336293Y193009D01*
X336256Y192958D01*
X336227Y192902D01*
X336207Y192842D01*
X336196Y192780D01*
X336196Y192717D01*
X336205Y192654D01*
X336224Y192594D01*
X336252Y192537D01*
X336289Y192486D01*
X336333Y192441D01*
X336384Y192403D01*
X336440Y192374D01*
X336500Y192354D01*
X336562Y192343D01*
X336625Y192343D01*
X336688Y192353D01*
X336811Y192378D01*
X336937Y192389D01*
X337001D01*
Y189611D01*
X336937D01*
X336811Y189622D01*
X336687Y189645D01*
X336625Y189656D01*
X336562Y189655D01*
X336500Y189645D01*
X336440Y189625D01*
X336385Y189596D01*
X336334Y189558D01*
X336290Y189513D01*
X336253Y189462D01*
X336225Y189406D01*
X336206Y189346D01*
X336197Y189283D01*
X336198Y189220D01*
X336208Y189158D01*
X336228Y189099D01*
X336257Y189043D01*
X336294Y188992D01*
X336339Y188948D01*
X336391Y188911D01*
X336447Y188883D01*
X336507Y188866D01*
X336702Y188828D01*
X336901Y188810D01*
X337001D01*
Y27200D01*
X335233D01*
Y190196D01*
X335283Y190196D01*
X335346Y190205D01*
X335406Y190224D01*
X335463Y190252D01*
X335514Y190289D01*
X335559Y190333D01*
X335597Y190384D01*
X335626Y190440D01*
X335646Y190500D01*
X335657Y190562D01*
X335657Y190625D01*
X335647Y190688D01*
X335622Y190811D01*
X335611Y190937D01*
Y191063D01*
X335622Y191189D01*
X335645Y191313D01*
X335656Y191375D01*
X335655Y191438D01*
X335645Y191500D01*
X335625Y191560D01*
X335596Y191615D01*
X335558Y191666D01*
X335513Y191710D01*
X335462Y191747D01*
X335406Y191775D01*
X335346Y191794D01*
X335283Y191803D01*
X335233Y191803D01*
Y193450D01*
G37*
G36*
X337001Y197550D02*X335233D01*
Y211300D01*
X337001D01*
Y197550D01*
G37*
G36*
X335233D02*X333580D01*
X333500Y197556D01*
X333178Y197531D01*
X332865Y197456D01*
X332566Y197332D01*
X332291Y197164D01*
X332291Y197164D01*
X332046Y196954D01*
X331994Y196893D01*
X329607Y194506D01*
X329546Y194454D01*
X329336Y194209D01*
X329168Y193934D01*
X329044Y193635D01*
X328969Y193322D01*
X328969Y193321D01*
X328944Y193000D01*
X328950Y192920D01*
Y191775D01*
X328910Y191679D01*
X328830Y191344D01*
X328803Y191000D01*
X328830Y190656D01*
X328910Y190321D01*
X329042Y190002D01*
X329222Y189708D01*
X329446Y189446D01*
X329708Y189222D01*
X330002Y189042D01*
X330321Y188910D01*
X330656Y188830D01*
X331000Y188803D01*
X331344Y188830D01*
X331679Y188910D01*
X331998Y189042D01*
X332292Y189222D01*
X332554Y189446D01*
X332778Y189708D01*
X332958Y190002D01*
X333090Y190321D01*
X333170Y190656D01*
X333190Y191000D01*
X333170Y191344D01*
X333090Y191679D01*
X333050Y191775D01*
Y192151D01*
X334349Y193450D01*
X335233D01*
Y191803D01*
X335220Y191802D01*
X335158Y191792D01*
X335099Y191772D01*
X335043Y191743D01*
X334992Y191706D01*
X334948Y191661D01*
X334911Y191609D01*
X334883Y191553D01*
X334866Y191493D01*
X334828Y191298D01*
X334810Y191099D01*
Y190901D01*
X334828Y190702D01*
X334863Y190507D01*
X334882Y190446D01*
X334910Y190390D01*
X334947Y190338D01*
X334991Y190293D01*
X335042Y190256D01*
X335098Y190227D01*
X335158Y190207D01*
X335220Y190196D01*
X335233Y190196D01*
Y27200D01*
X326267D01*
Y28305D01*
X330126Y28307D01*
X330248Y28337D01*
X330364Y28385D01*
X330472Y28451D01*
X330567Y28533D01*
X330649Y28628D01*
X330715Y28736D01*
X330763Y28852D01*
X330793Y28974D01*
X330800Y29100D01*
X330793Y34026D01*
X330763Y34148D01*
X330715Y34264D01*
X330649Y34372D01*
X330567Y34467D01*
X330472Y34549D01*
X330364Y34615D01*
X330248Y34663D01*
X330126Y34693D01*
X330000Y34700D01*
X326267Y34698D01*
Y205570D01*
X331997Y211300D01*
X335233D01*
Y197550D01*
G37*
G36*
Y263834D02*X335849Y264450D01*
X337001D01*
Y213700D01*
X335233D01*
Y263834D01*
G37*
G36*
X337001Y268550D02*X335233D01*
Y283196D01*
X335283Y283196D01*
X335346Y283205D01*
X335406Y283224D01*
X335463Y283252D01*
X335514Y283289D01*
X335559Y283333D01*
X335597Y283384D01*
X335626Y283440D01*
X335646Y283500D01*
X335657Y283562D01*
X335657Y283625D01*
X335647Y283688D01*
X335622Y283811D01*
X335611Y283937D01*
Y284063D01*
X335622Y284189D01*
X335645Y284313D01*
X335656Y284375D01*
X335655Y284438D01*
X335645Y284500D01*
X335625Y284560D01*
X335596Y284615D01*
X335558Y284666D01*
X335513Y284710D01*
X335462Y284747D01*
X335406Y284775D01*
X335346Y284794D01*
X335283Y284803D01*
X335233Y284803D01*
Y292933D01*
X335498Y293042D01*
X335792Y293222D01*
X336054Y293446D01*
X336278Y293708D01*
X336334Y293800D01*
X337001D01*
Y286190D01*
X336901D01*
X336702Y286172D01*
X336507Y286137D01*
X336446Y286118D01*
X336390Y286090D01*
X336338Y286053D01*
X336293Y286009D01*
X336256Y285958D01*
X336227Y285902D01*
X336207Y285842D01*
X336196Y285780D01*
X336196Y285717D01*
X336205Y285654D01*
X336224Y285594D01*
X336252Y285537D01*
X336289Y285486D01*
X336333Y285441D01*
X336384Y285403D01*
X336440Y285374D01*
X336500Y285354D01*
X336562Y285343D01*
X336625Y285343D01*
X336688Y285353D01*
X336811Y285378D01*
X336937Y285389D01*
X337001D01*
Y282611D01*
X336937D01*
X336811Y282622D01*
X336687Y282645D01*
X336625Y282656D01*
X336562Y282655D01*
X336500Y282645D01*
X336440Y282625D01*
X336385Y282596D01*
X336334Y282558D01*
X336290Y282513D01*
X336253Y282462D01*
X336225Y282406D01*
X336206Y282346D01*
X336197Y282283D01*
X336198Y282220D01*
X336208Y282158D01*
X336228Y282099D01*
X336257Y282043D01*
X336294Y281992D01*
X336339Y281948D01*
X336391Y281911D01*
X336447Y281883D01*
X336507Y281866D01*
X336702Y281828D01*
X336901Y281810D01*
X337001D01*
Y268550D01*
G37*
G36*
X335233D02*X335080D01*
X335000Y268556D01*
X334678Y268531D01*
X334365Y268456D01*
X334066Y268332D01*
X333791Y268164D01*
X333791Y268164D01*
X333546Y267954D01*
X333494Y267893D01*
X328098Y262497D01*
X328002Y262458D01*
X327708Y262278D01*
X327446Y262054D01*
X327222Y261792D01*
X327042Y261498D01*
X326910Y261179D01*
X326830Y260844D01*
X326803Y260500D01*
X326830Y260156D01*
X326910Y259821D01*
X327042Y259502D01*
X327222Y259208D01*
X327446Y258946D01*
X327708Y258722D01*
X328002Y258542D01*
X328321Y258410D01*
X328656Y258330D01*
X329000Y258303D01*
X329344Y258330D01*
X329679Y258410D01*
X329998Y258542D01*
X330292Y258722D01*
X330554Y258946D01*
X330778Y259208D01*
X330958Y259502D01*
X330997Y259598D01*
X335233Y263834D01*
Y213700D01*
X331547D01*
X331500Y213704D01*
X331312Y213689D01*
X331128Y213645D01*
X330954Y213573D01*
X330792Y213474D01*
X330792Y213474D01*
X330649Y213351D01*
X330618Y213315D01*
X326267Y208964D01*
Y254697D01*
X326280Y254698D01*
X326342Y254708D01*
X326401Y254728D01*
X326457Y254757D01*
X326508Y254794D01*
X326552Y254839D01*
X326589Y254891D01*
X326617Y254947D01*
X326634Y255007D01*
X326672Y255202D01*
X326690Y255401D01*
Y255599D01*
X326672Y255798D01*
X326637Y255993D01*
X326618Y256054D01*
X326590Y256110D01*
X326553Y256162D01*
X326509Y256207D01*
X326458Y256244D01*
X326402Y256273D01*
X326342Y256293D01*
X326280Y256304D01*
X326267Y256304D01*
Y293800D01*
X332666D01*
X332722Y293708D01*
X332946Y293446D01*
X333208Y293222D01*
X333502Y293042D01*
X333821Y292910D01*
X334156Y292830D01*
X334500Y292803D01*
X334844Y292830D01*
X335179Y292910D01*
X335233Y292933D01*
Y284803D01*
X335220Y284802D01*
X335158Y284792D01*
X335099Y284772D01*
X335043Y284743D01*
X334992Y284706D01*
X334948Y284661D01*
X334911Y284609D01*
X334883Y284553D01*
X334866Y284493D01*
X334828Y284298D01*
X334810Y284099D01*
Y283901D01*
X334828Y283702D01*
X334863Y283507D01*
X334882Y283446D01*
X334910Y283390D01*
X334947Y283338D01*
X334991Y283293D01*
X335042Y283256D01*
X335098Y283227D01*
X335158Y283207D01*
X335220Y283196D01*
X335233Y283196D01*
Y268550D01*
G37*
G36*
X326267Y208964D02*X324501Y207198D01*
Y253310D01*
X324599D01*
X324798Y253328D01*
X324993Y253363D01*
X325054Y253382D01*
X325110Y253410D01*
X325162Y253447D01*
X325207Y253491D01*
X325244Y253542D01*
X325273Y253598D01*
X325293Y253658D01*
X325304Y253720D01*
X325304Y253783D01*
X325295Y253846D01*
X325276Y253906D01*
X325248Y253963D01*
X325211Y254014D01*
X325167Y254059D01*
X325116Y254097D01*
X325060Y254126D01*
X325000Y254146D01*
X324938Y254157D01*
X324875Y254157D01*
X324812Y254147D01*
X324689Y254122D01*
X324563Y254111D01*
X324501D01*
Y256889D01*
X324563D01*
X324689Y256878D01*
X324813Y256855D01*
X324875Y256844D01*
X324938Y256845D01*
X325000Y256855D01*
X325060Y256875D01*
X325115Y256904D01*
X325166Y256942D01*
X325210Y256987D01*
X325247Y257038D01*
X325275Y257094D01*
X325294Y257154D01*
X325303Y257217D01*
X325302Y257280D01*
X325292Y257342D01*
X325272Y257401D01*
X325243Y257457D01*
X325206Y257508D01*
X325161Y257552D01*
X325109Y257589D01*
X325053Y257617D01*
X324993Y257634D01*
X324798Y257672D01*
X324599Y257691D01*
X324501D01*
Y293800D01*
X326267D01*
Y256304D01*
X326217Y256304D01*
X326154Y256295D01*
X326094Y256276D01*
X326037Y256248D01*
X325986Y256211D01*
X325941Y256167D01*
X325903Y256116D01*
X325874Y256060D01*
X325854Y256000D01*
X325843Y255938D01*
X325843Y255875D01*
X325853Y255812D01*
X325878Y255689D01*
X325889Y255563D01*
Y255437D01*
X325878Y255311D01*
X325855Y255187D01*
X325844Y255125D01*
X325845Y255062D01*
X325855Y255000D01*
X325875Y254940D01*
X325904Y254885D01*
X325942Y254834D01*
X325987Y254790D01*
X326038Y254753D01*
X326094Y254725D01*
X326154Y254706D01*
X326217Y254697D01*
X326267Y254697D01*
Y208964D01*
G37*
G36*
Y34698D02*X324501Y34697D01*
Y203804D01*
X326267Y205570D01*
Y34698D01*
G37*
G36*
Y27200D02*X324501D01*
Y28304D01*
X326267Y28305D01*
Y27200D01*
G37*
G36*
X324501Y207198D02*X323300Y205997D01*
Y293800D01*
X324501D01*
Y257691D01*
X324401D01*
X324202Y257672D01*
X324007Y257637D01*
X323946Y257618D01*
X323890Y257590D01*
X323838Y257553D01*
X323793Y257509D01*
X323756Y257458D01*
X323727Y257402D01*
X323707Y257342D01*
X323696Y257280D01*
X323696Y257217D01*
X323705Y257154D01*
X323724Y257094D01*
X323752Y257037D01*
X323789Y256986D01*
X323833Y256941D01*
X323884Y256903D01*
X323940Y256874D01*
X324000Y256854D01*
X324062Y256843D01*
X324125Y256843D01*
X324188Y256853D01*
X324311Y256878D01*
X324437Y256889D01*
X324501D01*
Y254111D01*
X324437D01*
X324311Y254122D01*
X324187Y254145D01*
X324125Y254156D01*
X324062Y254155D01*
X324000Y254145D01*
X323940Y254125D01*
X323885Y254096D01*
X323834Y254058D01*
X323790Y254013D01*
X323753Y253962D01*
X323725Y253906D01*
X323706Y253846D01*
X323697Y253783D01*
X323698Y253720D01*
X323708Y253658D01*
X323728Y253599D01*
X323757Y253543D01*
X323794Y253492D01*
X323839Y253448D01*
X323891Y253411D01*
X323947Y253383D01*
X324007Y253366D01*
X324202Y253328D01*
X324401Y253310D01*
X324501D01*
Y207198D01*
G37*
G36*
Y34697D02*X323300Y34696D01*
Y202603D01*
X324501Y203804D01*
Y34697D01*
G37*
G36*
Y27200D02*X323300D01*
Y28304D01*
X324501Y28304D01*
Y27200D01*
G37*
G36*
X364501Y323698D02*X363503Y322700D01*
X358255D01*
X358292Y322722D01*
X358554Y322946D01*
X358778Y323208D01*
X358958Y323502D01*
X359090Y323821D01*
X359170Y324156D01*
X359190Y324500D01*
X359170Y324844D01*
X359090Y325179D01*
X358958Y325498D01*
X358778Y325792D01*
X358554Y326054D01*
X358292Y326278D01*
X357998Y326458D01*
X357679Y326590D01*
X357344Y326670D01*
X357000Y326697D01*
X356656Y326670D01*
X356321Y326590D01*
X356002Y326458D01*
X355708Y326278D01*
X355446Y326054D01*
X355222Y325792D01*
X355166Y325700D01*
X353547D01*
X353500Y325704D01*
X353312Y325689D01*
X353128Y325645D01*
X352954Y325573D01*
X352792Y325474D01*
X352792Y325474D01*
X352649Y325351D01*
X352618Y325315D01*
X352003Y324700D01*
X323300D01*
Y338800D01*
X364501D01*
Y323698D01*
G37*
G36*
Y277696D02*X346382Y295815D01*
X346351Y295851D01*
X346208Y295974D01*
X346046Y296073D01*
X345872Y296145D01*
X345688Y296189D01*
X345688Y296189D01*
X345500Y296204D01*
X345453Y296200D01*
X339267D01*
Y297197D01*
X339280Y297198D01*
X339342Y297208D01*
X339401Y297228D01*
X339457Y297257D01*
X339508Y297294D01*
X339552Y297339D01*
X339589Y297391D01*
X339617Y297447D01*
X339634Y297507D01*
X339672Y297702D01*
X339690Y297901D01*
Y298099D01*
X339672Y298298D01*
X339637Y298493D01*
X339618Y298554D01*
X339590Y298610D01*
X339553Y298662D01*
X339509Y298707D01*
X339458Y298744D01*
X339402Y298773D01*
X339342Y298793D01*
X339280Y298804D01*
X339267Y298804D01*
Y311600D01*
X344315D01*
X344446Y311446D01*
X344708Y311222D01*
X345002Y311042D01*
X345321Y310910D01*
X345656Y310830D01*
X346000Y310803D01*
X346344Y310830D01*
X346679Y310910D01*
X346998Y311042D01*
X347292Y311222D01*
X347554Y311446D01*
X347778Y311708D01*
X347958Y312002D01*
X348090Y312321D01*
X348170Y312656D01*
X348190Y313000D01*
X348170Y313344D01*
X348090Y313679D01*
X347958Y313998D01*
X347778Y314292D01*
X347554Y314554D01*
X347292Y314778D01*
X346998Y314958D01*
X346679Y315090D01*
X346344Y315170D01*
X346000Y315197D01*
X345656Y315170D01*
X345321Y315090D01*
X345002Y314958D01*
X344708Y314778D01*
X344446Y314554D01*
X344315Y314400D01*
X339267D01*
Y320300D01*
X363953D01*
X364000Y320296D01*
X364188Y320311D01*
X364188Y320311D01*
X364372Y320355D01*
X364501Y320409D01*
Y277696D01*
G37*
G36*
X339267Y314400D02*X339185D01*
X339054Y314554D01*
X338792Y314778D01*
X338498Y314958D01*
X338179Y315090D01*
X337844Y315170D01*
X337500Y315197D01*
X337156Y315170D01*
X336821Y315090D01*
X336502Y314958D01*
X336208Y314778D01*
X335946Y314554D01*
X335815Y314400D01*
X330267D01*
Y320300D01*
X339267D01*
Y314400D01*
G37*
G36*
Y296200D02*X338301D01*
X338304Y296220D01*
X338304Y296283D01*
X338295Y296346D01*
X338276Y296406D01*
X338248Y296463D01*
X338211Y296514D01*
X338167Y296559D01*
X338116Y296597D01*
X338060Y296626D01*
X338000Y296646D01*
X337938Y296657D01*
X337875Y296657D01*
X337812Y296647D01*
X337689Y296622D01*
X337563Y296611D01*
X337499D01*
Y299389D01*
X337563D01*
X337689Y299378D01*
X337813Y299355D01*
X337875Y299344D01*
X337938Y299345D01*
X338000Y299355D01*
X338060Y299375D01*
X338115Y299404D01*
X338166Y299442D01*
X338210Y299487D01*
X338247Y299538D01*
X338275Y299594D01*
X338294Y299654D01*
X338303Y299717D01*
X338302Y299780D01*
X338292Y299842D01*
X338272Y299901D01*
X338243Y299957D01*
X338206Y300008D01*
X338161Y300052D01*
X338109Y300089D01*
X338053Y300117D01*
X337993Y300134D01*
X337798Y300172D01*
X337599Y300190D01*
X337499D01*
Y310803D01*
X337500Y310803D01*
X337844Y310830D01*
X338179Y310910D01*
X338498Y311042D01*
X338792Y311222D01*
X339054Y311446D01*
X339185Y311600D01*
X339267D01*
Y298804D01*
X339217Y298804D01*
X339154Y298795D01*
X339094Y298776D01*
X339037Y298748D01*
X338986Y298711D01*
X338941Y298667D01*
X338903Y298616D01*
X338874Y298560D01*
X338854Y298500D01*
X338843Y298438D01*
X338843Y298375D01*
X338853Y298312D01*
X338878Y298189D01*
X338889Y298063D01*
Y297937D01*
X338878Y297811D01*
X338855Y297687D01*
X338844Y297625D01*
X338845Y297562D01*
X338855Y297500D01*
X338875Y297440D01*
X338904Y297385D01*
X338942Y297334D01*
X338987Y297290D01*
X339038Y297253D01*
X339094Y297225D01*
X339154Y297206D01*
X339217Y297197D01*
X339267Y297197D01*
Y296200D01*
G37*
G36*
X337499Y296611D02*X337437D01*
X337311Y296622D01*
X337187Y296645D01*
X337125Y296656D01*
X337062Y296655D01*
X337000Y296645D01*
X336940Y296625D01*
X336885Y296596D01*
X336834Y296558D01*
X336790Y296513D01*
X336753Y296462D01*
X336725Y296406D01*
X336706Y296346D01*
X336697Y296283D01*
X336698Y296220D01*
X336701Y296200D01*
X336334D01*
X336278Y296292D01*
X336054Y296554D01*
X335792Y296778D01*
X335733Y296813D01*
Y297196D01*
X335783Y297196D01*
X335846Y297205D01*
X335906Y297224D01*
X335963Y297252D01*
X336014Y297289D01*
X336059Y297333D01*
X336097Y297384D01*
X336126Y297440D01*
X336146Y297500D01*
X336157Y297562D01*
X336157Y297625D01*
X336147Y297688D01*
X336122Y297811D01*
X336111Y297937D01*
Y298063D01*
X336122Y298189D01*
X336145Y298313D01*
X336156Y298375D01*
X336155Y298438D01*
X336145Y298500D01*
X336125Y298560D01*
X336096Y298615D01*
X336058Y298666D01*
X336013Y298710D01*
X335962Y298747D01*
X335906Y298775D01*
X335846Y298794D01*
X335783Y298803D01*
X335733Y298803D01*
Y311600D01*
X335815D01*
X335946Y311446D01*
X336208Y311222D01*
X336502Y311042D01*
X336821Y310910D01*
X337156Y310830D01*
X337499Y310803D01*
Y300190D01*
X337401D01*
X337202Y300172D01*
X337007Y300137D01*
X336946Y300118D01*
X336890Y300090D01*
X336838Y300053D01*
X336793Y300009D01*
X336756Y299958D01*
X336727Y299902D01*
X336707Y299842D01*
X336696Y299780D01*
X336696Y299717D01*
X336705Y299654D01*
X336724Y299594D01*
X336752Y299537D01*
X336789Y299486D01*
X336833Y299441D01*
X336884Y299403D01*
X336940Y299374D01*
X337000Y299354D01*
X337062Y299343D01*
X337125Y299343D01*
X337188Y299353D01*
X337311Y299378D01*
X337437Y299389D01*
X337499D01*
Y296611D01*
G37*
G36*
X335733Y296813D02*X335498Y296958D01*
X335179Y297090D01*
X334844Y297170D01*
X334500Y297197D01*
X334156Y297170D01*
X333821Y297090D01*
X333502Y296958D01*
X333208Y296778D01*
X332946Y296554D01*
X332722Y296292D01*
X332666Y296200D01*
X330267D01*
Y297697D01*
X330280Y297698D01*
X330342Y297708D01*
X330401Y297728D01*
X330457Y297757D01*
X330508Y297794D01*
X330552Y297839D01*
X330589Y297891D01*
X330617Y297947D01*
X330634Y298007D01*
X330672Y298202D01*
X330690Y298401D01*
Y298599D01*
X330672Y298798D01*
X330637Y298993D01*
X330618Y299054D01*
X330590Y299110D01*
X330553Y299162D01*
X330509Y299207D01*
X330458Y299244D01*
X330402Y299273D01*
X330342Y299293D01*
X330280Y299304D01*
X330267Y299304D01*
Y311600D01*
X335733D01*
Y298803D01*
X335720Y298802D01*
X335658Y298792D01*
X335599Y298772D01*
X335543Y298743D01*
X335492Y298706D01*
X335448Y298661D01*
X335411Y298609D01*
X335383Y298553D01*
X335366Y298493D01*
X335328Y298298D01*
X335310Y298099D01*
Y297901D01*
X335328Y297702D01*
X335363Y297507D01*
X335382Y297446D01*
X335410Y297390D01*
X335447Y297338D01*
X335491Y297293D01*
X335542Y297256D01*
X335598Y297227D01*
X335658Y297207D01*
X335720Y297196D01*
X335733Y297196D01*
Y296813D01*
G37*
G36*
X330267Y314400D02*X330185D01*
X330054Y314554D01*
X329792Y314778D01*
X329498Y314958D01*
X329179Y315090D01*
X328844Y315170D01*
X328501Y315197D01*
Y320300D01*
X330267D01*
Y314400D01*
G37*
G36*
Y296200D02*X328501D01*
Y296310D01*
X328599D01*
X328798Y296328D01*
X328993Y296363D01*
X329054Y296382D01*
X329110Y296410D01*
X329162Y296447D01*
X329207Y296491D01*
X329244Y296542D01*
X329273Y296598D01*
X329293Y296658D01*
X329304Y296720D01*
X329304Y296783D01*
X329295Y296846D01*
X329276Y296906D01*
X329248Y296963D01*
X329211Y297014D01*
X329167Y297059D01*
X329116Y297097D01*
X329060Y297126D01*
X329000Y297146D01*
X328938Y297157D01*
X328875Y297157D01*
X328812Y297147D01*
X328689Y297122D01*
X328563Y297111D01*
X328501D01*
Y299889D01*
X328563D01*
X328689Y299878D01*
X328813Y299855D01*
X328875Y299844D01*
X328938Y299845D01*
X329000Y299855D01*
X329060Y299875D01*
X329115Y299904D01*
X329166Y299942D01*
X329210Y299987D01*
X329247Y300038D01*
X329275Y300094D01*
X329294Y300154D01*
X329303Y300217D01*
X329302Y300280D01*
X329292Y300342D01*
X329272Y300401D01*
X329243Y300457D01*
X329206Y300508D01*
X329161Y300552D01*
X329109Y300589D01*
X329053Y300617D01*
X328993Y300634D01*
X328798Y300672D01*
X328599Y300690D01*
X328501D01*
Y310803D01*
X328844Y310830D01*
X329179Y310910D01*
X329498Y311042D01*
X329792Y311222D01*
X330054Y311446D01*
X330185Y311600D01*
X330267D01*
Y299304D01*
X330217Y299304D01*
X330154Y299295D01*
X330094Y299276D01*
X330037Y299248D01*
X329986Y299211D01*
X329941Y299167D01*
X329903Y299116D01*
X329874Y299060D01*
X329854Y299000D01*
X329843Y298938D01*
X329843Y298875D01*
X329853Y298812D01*
X329878Y298689D01*
X329889Y298563D01*
Y298437D01*
X329878Y298311D01*
X329855Y298187D01*
X329844Y298125D01*
X329845Y298062D01*
X329855Y298000D01*
X329875Y297940D01*
X329904Y297885D01*
X329942Y297834D01*
X329987Y297790D01*
X330038Y297753D01*
X330094Y297725D01*
X330154Y297706D01*
X330217Y297697D01*
X330267Y297697D01*
Y296200D01*
G37*
G36*
X328501Y315197D02*X328500Y315197D01*
X328156Y315170D01*
X327821Y315090D01*
X327502Y314958D01*
X327208Y314778D01*
X326946Y314554D01*
X326815Y314400D01*
X323300D01*
Y320300D01*
X328501D01*
Y315197D01*
G37*
G36*
Y296200D02*X326733D01*
Y297696D01*
X326783Y297696D01*
X326846Y297705D01*
X326906Y297724D01*
X326963Y297752D01*
X327014Y297789D01*
X327059Y297833D01*
X327097Y297884D01*
X327126Y297940D01*
X327146Y298000D01*
X327157Y298062D01*
X327157Y298125D01*
X327147Y298188D01*
X327122Y298311D01*
X327111Y298437D01*
Y298563D01*
X327122Y298689D01*
X327145Y298813D01*
X327156Y298875D01*
X327155Y298938D01*
X327145Y299000D01*
X327125Y299060D01*
X327096Y299115D01*
X327058Y299166D01*
X327013Y299210D01*
X326962Y299247D01*
X326906Y299275D01*
X326846Y299294D01*
X326783Y299303D01*
X326733Y299303D01*
Y311600D01*
X326815D01*
X326946Y311446D01*
X327208Y311222D01*
X327502Y311042D01*
X327821Y310910D01*
X328156Y310830D01*
X328500Y310803D01*
X328501Y310803D01*
Y300690D01*
X328401D01*
X328202Y300672D01*
X328007Y300637D01*
X327946Y300618D01*
X327890Y300590D01*
X327838Y300553D01*
X327793Y300509D01*
X327756Y300458D01*
X327727Y300402D01*
X327707Y300342D01*
X327696Y300280D01*
X327696Y300217D01*
X327705Y300154D01*
X327724Y300094D01*
X327752Y300037D01*
X327789Y299986D01*
X327833Y299941D01*
X327884Y299903D01*
X327940Y299874D01*
X328000Y299854D01*
X328062Y299843D01*
X328125Y299843D01*
X328188Y299853D01*
X328311Y299878D01*
X328437Y299889D01*
X328501D01*
Y297111D01*
X328437D01*
X328311Y297122D01*
X328187Y297145D01*
X328125Y297156D01*
X328062Y297155D01*
X328000Y297145D01*
X327940Y297125D01*
X327885Y297096D01*
X327834Y297058D01*
X327790Y297013D01*
X327753Y296962D01*
X327725Y296906D01*
X327706Y296846D01*
X327697Y296783D01*
X327698Y296720D01*
X327708Y296658D01*
X327728Y296599D01*
X327757Y296543D01*
X327794Y296492D01*
X327839Y296448D01*
X327891Y296411D01*
X327947Y296383D01*
X328007Y296366D01*
X328202Y296328D01*
X328401Y296310D01*
X328501D01*
Y296200D01*
G37*
G36*
X326733D02*X323300D01*
Y311600D01*
X326733D01*
Y299303D01*
X326720Y299302D01*
X326658Y299292D01*
X326599Y299272D01*
X326543Y299243D01*
X326492Y299206D01*
X326448Y299161D01*
X326411Y299109D01*
X326383Y299053D01*
X326366Y298993D01*
X326328Y298798D01*
X326310Y298599D01*
Y298401D01*
X326328Y298202D01*
X326363Y298007D01*
X326382Y297946D01*
X326410Y297890D01*
X326447Y297838D01*
X326491Y297793D01*
X326542Y297756D01*
X326598Y297727D01*
X326658Y297707D01*
X326720Y297696D01*
X326733Y297696D01*
Y296200D01*
G37*
G36*
X323300Y205997D02*X322733Y205430D01*
Y254696D01*
X322783Y254696D01*
X322846Y254705D01*
X322906Y254724D01*
X322963Y254752D01*
X323014Y254789D01*
X323059Y254833D01*
X323097Y254884D01*
X323126Y254940D01*
X323146Y255000D01*
X323157Y255062D01*
X323157Y255125D01*
X323147Y255188D01*
X323122Y255311D01*
X323111Y255437D01*
Y255563D01*
X323122Y255689D01*
X323145Y255813D01*
X323156Y255875D01*
X323155Y255938D01*
X323145Y256000D01*
X323125Y256060D01*
X323096Y256115D01*
X323058Y256166D01*
X323013Y256210D01*
X322962Y256247D01*
X322906Y256275D01*
X322846Y256294D01*
X322783Y256303D01*
X322733Y256303D01*
Y293800D01*
X323300D01*
Y205997D01*
G37*
G36*
X322733Y205430D02*X314500Y197197D01*
Y269803D01*
X314855Y269448D01*
X314830Y269344D01*
X314803Y269000D01*
X314830Y268656D01*
X314910Y268321D01*
X315042Y268002D01*
X315222Y267708D01*
X315446Y267446D01*
X315708Y267222D01*
X316002Y267042D01*
X316321Y266910D01*
X316656Y266830D01*
X317000Y266803D01*
X317344Y266830D01*
X317679Y266910D01*
X317998Y267042D01*
X318292Y267222D01*
X318554Y267446D01*
X318778Y267708D01*
X318958Y268002D01*
X319090Y268321D01*
X319170Y268656D01*
X319190Y269000D01*
X319170Y269344D01*
X319090Y269679D01*
X318958Y269998D01*
X318778Y270292D01*
X318554Y270554D01*
X318292Y270778D01*
X317998Y270958D01*
X317896Y271000D01*
X317998Y271042D01*
X318292Y271222D01*
X318554Y271446D01*
X318778Y271708D01*
X318958Y272002D01*
X319090Y272321D01*
X319170Y272656D01*
X319190Y273000D01*
X319170Y273344D01*
X319090Y273679D01*
X318958Y273998D01*
X318778Y274292D01*
X318554Y274554D01*
X318292Y274778D01*
X317998Y274958D01*
X317679Y275090D01*
X317344Y275170D01*
X317000Y275197D01*
X316656Y275170D01*
X316552Y275145D01*
X314700Y276997D01*
Y293745D01*
X314722Y293708D01*
X314946Y293446D01*
X315208Y293222D01*
X315502Y293042D01*
X315821Y292910D01*
X316156Y292830D01*
X316500Y292803D01*
X316844Y292830D01*
X317179Y292910D01*
X317498Y293042D01*
X317792Y293222D01*
X318054Y293446D01*
X318278Y293708D01*
X318334Y293800D01*
X322733D01*
Y256303D01*
X322720Y256302D01*
X322658Y256292D01*
X322599Y256272D01*
X322543Y256243D01*
X322492Y256206D01*
X322448Y256161D01*
X322411Y256109D01*
X322383Y256053D01*
X322366Y255993D01*
X322328Y255798D01*
X322310Y255599D01*
Y255401D01*
X322328Y255202D01*
X322363Y255007D01*
X322382Y254946D01*
X322410Y254890D01*
X322447Y254838D01*
X322491Y254793D01*
X322542Y254756D01*
X322598Y254727D01*
X322658Y254707D01*
X322720Y254696D01*
X322733Y254696D01*
Y205430D01*
G37*
G36*
X323300Y27200D02*X314500D01*
Y102803D01*
X314844Y102830D01*
X315179Y102910D01*
X315498Y103042D01*
X315792Y103222D01*
X316054Y103446D01*
X316278Y103708D01*
X316458Y104002D01*
X316590Y104321D01*
X316670Y104656D01*
X316690Y105000D01*
X316670Y105344D01*
X316590Y105679D01*
X316458Y105998D01*
X316278Y106292D01*
X316054Y106554D01*
X315792Y106778D01*
X315700Y106834D01*
Y124166D01*
X315792Y124222D01*
X316054Y124446D01*
X316278Y124708D01*
X316458Y125002D01*
X316590Y125321D01*
X316670Y125656D01*
X316690Y126000D01*
X316670Y126344D01*
X316590Y126679D01*
X316458Y126998D01*
X316278Y127292D01*
X316054Y127554D01*
X315792Y127778D01*
X315700Y127834D01*
Y145166D01*
X315792Y145222D01*
X316054Y145446D01*
X316278Y145708D01*
X316458Y146002D01*
X316590Y146321D01*
X316670Y146656D01*
X316690Y147000D01*
X316670Y147344D01*
X316590Y147679D01*
X316458Y147998D01*
X316278Y148292D01*
X316054Y148554D01*
X315792Y148778D01*
X315700Y148834D01*
Y166166D01*
X315792Y166222D01*
X316054Y166446D01*
X316278Y166708D01*
X316458Y167002D01*
X316590Y167321D01*
X316670Y167656D01*
X316690Y168000D01*
X316670Y168344D01*
X316590Y168679D01*
X316458Y168998D01*
X316278Y169292D01*
X316054Y169554D01*
X315792Y169778D01*
X315700Y169834D01*
Y195003D01*
X323300Y202603D01*
Y34696D01*
X316474Y34693D01*
X316352Y34663D01*
X316236Y34615D01*
X316128Y34549D01*
X316033Y34467D01*
X315951Y34372D01*
X315885Y34264D01*
X315837Y34148D01*
X315807Y34026D01*
X315800Y33900D01*
X315807Y28974D01*
X315837Y28852D01*
X315885Y28736D01*
X315951Y28628D01*
X316033Y28533D01*
X316128Y28451D01*
X316236Y28385D01*
X316352Y28337D01*
X316474Y28307D01*
X316600Y28300D01*
X323300Y28304D01*
Y27200D01*
G37*
G36*
Y324700D02*X316047D01*
X316000Y324704D01*
X315812Y324689D01*
X315628Y324645D01*
X315454Y324573D01*
X315292Y324474D01*
X315292Y324474D01*
X315149Y324351D01*
X315118Y324315D01*
X314500Y323697D01*
Y338800D01*
X323300D01*
Y324700D01*
G37*
G36*
X321267Y320300D02*X323300D01*
Y314400D01*
X321267D01*
Y320300D01*
G37*
G36*
X323300Y296200D02*X321267D01*
Y297197D01*
X321280Y297198D01*
X321342Y297208D01*
X321401Y297228D01*
X321457Y297257D01*
X321508Y297294D01*
X321552Y297339D01*
X321589Y297391D01*
X321617Y297447D01*
X321634Y297507D01*
X321672Y297702D01*
X321690Y297901D01*
Y298099D01*
X321672Y298298D01*
X321637Y298493D01*
X321618Y298554D01*
X321590Y298610D01*
X321553Y298662D01*
X321509Y298707D01*
X321458Y298744D01*
X321402Y298773D01*
X321342Y298793D01*
X321280Y298804D01*
X321267Y298804D01*
Y311600D01*
X323300D01*
Y296200D01*
G37*
G36*
X319499Y320300D02*X321267D01*
Y314400D01*
X321185D01*
X321054Y314554D01*
X320792Y314778D01*
X320498Y314958D01*
X320179Y315090D01*
X319844Y315170D01*
X319500Y315197D01*
X319499Y315197D01*
Y320300D01*
G37*
G36*
X321267Y296200D02*X320301D01*
X320304Y296220D01*
X320304Y296283D01*
X320295Y296346D01*
X320276Y296406D01*
X320248Y296463D01*
X320211Y296514D01*
X320167Y296559D01*
X320116Y296597D01*
X320060Y296626D01*
X320000Y296646D01*
X319938Y296657D01*
X319875Y296657D01*
X319812Y296647D01*
X319689Y296622D01*
X319563Y296611D01*
X319499D01*
Y299389D01*
X319563D01*
X319689Y299378D01*
X319813Y299355D01*
X319875Y299344D01*
X319938Y299345D01*
X320000Y299355D01*
X320060Y299375D01*
X320115Y299404D01*
X320166Y299442D01*
X320210Y299487D01*
X320247Y299538D01*
X320275Y299594D01*
X320294Y299654D01*
X320303Y299717D01*
X320302Y299780D01*
X320292Y299842D01*
X320272Y299901D01*
X320243Y299957D01*
X320206Y300008D01*
X320161Y300052D01*
X320109Y300089D01*
X320053Y300117D01*
X319993Y300134D01*
X319798Y300172D01*
X319599Y300190D01*
X319499D01*
Y310803D01*
X319500Y310803D01*
X319844Y310830D01*
X320179Y310910D01*
X320498Y311042D01*
X320792Y311222D01*
X321054Y311446D01*
X321185Y311600D01*
X321267D01*
Y298804D01*
X321217Y298804D01*
X321154Y298795D01*
X321094Y298776D01*
X321037Y298748D01*
X320986Y298711D01*
X320941Y298667D01*
X320903Y298616D01*
X320874Y298560D01*
X320854Y298500D01*
X320843Y298438D01*
X320843Y298375D01*
X320853Y298312D01*
X320878Y298189D01*
X320889Y298063D01*
Y297937D01*
X320878Y297811D01*
X320855Y297687D01*
X320844Y297625D01*
X320845Y297562D01*
X320855Y297500D01*
X320875Y297440D01*
X320904Y297385D01*
X320942Y297334D01*
X320987Y297290D01*
X321038Y297253D01*
X321094Y297225D01*
X321154Y297206D01*
X321217Y297197D01*
X321267Y297197D01*
Y296200D01*
G37*
G36*
X317733Y320300D02*X319499D01*
Y315197D01*
X319156Y315170D01*
X318821Y315090D01*
X318502Y314958D01*
X318208Y314778D01*
X317946Y314554D01*
X317733Y314304D01*
Y320300D01*
G37*
G36*
X319499Y296611D02*X319437D01*
X319311Y296622D01*
X319187Y296645D01*
X319125Y296656D01*
X319062Y296655D01*
X319000Y296645D01*
X318940Y296625D01*
X318885Y296596D01*
X318834Y296558D01*
X318790Y296513D01*
X318753Y296462D01*
X318725Y296406D01*
X318706Y296346D01*
X318697Y296283D01*
X318698Y296220D01*
X318701Y296200D01*
X318334D01*
X318278Y296292D01*
X318054Y296554D01*
X317792Y296778D01*
X317733Y296813D01*
Y297196D01*
X317783Y297196D01*
X317846Y297205D01*
X317906Y297224D01*
X317963Y297252D01*
X318014Y297289D01*
X318059Y297333D01*
X318097Y297384D01*
X318126Y297440D01*
X318146Y297500D01*
X318157Y297562D01*
X318157Y297625D01*
X318147Y297688D01*
X318122Y297811D01*
X318111Y297937D01*
Y298063D01*
X318122Y298189D01*
X318145Y298313D01*
X318156Y298375D01*
X318155Y298438D01*
X318145Y298500D01*
X318125Y298560D01*
X318096Y298615D01*
X318058Y298666D01*
X318013Y298710D01*
X317962Y298747D01*
X317906Y298775D01*
X317846Y298794D01*
X317783Y298803D01*
X317733Y298803D01*
Y311696D01*
X317946Y311446D01*
X318208Y311222D01*
X318502Y311042D01*
X318821Y310910D01*
X319156Y310830D01*
X319499Y310803D01*
Y300190D01*
X319401D01*
X319202Y300172D01*
X319007Y300137D01*
X318946Y300118D01*
X318890Y300090D01*
X318838Y300053D01*
X318793Y300009D01*
X318756Y299958D01*
X318727Y299902D01*
X318707Y299842D01*
X318696Y299780D01*
X318696Y299717D01*
X318705Y299654D01*
X318724Y299594D01*
X318752Y299537D01*
X318789Y299486D01*
X318833Y299441D01*
X318884Y299403D01*
X318940Y299374D01*
X319000Y299354D01*
X319062Y299343D01*
X319125Y299343D01*
X319188Y299353D01*
X319311Y299378D01*
X319437Y299389D01*
X319499D01*
Y296611D01*
G37*
G36*
X317733Y296813D02*X317498Y296958D01*
X317179Y297090D01*
X316844Y297170D01*
X316500Y297197D01*
X316156Y297170D01*
X315821Y297090D01*
X315502Y296958D01*
X315208Y296778D01*
X314946Y296554D01*
X314722Y296292D01*
X314700Y296255D01*
Y317503D01*
X317497Y320300D01*
X317733D01*
Y314304D01*
X317722Y314292D01*
X317542Y313998D01*
X317410Y313679D01*
X317330Y313344D01*
X317303Y313000D01*
X317330Y312656D01*
X317410Y312321D01*
X317542Y312002D01*
X317722Y311708D01*
X317733Y311696D01*
Y298803D01*
X317720Y298802D01*
X317658Y298792D01*
X317599Y298772D01*
X317543Y298743D01*
X317492Y298706D01*
X317448Y298661D01*
X317411Y298609D01*
X317383Y298553D01*
X317366Y298493D01*
X317328Y298298D01*
X317310Y298099D01*
Y297901D01*
X317328Y297702D01*
X317363Y297507D01*
X317382Y297446D01*
X317410Y297390D01*
X317447Y297338D01*
X317491Y297293D01*
X317542Y297256D01*
X317598Y297227D01*
X317658Y297207D01*
X317720Y297196D01*
X317733Y297196D01*
Y296813D01*
G37*
G36*
X171500Y179500D02*Y186500D01*
X234500D01*
Y179500D01*
X220125D01*
X220067Y179567D01*
X219972Y179649D01*
X219864Y179715D01*
X219748Y179763D01*
X219626Y179793D01*
X219500Y179800D01*
X214374Y179793D01*
X214252Y179763D01*
X214136Y179715D01*
X214028Y179649D01*
X213933Y179567D01*
X213875Y179500D01*
X206125D01*
X206067Y179567D01*
X205972Y179649D01*
X205864Y179715D01*
X205748Y179763D01*
X205626Y179793D01*
X205500Y179800D01*
X200374Y179793D01*
X200252Y179763D01*
X200136Y179715D01*
X200028Y179649D01*
X199933Y179567D01*
X199875Y179500D01*
X192125D01*
X192067Y179567D01*
X191972Y179649D01*
X191864Y179715D01*
X191748Y179763D01*
X191626Y179793D01*
X191500Y179800D01*
X186374Y179793D01*
X186252Y179763D01*
X186136Y179715D01*
X186028Y179649D01*
X185933Y179567D01*
X185875Y179500D01*
X171500D01*
G37*
G36*
X234500Y254500D02*Y247500D01*
X220125D01*
X220067Y247567D01*
X219972Y247649D01*
X219864Y247715D01*
X219748Y247763D01*
X219626Y247793D01*
X219500Y247800D01*
X214374Y247793D01*
X214252Y247763D01*
X214136Y247715D01*
X214028Y247649D01*
X213933Y247567D01*
X213875Y247500D01*
X206125D01*
X206067Y247567D01*
X205972Y247649D01*
X205864Y247715D01*
X205748Y247763D01*
X205626Y247793D01*
X205500Y247800D01*
X200374Y247793D01*
X200252Y247763D01*
X200136Y247715D01*
X200028Y247649D01*
X199933Y247567D01*
X199875Y247500D01*
X192125D01*
X192067Y247567D01*
X191972Y247649D01*
X191864Y247715D01*
X191748Y247763D01*
X191626Y247793D01*
X191500Y247800D01*
X186374Y247793D01*
X186252Y247763D01*
X186136Y247715D01*
X186028Y247649D01*
X185933Y247567D01*
X185875Y247500D01*
X171500D01*
Y254500D01*
X234500D01*
G37*
G36*
X171500Y111500D02*Y118500D01*
X234500D01*
Y111500D01*
X220125D01*
X220067Y111567D01*
X219972Y111649D01*
X219864Y111715D01*
X219748Y111763D01*
X219626Y111793D01*
X219500Y111800D01*
X214374Y111793D01*
X214252Y111763D01*
X214136Y111715D01*
X214028Y111649D01*
X213933Y111567D01*
X213875Y111500D01*
X206125D01*
X206067Y111567D01*
X205972Y111649D01*
X205864Y111715D01*
X205748Y111763D01*
X205626Y111793D01*
X205500Y111800D01*
X200374Y111793D01*
X200252Y111763D01*
X200136Y111715D01*
X200028Y111649D01*
X199933Y111567D01*
X199875Y111500D01*
X192125D01*
X192067Y111567D01*
X191972Y111649D01*
X191864Y111715D01*
X191748Y111763D01*
X191626Y111793D01*
X191500Y111800D01*
X186374Y111793D01*
X186252Y111763D01*
X186136Y111715D01*
X186028Y111649D01*
X185933Y111567D01*
X185875Y111500D01*
X171500D01*
G37*
G36*
X239500D02*Y118500D01*
X302500D01*
Y111500D01*
X288125D01*
X288067Y111567D01*
X287972Y111649D01*
X287864Y111715D01*
X287748Y111763D01*
X287626Y111793D01*
X287500Y111800D01*
X282374Y111793D01*
X282252Y111763D01*
X282136Y111715D01*
X282028Y111649D01*
X281933Y111567D01*
X281875Y111500D01*
X274125D01*
X274067Y111567D01*
X273972Y111649D01*
X273864Y111715D01*
X273748Y111763D01*
X273626Y111793D01*
X273500Y111800D01*
X268374Y111793D01*
X268252Y111763D01*
X268136Y111715D01*
X268028Y111649D01*
X267933Y111567D01*
X267875Y111500D01*
X260125D01*
X260067Y111567D01*
X259972Y111649D01*
X259864Y111715D01*
X259748Y111763D01*
X259626Y111793D01*
X259500Y111800D01*
X254374Y111793D01*
X254252Y111763D01*
X254136Y111715D01*
X254028Y111649D01*
X253933Y111567D01*
X253875Y111500D01*
X239500D01*
G37*
G36*
Y179500D02*Y186500D01*
X302500D01*
Y179500D01*
X288125D01*
X288067Y179567D01*
X287972Y179649D01*
X287864Y179715D01*
X287748Y179763D01*
X287626Y179793D01*
X287500Y179800D01*
X282374Y179793D01*
X282252Y179763D01*
X282136Y179715D01*
X282028Y179649D01*
X281933Y179567D01*
X281875Y179500D01*
X274125D01*
X274067Y179567D01*
X273972Y179649D01*
X273864Y179715D01*
X273748Y179763D01*
X273626Y179793D01*
X273500Y179800D01*
X268374Y179793D01*
X268252Y179763D01*
X268136Y179715D01*
X268028Y179649D01*
X267933Y179567D01*
X267875Y179500D01*
X260125D01*
X260067Y179567D01*
X259972Y179649D01*
X259864Y179715D01*
X259748Y179763D01*
X259626Y179793D01*
X259500Y179800D01*
X254374Y179793D01*
X254252Y179763D01*
X254136Y179715D01*
X254028Y179649D01*
X253933Y179567D01*
X253875Y179500D01*
X239500D01*
G37*
G36*
Y247500D02*Y254500D01*
X302500D01*
Y247500D01*
X288125D01*
X288067Y247567D01*
X287972Y247649D01*
X287864Y247715D01*
X287748Y247763D01*
X287626Y247793D01*
X287500Y247800D01*
X282374Y247793D01*
X282252Y247763D01*
X282136Y247715D01*
X282028Y247649D01*
X281933Y247567D01*
X281875Y247500D01*
X274125D01*
X274067Y247567D01*
X273972Y247649D01*
X273864Y247715D01*
X273748Y247763D01*
X273626Y247793D01*
X273500Y247800D01*
X268374Y247793D01*
X268252Y247763D01*
X268136Y247715D01*
X268028Y247649D01*
X267933Y247567D01*
X267875Y247500D01*
X260125D01*
X260067Y247567D01*
X259972Y247649D01*
X259864Y247715D01*
X259748Y247763D01*
X259626Y247793D01*
X259500Y247800D01*
X254374Y247793D01*
X254252Y247763D01*
X254136Y247715D01*
X254028Y247649D01*
X253933Y247567D01*
X253875Y247500D01*
X239500D01*
G37*
G54D135*X33000Y274000D02*Y57000D01*
Y274000D02*Y299500D01*
X10000Y330000D02*Y36000D01*
X101000Y53500D02*Y320000D01*
X73000Y325000D02*X71000D01*
X67000Y329000D01*
G54D136*X400000Y299500D02*Y266500D01*
X398000Y301500D02*X400000Y299500D01*
G54D135*X367000Y324500D02*X364000Y321500D01*
G54D137*X362500Y204500D02*X353500Y195500D01*
Y183500D01*
X331000Y191000D02*Y193000D01*
X333500Y195500D01*
X353500D01*
G54D135*X340000Y212500D02*X331500D01*
G54D138*X360000Y148500D02*X391000D01*
G54D136*X400000Y128500D02*Y266500D01*
G54D137*X393000Y204500D02*X362500D01*
G54D135*X403500Y330000D02*Y36000D01*
G54D138*X396500Y154000D02*Y232500D01*
X379500Y215000D02*X396500D01*
X382000Y238500D02*X390500D01*
X396500Y232500D01*
X391000Y148500D02*X396500Y154000D01*
X377000Y148500D02*Y117500D01*
G54D135*X169000Y53500D02*Y320000D01*
X237000Y53500D02*Y320000D01*
X20000Y26000D02*X393500D01*
X331500Y212500D02*X314500Y195500D01*
X307500Y193000D02*Y197000D01*
X310000Y199500D01*
X367500Y273000D02*X345500Y295000D01*
X334500D01*
X317000Y273000D02*X313500Y276500D01*
Y318000D01*
X317000Y269000D02*X311500Y274500D01*
Y319000D01*
X316500Y295000D02*X334500D01*
X314500Y105000D02*Y195500D01*
G54D137*X335000Y266500D02*X400000D01*
X329000Y260500D02*X335000Y266500D01*
G54D135*X20000Y340000D02*X393500D01*
X311500Y319000D02*X316000Y323500D01*
X317000Y321500D02*X313500Y318000D01*
G54D139*X319500Y313000D02*X346000D01*
G54D135*X353500Y324500D02*X352500Y323500D01*
X316000D01*
X364000Y321500D02*X317000D01*
X357000Y324500D02*X353500D01*
X10000Y36000D02*G75*G03X20000Y26000I10000J0D01*G01*
X20000Y340000D02*G75*G03X10000Y330000I0J-10000D01*G01*
X403500Y330000D02*G75*G03X393500Y340000I-10000J0D01*G01*
Y26000D02*G75*G03X403500Y36000I0J10000D01*G01*
X319000Y29500D02*X319500Y30000D01*
X317500Y29500D02*X319000D01*
X317000Y30000D02*X317500Y29500D01*
X317000Y30000D02*Y31000D01*
X317500Y31500D01*
X319000D01*
X319500Y32000D01*
Y33000D01*
X319000Y33500D02*X319500Y33000D01*
X317500Y33500D02*X319000D01*
X317000Y33000D02*X317500Y33500D01*
X320700Y30000D02*Y33000D01*
Y30000D02*X321200Y29500D01*
X322200D01*
X322700Y30000D01*
Y33000D01*
X322200Y33500D02*X322700Y33000D01*
X321200Y33500D02*X322200D01*
X320700Y33000D02*X321200Y33500D01*
X323900Y29500D02*Y33500D01*
X325900D01*
X327600Y29500D02*Y33500D01*
X328900Y29500D02*X329600Y30200D01*
Y32800D01*
X328900Y33500D02*X329600Y32800D01*
X327100Y33500D02*X328900D01*
X327100Y29500D02*X328900D01*
G54D140*X388000Y41500D03*
Y324500D03*
G54D141*X271000Y217000D03*
Y149000D03*
Y81000D03*
Y285000D03*
G54D140*X25500Y41500D03*
G54D141*X67000Y149000D03*
X135000D03*
X67000Y81000D03*
X135000D03*
G54D140*X25500Y324500D03*
G54D141*X67000Y217000D03*
Y285000D03*
X203000Y149000D03*
X135000Y217000D03*
X203000D03*
X135000Y285000D03*
X203000D03*
Y81000D03*
G54D142*X183000Y197000D02*X223000D01*
Y237000D02*Y197000D01*
G54D143*X210000Y210250D02*Y197000D01*
Y210250D02*X211750Y212000D01*
Y222000D02*Y212000D01*
X210000Y223750D02*X211750Y222000D01*
X196000Y210250D02*Y197000D01*
X194250Y222000D02*Y212000D01*
X196000Y210250D01*
G54D144*X203000Y210500D02*Y203000D01*
G54D138*X198000Y219500D02*Y214500D01*
G54D145*X175500Y189500D02*X230500D01*
G54D142*X183000Y237000D02*Y197000D01*
G54D143*X194250Y222000D02*X196000Y223750D01*
Y237000D02*Y223750D01*
G54D145*X175500Y244500D02*Y189500D01*
G54D142*X183000Y305000D02*Y265000D01*
G54D145*X175500Y312500D02*Y257500D01*
G54D143*X210000Y237000D02*Y223750D01*
G54D145*X175500Y244500D02*X230500D01*
X175500Y257500D02*X230500D01*
G54D142*X223000Y305000D02*Y265000D01*
G54D143*X210000Y278250D02*Y265000D01*
Y278250D02*X211750Y280000D01*
G54D142*X183000Y265000D02*X223000D01*
G54D143*X196000Y278250D02*Y265000D01*
X194250Y290000D02*X196000Y291750D01*
X194250Y290000D02*Y280000D01*
X196000Y278250D01*
Y305000D02*Y291750D01*
X211750Y290000D02*Y280000D01*
X210000Y291750D02*X211750Y290000D01*
X210000Y305000D02*Y291750D01*
G54D144*X217000Y312500D02*Y271500D01*
X189000Y312500D02*Y271500D01*
X203000Y312500D02*Y291500D01*
G54D145*X230500Y244500D02*Y189500D01*
Y312500D02*Y257500D01*
G54D144*X203000Y278500D02*Y271000D01*
G54D138*X200500Y280000D02*X205500D01*
X208000Y282500D01*
X198000D02*X200500Y280000D01*
X198000Y287500D02*Y282500D01*
X208000Y287500D02*Y282500D01*
X200500Y290000D02*X205500D01*
X208000Y287500D01*
X198000D02*X200500Y290000D01*
G54D145*X175500Y312500D02*X230500D01*
G54D144*X203000Y244500D02*Y223500D01*
X189000Y244500D02*Y203500D01*
G54D138*X200500Y212000D02*X205500D01*
X198000Y214500D02*X200500Y212000D01*
X208000Y219500D02*Y214500D01*
X205500Y222000D02*X208000Y219500D01*
X205500Y212000D02*X208000Y214500D01*
X200500Y222000D02*X205500D01*
X198000Y219500D02*X200500Y222000D01*
G54D144*X217000Y244500D02*Y203500D01*
G54D142*X223000Y169000D02*Y129000D01*
G54D143*X211750Y154000D02*Y144000D01*
X210000Y155750D02*X211750Y154000D01*
X210000Y169000D02*Y155750D01*
G54D144*X217000Y176500D02*Y135500D01*
G54D143*X194250Y154000D02*X196000Y155750D01*
X194250Y154000D02*Y144000D01*
X196000Y142250D01*
G54D142*X183000Y129000D02*X223000D01*
G54D143*X210000Y142250D02*Y129000D01*
X196000Y142250D02*Y129000D01*
X210000Y142250D02*X211750Y144000D01*
G54D144*X203000Y142500D02*Y135000D01*
G54D138*X200500Y144000D02*X205500D01*
G54D144*X189000Y176500D02*Y135500D01*
G54D142*X183000Y169000D02*Y129000D01*
G54D143*X196000Y169000D02*Y155750D01*
G54D145*X175500Y176500D02*Y121500D01*
G54D144*X203000Y176500D02*Y155500D01*
G54D138*X200500Y154000D02*X205500D01*
G54D145*X175500Y176500D02*X230500D01*
G54D138*X198000Y151500D02*Y146500D01*
X205500Y154000D02*X208000Y151500D01*
X205500Y144000D02*X208000Y146500D01*
X198000D02*X200500Y144000D01*
X198000Y151500D02*X200500Y154000D01*
X208000Y151500D02*Y146500D01*
G54D145*X230500Y176500D02*Y121500D01*
X175500D02*X230500D01*
G54D142*X223000Y101000D02*Y61000D01*
G54D144*X217000Y108500D02*Y67500D01*
G54D145*X230500Y108500D02*Y53500D01*
G54D138*X208000Y83500D02*Y78500D01*
X205500Y86000D02*X208000Y83500D01*
X205500Y76000D02*X208000Y78500D01*
X198000Y83500D02*X200500Y86000D01*
X205500D01*
G54D145*X175500Y108500D02*X230500D01*
G54D142*X183000Y101000D02*Y61000D01*
G54D144*X189000Y108500D02*Y67500D01*
G54D143*X211750Y86000D02*Y76000D01*
X210000Y87750D02*X211750Y86000D01*
X194250D02*Y76000D01*
X196000Y74250D01*
X210000Y101000D02*Y87750D01*
X194250Y86000D02*X196000Y87750D01*
Y101000D02*Y87750D01*
G54D144*X203000Y108500D02*Y87500D01*
G54D142*X183000Y61000D02*X223000D01*
G54D145*X175500Y53500D02*X230500D01*
G54D143*X210000Y74250D02*Y61000D01*
Y74250D02*X211750Y76000D01*
G54D138*X198000Y83500D02*Y78500D01*
G54D145*X175500Y108500D02*Y53500D01*
G54D143*X196000Y74250D02*Y61000D01*
G54D144*X203000Y74500D02*Y67000D01*
G54D138*X200500Y76000D02*X205500D01*
X198000Y78500D02*X200500Y76000D01*
G54D144*X135000Y244500D02*Y223500D01*
X121000Y244500D02*Y203500D01*
G54D138*X132500Y212000D02*X137500D01*
X130000Y214500D02*X132500Y212000D01*
X140000Y219500D02*Y214500D01*
X137500Y222000D02*X140000Y219500D01*
X137500Y212000D02*X140000Y214500D01*
X132500Y222000D02*X137500D01*
X130000Y219500D02*X132500Y222000D01*
G54D142*X115000Y197000D02*X155000D01*
Y237000D02*Y197000D01*
G54D143*X142000Y210250D02*Y197000D01*
Y210250D02*X143750Y212000D01*
Y222000D02*Y212000D01*
X142000Y223750D02*X143750Y222000D01*
X128000Y210250D02*Y197000D01*
X126250Y222000D02*Y212000D01*
X128000Y210250D01*
G54D144*X135000Y210500D02*Y203000D01*
G54D138*X130000Y219500D02*Y214500D01*
G54D145*X107500Y189500D02*X162500D01*
G54D142*X115000Y237000D02*Y197000D01*
G54D143*X126250Y222000D02*X128000Y223750D01*
Y237000D02*Y223750D01*
G54D145*X107500Y244500D02*Y189500D01*
G54D143*X142000Y237000D02*Y223750D01*
G54D145*X107500Y244500D02*X162500D01*
Y189500D01*
G54D142*X115000Y265000D02*X155000D01*
G54D145*X107500Y257500D02*X162500D01*
G54D144*X149000Y244500D02*Y203500D01*
G54D142*X155000Y169000D02*Y129000D01*
G54D143*X143750Y154000D02*Y144000D01*
X142000Y155750D02*X143750Y154000D01*
X142000Y169000D02*Y155750D01*
G54D144*X149000Y176500D02*Y135500D01*
G54D143*X126250Y154000D02*X128000Y155750D01*
X126250Y154000D02*Y144000D01*
X128000Y142250D01*
X74000Y223750D02*X75750Y222000D01*
X74000Y237000D02*Y223750D01*
G54D138*X69500Y222000D02*X72000Y219500D01*
G54D144*X67000Y244500D02*Y223500D01*
G54D142*X87000Y237000D02*Y197000D01*
G54D138*X72000Y219500D02*Y214500D01*
X69500Y212000D02*X72000Y214500D01*
G54D142*X47000Y197000D02*X87000D01*
G54D143*X74000Y210250D02*Y197000D01*
X60000Y210250D02*Y197000D01*
X74000Y210250D02*X75750Y212000D01*
X58250D02*X60000Y210250D01*
G54D145*X94500Y244500D02*Y189500D01*
X39500D02*X94500D01*
G54D143*X75750Y222000D02*Y212000D01*
G54D144*X67000Y210500D02*Y203000D01*
G54D138*X62000Y219500D02*Y214500D01*
X64500Y212000D02*X69500D01*
X62000Y214500D02*X64500Y212000D01*
X62000Y219500D02*X64500Y222000D01*
G54D142*X47000Y265000D02*X87000D01*
G54D145*X39500Y257500D02*X94500D01*
G54D142*X47000Y237000D02*Y197000D01*
G54D143*X58250Y222000D02*X60000Y223750D01*
X58250Y222000D02*Y212000D01*
X60000Y237000D02*Y223750D01*
G54D145*X39500Y244500D02*Y189500D01*
G54D144*X53000Y244500D02*Y203500D01*
G54D138*X64500Y222000D02*X69500D01*
G54D145*X39500Y244500D02*X94500D01*
G54D143*X74000Y169000D02*Y155750D01*
G54D138*X64500Y154000D02*X69500D01*
G54D145*X39500Y176500D02*X94500D01*
G54D142*X47000Y169000D02*Y129000D01*
G54D143*X60000Y142250D02*Y129000D01*
X58250Y154000D02*X60000Y155750D01*
X58250Y154000D02*Y144000D01*
X60000Y169000D02*Y155750D01*
G54D145*X39500Y176500D02*Y121500D01*
G54D144*X53000Y176500D02*Y135500D01*
G54D138*X62000Y151500D02*Y146500D01*
X64500Y144000D01*
X62000Y151500D02*X64500Y154000D01*
G54D142*X47000Y129000D02*X87000D01*
G54D143*X74000Y142250D02*Y129000D01*
Y142250D02*X75750Y144000D01*
X58250D02*X60000Y142250D01*
G54D145*X39500Y121500D02*X94500D01*
G54D138*X64500Y144000D02*X69500D01*
G54D143*X75750Y154000D02*Y144000D01*
X74000Y155750D02*X75750Y154000D01*
G54D145*X94500Y176500D02*Y121500D01*
G54D144*X81000Y244500D02*Y203500D01*
G54D142*X87000Y169000D02*Y129000D01*
G54D144*X81000Y176500D02*Y135500D01*
G54D142*X87000Y101000D02*Y61000D01*
G54D144*X81000Y108500D02*Y67500D01*
X67000Y142500D02*Y135000D01*
G54D138*X72000Y151500D02*Y146500D01*
X69500Y154000D02*X72000Y151500D01*
X69500Y144000D02*X72000Y146500D01*
G54D144*X67000Y176500D02*Y155500D01*
G54D138*X72000Y83500D02*Y78500D01*
X69500Y86000D02*X72000Y83500D01*
X69500Y76000D02*X72000Y78500D01*
G54D142*X47000Y61000D02*X87000D01*
G54D143*X60000Y74250D02*Y61000D01*
X74000Y74250D02*Y61000D01*
Y74250D02*X75750Y76000D01*
X58250D02*X60000Y74250D01*
G54D144*X67000Y74500D02*Y67000D01*
G54D138*X64500Y76000D02*X69500D01*
G54D145*X39500Y53500D02*X94500D01*
G54D142*X47000Y101000D02*Y61000D01*
G54D143*X58250Y86000D02*X60000Y87750D01*
X58250Y86000D02*Y76000D01*
G54D144*X53000Y108500D02*Y67500D01*
G54D145*X39500Y108500D02*Y53500D01*
X94500Y108500D02*Y53500D01*
G54D143*X74000Y101000D02*Y87750D01*
X60000Y101000D02*Y87750D01*
G54D144*X67000Y108500D02*Y87500D01*
G54D145*X39500Y108500D02*X94500D01*
G54D143*X75750Y86000D02*Y76000D01*
X74000Y87750D02*X75750Y86000D01*
G54D138*X62000Y83500D02*Y78500D01*
X64500Y86000D02*X69500D01*
X62000Y78500D02*X64500Y76000D01*
X62000Y83500D02*X64500Y86000D01*
G54D142*X115000Y129000D02*X155000D01*
G54D143*X142000Y142250D02*Y129000D01*
X128000Y142250D02*Y129000D01*
X142000Y142250D02*X143750Y144000D01*
G54D144*X135000Y142500D02*Y135000D01*
G54D138*X132500Y144000D02*X137500D01*
G54D144*X121000Y176500D02*Y135500D01*
G54D142*X115000Y169000D02*Y129000D01*
G54D143*X128000Y169000D02*Y155750D01*
G54D145*X107500Y176500D02*Y121500D01*
G54D144*X135000Y176500D02*Y155500D01*
G54D138*X132500Y154000D02*X137500D01*
G54D145*X107500Y176500D02*X162500D01*
G54D138*X130000Y151500D02*Y146500D01*
X137500Y154000D02*X140000Y151500D01*
X137500Y144000D02*X140000Y146500D01*
X130000D02*X132500Y144000D01*
X130000Y151500D02*X132500Y154000D01*
X140000Y151500D02*Y146500D01*
G54D145*X162500Y176500D02*Y121500D01*
X107500D02*X162500D01*
G54D142*X155000Y101000D02*Y61000D01*
G54D144*X149000Y108500D02*Y67500D01*
G54D145*X162500Y108500D02*Y53500D01*
G54D138*X140000Y83500D02*Y78500D01*
X137500Y86000D02*X140000Y83500D01*
X137500Y76000D02*X140000Y78500D01*
X130000Y83500D02*X132500Y86000D01*
X137500D01*
G54D145*X107500Y108500D02*X162500D01*
G54D142*X115000Y101000D02*Y61000D01*
G54D144*X121000Y108500D02*Y67500D01*
G54D143*X143750Y86000D02*Y76000D01*
X142000Y87750D02*X143750Y86000D01*
X126250D02*Y76000D01*
X128000Y74250D01*
X142000Y101000D02*Y87750D01*
X126250Y86000D02*X128000Y87750D01*
Y101000D02*Y87750D01*
G54D144*X135000Y108500D02*Y87500D01*
G54D142*X115000Y61000D02*X155000D01*
G54D145*X107500Y53500D02*X162500D01*
G54D143*X142000Y74250D02*Y61000D01*
Y74250D02*X143750Y76000D01*
G54D138*X130000Y83500D02*Y78500D01*
G54D145*X107500Y108500D02*Y53500D01*
G54D143*X128000Y74250D02*Y61000D01*
G54D144*X135000Y74500D02*Y67000D01*
G54D138*X132500Y76000D02*X137500D01*
X130000Y78500D02*X132500Y76000D01*
X64500Y290000D02*X69500D01*
X72000Y287500D01*
G54D145*X39500Y312500D02*X94500D01*
Y257500D01*
G54D138*X62000Y287500D02*X64500Y290000D01*
G54D142*X87000Y305000D02*Y265000D01*
G54D144*X81000Y312500D02*Y271500D01*
G54D143*X75750Y290000D02*Y280000D01*
X74000Y291750D02*X75750Y290000D01*
X74000Y305000D02*Y291750D01*
G54D144*X67000Y312500D02*Y291500D01*
G54D143*X74000Y278250D02*Y265000D01*
Y278250D02*X75750Y280000D01*
G54D138*X64500D02*X69500D01*
X72000Y287500D02*Y282500D01*
G54D143*X60000Y278250D02*Y265000D01*
X58250Y280000D02*X60000Y278250D01*
G54D144*X67000Y278500D02*Y271000D01*
G54D142*X47000Y305000D02*Y265000D01*
G54D143*X58250Y290000D02*X60000Y291750D01*
Y305000D02*Y291750D01*
G54D144*X53000Y312500D02*Y271500D01*
G54D145*X39500Y312500D02*Y257500D01*
G54D143*X58250Y290000D02*Y280000D01*
G54D138*X62000Y287500D02*Y282500D01*
X69500Y280000D02*X72000Y282500D01*
X62000D02*X64500Y280000D01*
G54D142*X115000Y305000D02*Y265000D01*
G54D143*X128000Y278250D02*Y265000D01*
X126250Y290000D02*X128000Y291750D01*
X126250Y290000D02*Y280000D01*
X128000Y278250D01*
Y305000D02*Y291750D01*
G54D144*X121000Y312500D02*Y271500D01*
G54D145*X107500Y312500D02*Y257500D01*
G54D142*X155000Y305000D02*Y265000D01*
G54D145*X162500Y312500D02*Y257500D01*
G54D143*X142000Y278250D02*Y265000D01*
Y278250D02*X143750Y280000D01*
Y290000D02*Y280000D01*
X142000Y291750D02*X143750Y290000D01*
X142000Y305000D02*Y291750D01*
G54D144*X149000Y312500D02*Y271500D01*
X135000Y312500D02*Y291500D01*
G54D138*X132500Y290000D02*X137500D01*
G54D145*X107500Y312500D02*X162500D01*
G54D144*X135000Y278500D02*Y271000D01*
G54D138*X132500Y280000D02*X137500D01*
X130000Y282500D02*X132500Y280000D01*
X130000Y287500D02*Y282500D01*
X140000Y287500D02*Y282500D01*
X137500Y290000D02*X140000Y287500D01*
X137500Y280000D02*X140000Y282500D01*
X130000Y287500D02*X132500Y290000D01*
G54D144*X271000Y244500D02*Y223500D01*
X257000Y244500D02*Y203500D01*
G54D138*X268500Y212000D02*X273500D01*
X266000Y214500D02*X268500Y212000D01*
X276000Y219500D02*Y214500D01*
X273500Y222000D02*X276000Y219500D01*
X273500Y212000D02*X276000Y214500D01*
X268500Y222000D02*X273500D01*
X266000Y219500D02*X268500Y222000D01*
G54D142*X251000Y197000D02*X291000D01*
Y237000D02*Y197000D01*
G54D143*X278000Y210250D02*Y197000D01*
Y210250D02*X279750Y212000D01*
Y222000D02*Y212000D01*
X278000Y223750D02*X279750Y222000D01*
X264000Y210250D02*Y197000D01*
X262250Y222000D02*Y212000D01*
X264000Y210250D01*
G54D144*X271000Y210500D02*Y203000D01*
G54D138*X266000Y219500D02*Y214500D01*
G54D145*X243500Y189500D02*X298500D01*
G54D142*X251000Y237000D02*Y197000D01*
G54D143*X262250Y222000D02*X264000Y223750D01*
Y237000D02*Y223750D01*
G54D145*X243500Y244500D02*Y189500D01*
G54D143*X278000Y237000D02*Y223750D01*
G54D145*X243500Y244500D02*X298500D01*
Y189500D01*
G54D142*X251000Y265000D02*X291000D01*
G54D145*X243500Y257500D02*X298500D01*
G54D144*X285000Y244500D02*Y203500D01*
G54D142*X291000Y169000D02*Y129000D01*
G54D143*X279750Y154000D02*Y144000D01*
X278000Y155750D02*X279750Y154000D01*
X278000Y169000D02*Y155750D01*
G54D144*X285000Y176500D02*Y135500D01*
G54D143*X262250Y154000D02*X264000Y155750D01*
X262250Y154000D02*Y144000D01*
X264000Y142250D01*
G54D142*X251000Y129000D02*X291000D01*
G54D143*X278000Y142250D02*Y129000D01*
X264000Y142250D02*Y129000D01*
X278000Y142250D02*X279750Y144000D01*
G54D144*X271000Y142500D02*Y135000D01*
G54D138*X268500Y144000D02*X273500D01*
G54D144*X257000Y176500D02*Y135500D01*
G54D142*X251000Y169000D02*Y129000D01*
G54D143*X264000Y169000D02*Y155750D01*
G54D145*X243500Y176500D02*Y121500D01*
G54D144*X271000Y176500D02*Y155500D01*
G54D138*X268500Y154000D02*X273500D01*
G54D145*X243500Y176500D02*X298500D01*
G54D138*X266000Y151500D02*Y146500D01*
X273500Y154000D02*X276000Y151500D01*
X273500Y144000D02*X276000Y146500D01*
X266000D02*X268500Y144000D01*
X266000Y151500D02*X268500Y154000D01*
X276000Y151500D02*Y146500D01*
G54D145*X298500Y176500D02*Y121500D01*
X243500D02*X298500D01*
G54D143*X262250Y86000D02*Y76000D01*
G54D138*X266000Y83500D02*Y78500D01*
X268500Y86000D02*X273500D01*
X266000Y83500D02*X268500Y86000D01*
G54D142*X251000Y101000D02*Y61000D01*
G54D143*X262250Y86000D02*X264000Y87750D01*
Y101000D02*Y87750D01*
G54D144*X257000Y108500D02*Y67500D01*
G54D145*X243500Y108500D02*Y53500D01*
G54D138*X266000Y78500D02*X268500Y76000D01*
G54D142*X291000Y101000D02*Y61000D01*
G54D144*X285000Y108500D02*Y67500D01*
G54D143*X279750Y86000D02*Y76000D01*
X278000Y87750D02*X279750Y86000D01*
X278000Y101000D02*Y87750D01*
G54D144*X271000Y108500D02*Y87500D01*
G54D138*X273500Y86000D02*X276000Y83500D01*
G54D145*X298500Y108500D02*Y53500D01*
G54D138*X273500Y76000D02*X276000Y78500D01*
G54D143*X278000Y74250D02*Y61000D01*
Y74250D02*X279750Y76000D01*
G54D142*X251000Y61000D02*X291000D01*
G54D138*X268500Y76000D02*X273500D01*
X276000Y83500D02*Y78500D01*
G54D143*X264000Y74250D02*Y61000D01*
X262250Y76000D02*X264000Y74250D01*
G54D144*X271000Y74500D02*Y67000D01*
G54D145*X243500Y53500D02*X298500D01*
X243500Y108500D02*X298500D01*
G54D142*X251000Y305000D02*Y265000D01*
G54D143*X264000Y278250D02*Y265000D01*
X262250Y290000D02*X264000Y291750D01*
X262250Y290000D02*Y280000D01*
X264000Y278250D01*
Y305000D02*Y291750D01*
G54D144*X257000Y312500D02*Y271500D01*
G54D145*X243500Y312500D02*Y257500D01*
G54D142*X291000Y305000D02*Y265000D01*
G54D145*X298500Y312500D02*Y257500D01*
G54D143*X278000Y278250D02*Y265000D01*
Y278250D02*X279750Y280000D01*
Y290000D02*Y280000D01*
X278000Y291750D02*X279750Y290000D01*
X278000Y305000D02*Y291750D01*
G54D144*X285000Y312500D02*Y271500D01*
X271000Y312500D02*Y291500D01*
G54D138*X268500Y290000D02*X273500D01*
G54D145*X243500Y312500D02*X298500D01*
G54D144*X271000Y278500D02*Y271000D01*
G54D138*X268500Y280000D02*X273500D01*
X266000Y282500D02*X268500Y280000D01*
X266000Y287500D02*Y282500D01*
X276000Y287500D02*Y282500D01*
X273500Y290000D02*X276000Y287500D01*
X273500Y280000D02*X276000Y282500D01*
X266000Y287500D02*X268500Y290000D01*
G54D146*X364500Y191000D03*
X353500Y183500D03*
X360000Y168000D03*
Y148500D03*
X389000Y138000D03*
X382000Y157000D03*
X397500Y100500D03*
X400000Y128500D03*
Y204500D03*
X358000Y218500D03*
X353000Y298500D03*
X356000Y271500D03*
X386500Y281500D03*
X382000Y238500D03*
X379500Y215000D03*
X380000Y209000D03*
X367500Y273000D03*
X369000Y212000D03*
X324500Y255500D03*
X361500Y266500D03*
X352000Y262000D03*
X329000Y260500D03*
X355000Y278000D03*
X353500Y316000D03*
X357000Y324500D03*
X337000Y284000D03*
X318000Y284500D03*
X332000Y331500D03*
X319500Y313000D03*
X328500D03*
X337500D03*
X346000D03*
X367000Y324500D03*
X291000Y265000D03*
X317000Y269000D03*
Y273000D03*
X319500Y298000D03*
X316500Y295000D03*
X328500Y298500D03*
X334500Y295000D03*
X337500Y298000D03*
X381500Y188500D03*
X375000Y258500D03*
X372500Y266500D03*
X374000Y200000D03*
X393000Y204500D03*
X388000Y231000D03*
X392500Y244000D03*
X399000Y310000D03*
X391000Y272500D03*
X389000Y260000D03*
X398000Y301500D03*
X337000Y191000D03*
X331000D03*
X340000Y212500D03*
X332500Y186000D03*
X343500Y235500D03*
X314500Y105000D03*
X364500Y176000D03*
X373000Y71000D03*
X377000Y117500D03*
X349500Y49000D03*
Y84000D03*
X356000Y132000D03*
X351500Y117000D03*
X314500Y168000D03*
Y147000D03*
Y126000D03*
X291000Y197000D03*
X298500Y213000D03*
X307500Y193000D03*
X310000Y199500D03*
X251000Y81000D03*
X232000Y186500D03*
X237000Y121500D03*
X183000Y149000D03*
X223000D03*
X251000D03*
X87000D03*
X115000D03*
Y81000D03*
X155000D03*
Y149000D03*
X101000Y121500D03*
X183000Y81000D03*
X223000D03*
X291000Y140000D03*
X169000Y121500D03*
X87000Y217000D03*
X115000D03*
X155000D03*
X183000D03*
X223000D03*
X251000D03*
X87000Y285000D03*
X101000Y320000D03*
X73000Y325000D03*
X67000Y329000D03*
X115000Y285000D03*
X33000Y299500D03*
X155000Y285000D03*
X183000D03*
X169000Y320000D03*
X163500Y249500D03*
X169000Y257500D03*
Y189500D03*
X223000Y285000D03*
X251000D03*
X237000Y320000D03*
Y257500D03*
Y190000D03*
X95500Y252500D03*
X33000Y257500D03*
X101000D03*
X33000Y189500D03*
X101000D03*
X291000Y101000D03*
X323000Y68000D03*
X325000Y40500D03*
X87000Y81000D03*
X33000Y121500D03*
X237000Y53500D03*
X169000D03*
X101000D03*
X33000Y57000D03*
G54D147*G54D148*G54D149*G54D148*G54D149*G54D148*G54D149*M02*
