G04 start of page 4 for group 2 idx 2 *
G04 Title: Nomech, outline *
G04 Creator: pcb 20110918 *
G04 CreationDate: Sun 08 Sep 2013 10:57:53 PM GMT UTC *
G04 For: bertho *
G04 Format: Gerber/RS-274X *
G04 PCB-Dimensions: 430000 350000 *
G04 PCB-Coordinate-Origin: lower left *
%MOIN*%
%FSLAX25Y25*%
%LNOUTLINE*%
%ADD150C,0.0080*%
G54D150*X20000Y26000D02*X393500D01*
X403500Y330000D02*Y36000D01*
X10000Y16000D02*X403500D01*
Y26000D02*Y11000D01*
Y16000D02*X398500Y18500D01*
X403500Y16000D02*X398500Y13500D01*
X20000Y340000D02*X393500D01*
X10000Y330000D02*Y36000D01*
X403500Y26000D02*X418500D01*
X416000D02*X418500Y31000D01*
X416000Y26000D02*X413500Y31000D01*
X403500Y340000D02*X418500D01*
X416000D02*X413500Y335000D01*
X416000Y340000D02*X418500Y335000D01*
X10000Y26000D02*Y11000D01*
Y16000D02*X15000Y13500D01*
X10000Y16000D02*X15000Y18500D01*
X416000Y26000D02*Y340000D01*
X393500Y26000D02*G75*G03X403500Y36000I0J10000D01*G01*
Y330000D02*G75*G03X393500Y340000I-10000J0D01*G01*
X20000D02*G75*G03X10000Y330000I0J-10000D01*G01*
Y36000D02*G75*G03X20000Y26000I10000J0D01*G01*
X182500Y21500D02*X183000Y22000D01*
X184000D01*
X184500Y21500D01*
X184000Y18000D02*X184500Y18500D01*
X183000Y18000D02*X184000D01*
X182500Y18500D02*X183000Y18000D01*
Y20200D02*X184000D01*
X184500Y21500D02*Y20700D01*
Y19700D02*Y18500D01*
Y19700D02*X184000Y20200D01*
X184500Y20700D02*X184000Y20200D01*
X186200Y18000D02*X187700Y20000D01*
Y21500D02*Y20000D01*
X187200Y22000D02*X187700Y21500D01*
X186200Y22000D02*X187200D01*
X185700Y21500D02*X186200Y22000D01*
X185700Y21500D02*Y20500D01*
X186200Y20000D01*
X187700D01*
X188900Y21500D02*X189400Y22000D01*
X190400D01*
X190900Y21500D01*
X190400Y18000D02*X190900Y18500D01*
X189400Y18000D02*X190400D01*
X188900Y18500D02*X189400Y18000D01*
Y20200D02*X190400D01*
X190900Y21500D02*Y20700D01*
Y19700D02*Y18500D01*
Y19700D02*X190400Y20200D01*
X190900Y20700D02*X190400Y20200D01*
X192100Y22000D02*X194100D01*
X192100D02*Y20000D01*
X192600Y20500D01*
X193600D01*
X194100Y20000D01*
Y18500D01*
X193600Y18000D02*X194100Y18500D01*
X192600Y18000D02*X193600D01*
X192100Y18500D02*X192600Y18000D01*
X195800Y19500D02*Y18000D01*
Y19500D02*X196300Y20000D01*
X196800D01*
X197300Y19500D01*
Y18000D01*
Y19500D02*X197800Y20000D01*
X198300D01*
X198800Y19500D01*
Y18000D01*
X195300Y20000D02*X195800Y19500D01*
X200000Y21000D02*Y20900D01*
Y19500D02*Y18000D01*
X201000Y22000D02*Y18500D01*
X201500Y18000D01*
X204300Y18500D02*X207300Y21500D01*
X210800Y18000D02*X212300Y20000D01*
Y21500D02*Y20000D01*
X211800Y22000D02*X212300Y21500D01*
X210800Y22000D02*X211800D01*
X210300Y21500D02*X210800Y22000D01*
X210300Y21500D02*Y20500D01*
X210800Y20000D01*
X212300D01*
X214000Y18000D02*X215500Y20000D01*
Y21500D02*Y20000D01*
X215000Y22000D02*X215500Y21500D01*
X214000Y22000D02*X215000D01*
X213500Y21500D02*X214000Y22000D01*
X213500Y21500D02*Y20500D01*
X214000Y20000D01*
X215500D01*
X216700Y18000D02*X217200D01*
X218900D02*X220400Y20000D01*
Y21500D02*Y20000D01*
X219900Y22000D02*X220400Y21500D01*
X218900Y22000D02*X219900D01*
X218400Y21500D02*X218900Y22000D01*
X218400Y21500D02*Y20500D01*
X218900Y20000D01*
X220400D01*
X221600Y22000D02*X223600D01*
X221600D02*Y20000D01*
X222100Y20500D01*
X223100D01*
X223600Y20000D01*
Y18500D01*
X223100Y18000D02*X223600Y18500D01*
X222100Y18000D02*X223100D01*
X221600Y18500D02*X222100Y18000D01*
X225300Y19500D02*Y18000D01*
Y19500D02*X225800Y20000D01*
X226300D01*
X226800Y19500D01*
Y18000D01*
Y19500D02*X227300Y20000D01*
X227800D01*
X228300Y19500D01*
Y18000D01*
X224800Y20000D02*X225300Y19500D01*
X230000D02*Y18000D01*
Y19500D02*X230500Y20000D01*
X231000D01*
X231500Y19500D01*
Y18000D01*
Y19500D02*X232000Y20000D01*
X232500D01*
X233000Y19500D01*
Y18000D01*
X229500Y20000D02*X230000Y19500D01*
X410500Y160000D02*X410000Y160500D01*
Y161500D02*Y160500D01*
Y161500D02*X410500Y162000D01*
X414000Y161500D02*X413500Y162000D01*
X414000Y161500D02*Y160500D01*
X413500Y160000D02*X414000Y160500D01*
X411800Y161500D02*Y160500D01*
X410500Y162000D02*X411300D01*
X412300D02*X413500D01*
X412300D02*X411800Y161500D01*
X411300Y162000D02*X411800Y161500D01*
X410800Y163200D02*X410000Y164000D01*
X414000D01*
Y164700D02*Y163200D01*
X412500Y165900D02*X410000Y167900D01*
X412500Y168400D02*Y165900D01*
X410000Y167900D02*X414000D01*
X413500Y169600D02*X414000Y170100D01*
X410500Y169600D02*X413500D01*
X410500D02*X410000Y170100D01*
Y171100D02*Y170100D01*
Y171100D02*X410500Y171600D01*
X413500D01*
X414000Y171100D02*X413500Y171600D01*
X414000Y171100D02*Y170100D01*
X413000Y169600D02*X411000Y171600D01*
X412500Y173300D02*X414000D01*
X412500D02*X412000Y173800D01*
Y174300D02*Y173800D01*
Y174300D02*X412500Y174800D01*
X414000D01*
X412500D02*X412000Y175300D01*
Y175800D02*Y175300D01*
Y175800D02*X412500Y176300D01*
X414000D01*
X412000Y172800D02*X412500Y173300D01*
X411000Y177500D02*X411100D01*
X412500D02*X414000D01*
X410000Y178500D02*X413500D01*
X414000Y179000D01*
X413500Y181800D02*X410500Y184800D01*
X414000Y188300D02*X410000Y190300D01*
Y187800D01*
X414000Y192000D02*X412000Y193500D01*
X410500D02*X412000D01*
X410000Y193000D02*X410500Y193500D01*
X410000Y193000D02*Y192000D01*
X410500Y191500D02*X410000Y192000D01*
X410500Y191500D02*X411500D01*
X412000Y192000D01*
Y193500D02*Y192000D01*
X414000Y195200D02*Y194700D01*
Y196900D02*X410000Y198900D01*
Y196400D01*
Y201600D02*X410500Y202100D01*
X410000Y201600D02*Y200600D01*
X410500Y200100D02*X410000Y200600D01*
X410500Y200100D02*X413500D01*
X414000Y200600D01*
X411800Y201600D02*X412300Y202100D01*
X411800Y201600D02*Y200100D01*
X414000Y201600D02*Y200600D01*
Y201600D02*X413500Y202100D01*
X412300D02*X413500D01*
X412500Y203800D02*X414000D01*
X412500D02*X412000Y204300D01*
Y204800D02*Y204300D01*
Y204800D02*X412500Y205300D01*
X414000D01*
X412500D02*X412000Y205800D01*
Y206300D02*Y205800D01*
Y206300D02*X412500Y206800D01*
X414000D01*
X412000Y203300D02*X412500Y203800D01*
Y208500D02*X414000D01*
X412500D02*X412000Y209000D01*
Y209500D02*Y209000D01*
Y209500D02*X412500Y210000D01*
X414000D01*
X412500D02*X412000Y210500D01*
Y211000D02*Y210500D01*
Y211000D02*X412500Y211500D01*
X414000D01*
X412000Y208000D02*X412500Y208500D01*
M02*
